<?xml version="1.0" encoding="UTF-8" standalone="no"?>
<svg
   xmlns:dc="http://purl.org/dc/elements/1.1/"
   xmlns:cc="http://creativecommons.org/ns#"
   xmlns:rdf="http://www.w3.org/1999/02/22-rdf-syntax-ns#"
   xmlns:svg="http://www.w3.org/2000/svg"
   xmlns="http://www.w3.org/2000/svg"
   xmlns:sodipodi="http://sodipodi.sourceforge.net/DTD/sodipodi-0.dtd"
   xmlns:inkscape="http://www.inkscape.org/namespaces/inkscape"
   version="1.0"
   width="2048.000000pt"
   height="1208.000000pt"
   viewBox="0 0 2048.000000 1208.000000"
   preserveAspectRatio="xMidYMid meet"
   id="svg858"
   sodipodi:docname="multiple-worker-requests.svg"
   inkscape:version="0.92.2 (5c3e80d, 2017-08-06)">
  <defs
     id="defs862" />
  <sodipodi:namedview
     pagecolor="#ffffff"
     bordercolor="#666666"
     borderopacity="1"
     objecttolerance="10"
     gridtolerance="10"
     guidetolerance="10"
     inkscape:pageopacity="0"
     inkscape:pageshadow="2"
     inkscape:window-width="3840"
     inkscape:window-height="2072"
     id="namedview860"
     showgrid="false"
     showguides="true"
     inkscape:guide-bbox="true"
     inkscape:zoom="1"
     inkscape:cx="1365.3333"
     inkscape:cy="830.25594"
     inkscape:window-x="0"
     inkscape:window-y="46"
     inkscape:window-maximized="1"
     inkscape:current-layer="svg858">
    <sodipodi:guide
       position="1953,304.5"
       orientation="0,1"
       id="guide940"
       inkscape:locked="false" />
  </sodipodi:namedview>
  <metadata
     id="metadata702">
Created by potrace 1.15, written by Peter Selinger 2001-2017
<rdf:RDF>
  <cc:Work
     rdf:about="">
    <dc:format>image/svg+xml</dc:format>
    <dc:type
       rdf:resource="http://purl.org/dc/dcmitype/StillImage" />
    <dc:title></dc:title>
  </cc:Work>
</rdf:RDF>
</metadata>
  <path
     style="fill:#000000;stroke:none;stroke-width:0.1"
     inkscape:connector-curvature="0"
     id="path704"
     d="m 1612.5,129 c -47.9,4.9 -111.9,8.2 -150,7.8 -73.6,-0.7 -108.7,0.2 -109.7,2.9 -0.3,0.7 0,2 0.7,2.7 0.9,1.1 0.9,2 0,3.7 -1,1.7 -0.9,2.3 0.1,3 0.7,0.4 1.6,0.6 1.9,0.4 0.3,-0.2 0.2,4.9 -0.2,11.3 -0.3,6.5 -0.7,28.6 -0.7,49.2 -0.1,47.7 2.5,95 8.3,151.5 2.4,22.7 3.6,43 3.6,59.1 0,13.3 0.2,15.3 1.7,15.8 2.3,0.9 3.3,-1.1 3.3,-6.9 v -5.1 l 14.3,-2.3 c 20.5,-3.4 27.2,-3.6 66.7,-2.1 37.6,1.4 79,0.7 136,-2.5 29.4,-1.6 155.6,-12.1 199,-16.5 16.2,-1.6 38.1,-3.2 48.5,-3.5 20.9,-0.6 32.1,-2 32.9,-4.2 0.3,-0.8 0,-2.2 -0.6,-3.3 -1,-1.5 -0.8,-9.1 0.6,-34.7 2.9,-51.7 3.3,-67.1 2.4,-92.8 -0.8,-26 -3.9,-74.1 -6.4,-100.4 -0.9,-9.1 -1.3,-17.9 -1,-19.7 0.7,-3.6 -0.4,-4.8 -4.9,-5.8 -5.6,-1.1 -42.9,-3.6 -55.5,-3.6 -6.9,0 -15.9,-0.5 -20,-1 -20.4,-2.7 -50.9,-4.1 -117,-5.4 -23.2,-0.5 -28.1,-0.3 -54,2.4 z m 96,9.5 c 6.9,0 24,-0.2 38,-0.5 14,-0.3 33.8,-0.2 44,0.3 38.7,1.6 63.1,3 63.6,3.9 0.3,0.4 1.3,0.8 2.3,0.8 1.7,0 1.9,1.4 2.5,16.2 1.8,48.3 2.7,128 1.8,155.5 -0.7,19.2 -0.7,36.9 -0.1,51.9 0.8,18.2 0.7,22.9 -0.3,23.6 -0.7,0.5 -4.9,0.7 -9.3,0.3 -27.7,-2 -45.2,-1.7 -93,1.4 -26.4,1.8 -70.9,5.2 -99,7.6 -99.8,8.7 -162,12.5 -202.9,12.5 -35,0 -51.2,1.1 -68.5,4.6 -6.8,1.3 -13.2,2.2 -14.2,1.9 -1.8,-0.6 -1.9,-1.9 -1.9,-19.1 0,-27.7 -1.7,-68.8 -5,-118.9 -3.3,-50.3 -4.6,-76.4 -5.6,-112.6 l -0.7,-24.6 14.4,-0.6 c 19.7,-0.9 35.8,-0.8 52.4,0.3 39.2,2.6 59.5,3.1 88,2 65.8,-2.4 78.1,-3 100.5,-4.9 12.9,-1.1 25.8,-2.2 28.5,-2.4 2.8,-0.2 15.6,-0.1 28.5,0.2 12.9,0.3 29.1,0.6 36,0.6 z" />
  <g
     id="g990"
     transform="rotate(3.802865,837.01496,412.15917)">
    <g
       id="g1019"
       transform="translate(-1.247983,3.8412288)">
      <path
         style="fill:#000000;stroke:none;stroke-width:0.1"
         inkscape:connector-curvature="0"
         id="path706"
         d="m 1373,179.4 c 0,1.9 0.4,3.6 0.9,3.8 1.3,0.5 8.6,21 13,36.9 6.2,22.4 11.1,41.9 11.1,44.4 0,3.5 4.6,14.8 6.4,16 2.2,1.3 2.8,0.2 6.1,-10.2 1.4,-4.5 7.5,-20.7 13.6,-36 12,-30 18.3,-47.9 17.5,-50 -0.8,-2.1 -4.4,-1.5 -5.8,0.9 -5.1,9.5 -26.7,68.8 -29.2,80.5 -1.5,6.8 -3.4,2.8 -3.5,-7.5 -0.1,-5.8 -6.3,-30.7 -10.9,-44.2 -9.9,-28.6 -19.2,-45.4 -19.2,-34.6 z" />
      <path
         style="fill:#000000;stroke:none;stroke-width:0.1"
         inkscape:connector-curvature="0"
         id="path708"
         d="m 1740,194.2 c -0.1,0.7 0,10.1 0,20.8 0.1,15.2 0.4,19.8 1.5,20.9 1.8,1.8 4.5,0.7 4.5,-1.9 0,-2.5 0.3,-2.5 7.6,0 7.3,2.6 10.8,2.3 11.2,-0.8 0.3,-2.1 -0.7,-2.8 -3.3,-2.2 -0.9,0.1 -12.5,-3 -13.4,-3.7 -0.2,-0.1 1.7,-2.7 4.2,-5.6 6.2,-7.3 7.5,-10.3 5.5,-12.4 -1.9,-1.8 -3.8,-1 -3.8,1.8 0,1.8 -6.8,10.4 -7.6,9.6 -0.2,-0.2 -0.8,-5.8 -1.4,-12.4 -0.5,-6.6 -1.2,-12.8 -1.6,-13.7 -0.7,-1.9 -3.4,-2.2 -3.4,-0.4 z" />
      <path
         style="fill:#000000;stroke:none;stroke-width:0.1"
         inkscape:connector-curvature="0"
         id="path710"
         d="m 1512,206.2 c 0,3.5 -0.3,10 -0.7,14.6 -0.5,7.6 -0.8,8.3 -3.2,9.5 -1.4,0.7 -2.7,2.2 -2.9,3.5 -0.3,1.9 0.1,2.2 2.7,2.2 3.1,0 3.1,0 3.1,5.4 0,3.6 0.5,6 1.6,7 3.7,3.7 5.4,0.4 4.7,-9 l -0.6,-7.3 3.6,-0.6 c 6,-1.2 6.1,-6.2 0.1,-5.2 -2.2,0.4 -3.4,0.2 -3.5,-0.6 -0.1,-0.7 -0.4,-6.6 -0.8,-13.2 -0.5,-10.3 -0.8,-12 -2.3,-12.3 -1.6,-0.3 -1.8,0.5 -1.8,6 z" />
      <path
         style="fill:#000000;stroke:none;stroke-width:0.1"
         inkscape:connector-curvature="0"
         id="path712"
         d="m 1817.2,204.5 c -7.2,3.3 -10.9,6 -14.2,10.7 l -2.8,3.9 -0.7,-3.1 c -0.7,-3 -2.8,-4 -4,-1.9 -0.8,1.2 2.3,14.8 3.8,16.6 2.1,2.7 3.6,1.3 4.3,-3.9 0.9,-6.9 5.4,-11.8 14.9,-16.4 6.9,-3.3 9.2,-5.4 7.9,-7.5 -0.8,-1.4 -3.5,-1 -9.2,1.6 z" />
      <path
         style="fill:#000000;stroke:none;stroke-width:0.1"
         inkscape:connector-curvature="0"
         id="path714"
         d="m 1723.5,208.5 c -7.5,3.4 -13.1,7.9 -16.1,13.1 -1.5,2.6 -2.9,4.3 -3,3.8 -0.2,-0.5 -0.8,-2.8 -1.4,-5.2 -1,-3.8 -3.1,-5.5 -4.4,-3.4 -0.5,0.9 2.9,20.6 3.9,22.2 1.6,2.7 3.5,0.6 5.5,-6.1 2.5,-8.4 6.4,-12.8 16,-17.8 8.3,-4.4 9.7,-6.1 6.3,-8 -1.3,-0.6 -3.3,-0.2 -6.8,1.4 z" />
      <path
         style="fill:#000000;stroke:none;stroke-width:0.1"
         inkscape:connector-curvature="0"
         id="path716"
         d="m 1777.6,212.2 c -2,2.3 -3.6,4.7 -3.6,5.4 0,0.6 -0.7,1.7 -1.6,2.4 -2.1,1.8 -1,8.9 1.8,11.2 2.8,2.5 6.4,2.2 11.4,-0.7 4.4,-2.6 6.4,-5.1 6.4,-7.9 0,-2.3 -3.4,-2 -5.6,0.5 -2.5,2.8 -7.2,5.1 -8.6,4.3 -0.6,-0.4 0.4,-1.5 2.6,-2.6 2,-1 4.6,-3.3 5.6,-5.1 2.4,-3.9 2.7,-10.2 0.4,-11.1 -3.3,-1.3 -5.4,-0.5 -8.8,3.6 z m 6.4,1.7 c 0,1.4 -4.9,6.8 -5,5.5 0,-1.1 3.8,-6.4 4.6,-6.4 0.2,0 0.4,0.4 0.4,0.9 z" />
      <path
         style="fill:#000000;stroke:none;stroke-width:0.1"
         inkscape:connector-curvature="0"
         id="path718"
         d="m 1660.1,210.4 c -1.4,1.6 -2.8,8 -4.1,17.6 -1.5,11.2 -2,13 -3.6,13 -2.1,0 -6.1,-6 -7.6,-11.5 -1,-3.8 -1.9,-5.1 -3.5,-5.3 -2.3,-0.3 -3.4,2.2 -4.9,11.6 -0.4,2.3 -1,4.5 -1.4,4.7 -0.9,0.6 -2.6,-6.3 -3.5,-14.5 -1,-8.4 -1.4,-10 -3,-10 -2.4,0 -2.6,1.6 -1.5,13 1.2,12.6 2.8,17.6 6.2,18.9 3.1,1.2 5.5,-1 7.2,-6.8 1.1,-3.9 1.4,-4.3 2,-2.4 1.2,3.6 6.3,7.3 10.2,7.3 3.2,0 3.7,-0.4 5.4,-4.3 1,-2.3 2.6,-8.7 3.6,-14.2 1,-6.1 2.3,-10.4 3.2,-11.1 1,-0.7 1.3,-1.9 0.9,-3.6 -0.7,-2.8 -4.1,-4.3 -5.6,-2.4 z" />
      <path
         style="fill:#000000;stroke:none;stroke-width:0.1"
         inkscape:connector-curvature="0"
         id="path720"
         d="m 1677.2,214.7 c -2.9,2.5 -6.2,11.5 -6.2,16.8 0,5.5 2.6,8.5 7.1,8.5 6.4,0 14.2,-11.6 12.5,-18.5 -0.4,-1.5 -2.1,-3.5 -4.1,-4.7 -1.9,-1.1 -3.5,-2.4 -3.5,-2.9 0,-1.5 -3.7,-1 -5.8,0.8 z m 7.2,7.2 c 1.2,1.3 1.5,2.7 1,4.5 -0.8,3.4 -6.9,10 -8.4,9.1 -1.3,-0.8 -1.3,-8.4 0.1,-12.4 1.3,-3.6 4.6,-4.2 7.3,-1.2 z" />
      <path
         style="fill:#000000;stroke:none;stroke-width:0.1"
         inkscape:connector-curvature="0"
         id="path722"
         d="m 1493.8,222.9 c -7.1,3.4 -8.5,4.6 -12,10 l -2.8,4.5 -1.1,-3.2 c -1.1,-3.1 -3.2,-4.2 -4.4,-2.3 -0.3,0.5 0.7,4.9 2.3,9.8 2.3,7.1 3.2,8.8 4.7,8.8 1.7,0 2.1,-0.9 2.6,-5.8 0.8,-7.4 4.4,-12.1 12.5,-16.3 3.9,-2 6,-3.7 6.2,-5.1 0.5,-3.2 -1.8,-3.3 -8,-0.4 z" />
      <path
         style="fill:#000000;stroke:none;stroke-width:0.1"
         inkscape:connector-curvature="0"
         id="path724"
         d="m 1446.3,225.2 c -2.7,1.3 -5.8,7.3 -7.4,14.5 -1,4.1 -1,6.4 0,10.8 1.4,6 3.5,8.2 9.4,9.4 6.7,1.5 21.7,-3.4 21.7,-7 0,-3 -1.7,-3.1 -9.4,-0.5 -11.7,4.1 -14.9,3.4 -16.2,-3.2 -0.5,-2.7 -0.3,-3.2 1.2,-3.2 1,0 3.7,-0.9 6.1,-2.1 8.9,-4.3 9.8,-14.6 1.6,-18.8 -2.6,-1.3 -4.1,-1.3 -7,0.1 z m 6.1,5.4 c 2.7,2.6 2,6.2 -1.6,8.4 -4.1,2.5 -7.3,2.7 -6.4,0.4 0.3,-0.9 0.6,-2.4 0.6,-3.3 0,-2 3.6,-7.1 5,-7.1 0.5,0 1.6,0.7 2.4,1.6 z" />
      <path
         style="fill:#000000;stroke:none;stroke-width:0.1"
         inkscape:connector-curvature="0"
         id="path726"
         d="m 1551,226 c 0,1.1 1.5,3.7 3.3,5.7 6,7 6,6.9 4.4,10 -2.6,5.1 -4.8,12.5 -4.2,14.4 0.8,2.3 4.7,2.5 6.5,0.4 0.7,-0.9 1,-2.5 0.6,-4.1 -0.4,-1.4 -0.2,-4.2 0.5,-6.1 l 1.1,-3.5 2.7,2.6 c 5.5,5.3 8.5,1.6 3.5,-4.4 l -2.6,-3.1 2.7,-4 c 3.4,-5.2 3.8,-9.4 1,-9.4 -1.2,0 -2.1,0.8 -2.3,2 -0.2,1.2 -1.4,3.4 -2.8,5 l -2.4,3 -4.8,-5.3 c -5.2,-5.5 -7.2,-6.5 -7.2,-3.2 z" />
      <path
         style="fill:#000000;stroke:none;stroke-width:0.1"
         inkscape:connector-curvature="0"
         id="path728"
         d="m 1527,247.5 c -1.9,2.3 -0.8,5 2.2,5.3 1.9,0.2 2.8,-0.2 3.3,-1.8 1.2,-3.9 -2.9,-6.6 -5.5,-3.5 z" />
    </g>
  </g>
  <path
     style="fill:#0000ff;stroke:none;stroke-width:0.1"
     inkscape:connector-curvature="0"
     id="path730"
     d="m 1295.3,298.6 c -1.4,0.6 -1.8,4.4 -0.5,4.4 5.8,0.2 16.8,1.1 18.3,1.5 1.6,0.5 1.2,1.2 -2.9,4.2 -15.2,11.5 -54.2,47.6 -54.2,50.2 0,0.6 0.7,1.4 1.6,1.8 1,0.4 3.3,-1.1 6.7,-4.4 10.3,-9.9 51.5,-43.9 52.3,-43.1 0.1,0.2 -1.8,6.2 -4.2,13.5 -5.1,14.9 -6.5,23 -4.3,24.4 2.6,1.7 4.7,0.9 6.8,-2.5 2.5,-4 2.7,-6.6 0.5,-6.6 -1.3,0 -1.5,-0.7 -0.9,-3.6 1.6,-8.6 8.4,-28.4 10.8,-31.6 4.4,-5.7 3.2,-9.1 -2.4,-6.8 -2.2,1 -4,1 -7.4,0.1 -5.3,-1.3 -18.5,-2.3 -20.2,-1.5 z" />
  <path
     style="fill:#0000ff;stroke:none;stroke-width:0.1"
     inkscape:connector-curvature="0"
     id="path732"
     d="m 1217.5,308 c -14.6,3.2 -20.5,17.3 -22.7,54.3 -2.1,34.9 0.9,72.5 7.2,89 2.8,7.4 9.4,14.7 13.6,14.8 10.7,0.4 15.4,-2.9 20,-14.2 4.9,-11.9 6.3,-22.2 7.5,-53.2 1.5,-36.7 0.5,-50.6 -4.4,-63.5 -1.9,-4.8 -4.4,-12 -5.7,-16 -2.4,-7.6 -4.1,-9.5 -9.6,-11.1 -1.6,-0.4 -4.2,-0.5 -5.9,-0.1 z m 6.4,6.5 c 0.2,1.1 1.1,2.5 2.1,3.2 1,0.7 2.2,2.8 2.5,4.6 0.4,1.7 2.5,7.8 4.6,13.3 3.5,9.4 3.8,11.2 4.4,24 0.9,19.6 -1,70 -3,79.3 -3.1,14.1 -7.6,21.1 -14.7,22.6 -6.4,1.4 -12.3,-7.1 -15.8,-23 -4.9,-21.9 -4.9,-87.8 0,-107.8 1.4,-5.6 3.1,-9.9 4.7,-11.8 5.2,-6.1 14.3,-8.8 15.2,-4.4 z" />
  <path
     style="fill:#000000;stroke:none;stroke-width:0.1"
     inkscape:connector-curvature="0"
     id="path740"
     d="m 1851.75,494.35 c -13.7,0.7 -81.4,10 -120.2,16.4 -22.9,3.8 -106,13.7 -129.8,15.4 -8,0.6 -28.4,1.8 -45.5,2.6 -17,0.8 -34.1,1.7 -38,2.1 -3.8,0.3 -29,1 -56,1.5 -26.9,0.5 -59.5,1.2 -72.2,1.5 -16.4,0.5 -23.3,0.4 -23.3,-0.4 0,-0.6 0.5,-1.4 1,-1.7 1.8,-1.1 1.1,-3.5 -1,-3.5 -1.4,0 -2.5,1 -3.3,3 -1.2,2.8 -1.3,2.8 -2.5,1 -1.8,-2.9 -3.2,-2.4 -3.2,1.1 0,2.4 0.6,3.2 2.9,4 2.6,0.9 3.1,1.8 4.5,7.7 3.6,16.1 3.9,22.5 4.2,79.7 0.2,50.3 0.5,61 2.8,90.9 1.4,18.6 2.6,38.1 2.6,43.2 0,8.8 0.2,9.7 2.5,12 1.4,1.4 3.3,2.4 4.3,2.2 2.3,-0.4 2.7,-3.4 0.7,-5.4 -1.3,-1.3 -1.4,-2.9 -0.8,-9.3 1.1,-10.7 0.8,-51.9 -0.6,-75.1 -0.6,-10.7 -1.8,-37.5 -2.6,-59.5 -1.6,-43.1 -3.3,-60.6 -7.1,-75.4 -1.4,-5.1 -2.3,-9.5 -2.2,-9.6 0.2,-0.1 6.6,0.1 14.3,0.6 7.7,0.4 19.6,0.5 26.5,0.3 6.9,-0.3 26.5,-0.1 43.5,0.4 40.8,1.3 137.3,-0.9 170.5,-3.8 45.6,-4.1 85.4,-9.2 119,-15.5 10.2,-1.9 27.3,-4.8 38,-6.5 10.7,-1.7 30.5,-5.3 44,-8 13.5,-2.6 27.1,-5.2 30.3,-5.5 l 5.7,-0.7 0.1,10.3 c 0.1,16.2 -0.2,27.5 -1,53.9 -0.9,26.5 0.1,87 2.1,131 0.7,15.1 1.3,33.5 1.2,40.8 -0.1,12.8 0,13.3 1.9,13 1.3,-0.2 2.4,-1.4 2.9,-3.3 1.5,-5.5 1.2,-124.2 -0.4,-184 -1,-37.7 -1.2,-58.4 -0.6,-59.2 0.6,-0.7 0.8,-1.8 0.6,-2.5 -0.3,-0.7 0.2,-1.9 0.9,-2.6 1,-1.1 1.1,-1.7 0.2,-2.8 -0.6,-0.8 -1.7,-1.3 -2.3,-1.2 -0.6,0 -7.2,0.4 -14.6,0.9 z" />
  <path
     style="fill:#0000ff;stroke:none;stroke-width:0.1"
     inkscape:connector-curvature="0"
     id="path746"
     d="m 1166.8,433 c -2.7,1.7 -5.2,3 -5.6,3 -0.5,0 -3.2,2.1 -6.2,4.6 -2.9,2.5 -9.9,7.8 -15.4,11.7 -11.9,8.4 -14,10.2 -62.1,53.2 -58.4,52.3 -99.5,91.4 -99.5,94.7 0,1 0.4,1.8 1,1.8 2.1,0 6,-2.4 6.5,-4 0.3,-1 5.4,-5.8 11.3,-10.8 99.6,-83.7 140.4,-119.1 159.7,-138.7 3.9,-3.8 9.6,-8.8 12.8,-10.9 5.8,-4 6.9,-5.9 4.1,-7 -2,-0.7 -1.1,-1 -6.6,2.4 z" />
  <g
     id="g961"
     transform="rotate(3.354427,528.06659,376.13965)"
     style="fill:#0000ff">
    <path
       d="m 779.5,408.8 c -2.6,0.2 -4.7,1.2 -6.3,3 l -2.5,2.6 2.8,2.2 c 2.6,2 2.7,2.5 2.1,7.5 -0.3,3 -0.8,10.3 -1.1,16.4 -0.3,6 -0.8,12.8 -1,15 -0.6,4.7 0.5,6.8 3.1,6.3 1.6,-0.3 2,-1.7 2.8,-8.3 0.5,-4.4 1,-8.1 1.1,-8.3 0.1,-0.1 5.7,3.9 12.5,9 6.7,5.1 13.2,9.9 14.4,10.7 2.5,1.6 5.3,1 6.2,-1.4 0.7,-1.8 0.2,-2.6 -1.8,-2.8 -0.7,-0.2 -3.6,-2 -6.4,-4.2 -2.8,-2.2 -9,-6.7 -13.7,-10 l -8.7,-6 4.8,-2.3 c 8.8,-4.4 14.2,-11.3 14.2,-17.9 0,-7.6 -10.1,-12.8 -22.5,-11.5 z m 10.7,5.2 c 9.5,2.7 8.8,11.5 -1.5,17.4 -8.4,4.8 -8.4,4.9 -7.9,-5.6 0.3,-7.8 0.7,-9.6 2.4,-11.1 2.4,-2 2.2,-2 7,-0.7 z"
       id="path734"
       inkscape:connector-curvature="0"
       style="fill:#0000ff;stroke:none;stroke-width:0.1" />
    <path
       d="m 950.8,424.6 0.5,10.5 -2.7,-0.7 c -2.2,-0.5 -2.6,-0.3 -2.6,1.4 0,1.3 0.9,2.2 2.5,2.6 2.3,0.6 2.5,1.1 2.5,6.5 0,3.9 0.5,6.3 1.5,7.1 2.5,2.1 3.5,0.1 3.5,-6.9 v -6.9 l 3.1,-0.6 c 4.2,-0.8 9.9,-4.4 9.9,-6.2 0,-2.5 -2.3,-2.5 -7.5,0.1 l -5,2.6 -1,-8.8 c -1,-9.2 -1.8,-11.3 -3.9,-11.3 -1,0 -1.2,2.4 -0.8,10.6 z"
       id="path736"
       inkscape:connector-curvature="0"
       style="fill:#0000ff;stroke:none;stroke-width:0.1" />
    <path
       d="m 982.2,417.1 c -1.4,0.5 -3.1,2.8 -4.3,5.5 -3.1,6.9 -2.1,10.4 5.1,17.3 6.2,5.9 6.5,7.2 1.8,9 -2.5,0.9 -3,0.7 -5.4,-2.4 -4.9,-6.5 -8.1,-3.2 -3.3,3.4 2.5,3.6 3.4,4.1 6.8,4.1 5.4,0 10.1,-3.9 10.1,-8.3 0,-2.6 -1.1,-4.2 -6,-8.8 -5,-4.6 -6,-6.1 -6,-8.8 0,-3.7 1.5,-7.1 3.2,-7.1 0.6,0 2,0.8 3,1.7 1.6,1.4 2.1,1.5 2.8,0.4 2,-3.3 -3.6,-7.6 -7.8,-6 z"
       id="path738"
       inkscape:connector-curvature="0"
       style="fill:#0000ff;stroke:none;stroke-width:0.1" />
    <path
       d="m 928.5,426.1 c -2.1,2.6 -2.5,3.9 -2,6.3 0.4,1.7 0.6,6.8 0.5,11.3 -0.1,7 0.1,8.4 1.9,10.2 4.4,4.4 12.1,1.1 12.1,-5.2 0,-3.7 -1.4,-6.3 -5.9,-11.1 -2,-2.1 -3.1,-3.6 -2.4,-3.2 1.5,0.8 6.6,-6.8 6.1,-9.2 -0.2,-1.2 -1.5,-1.8 -3.9,-2 -3.1,-0.3 -4.1,0.2 -6.4,2.9 z m 3.6,4.6 c -0.8,1.5 -1,1.5 -1.1,0.2 0,-1.7 1,-3.2 1.8,-2.5 0.2,0.3 -0.1,1.3 -0.7,2.3 z m 3.9,17.9 c 0,1.7 -0.6,2.4 -2,2.4 -1.7,0 -2,-0.7 -2,-4.8 l 0.1,-4.7 1.9,2.4 c 1.1,1.3 2,3.4 2,4.7 z"
       id="path742"
       inkscape:connector-curvature="0"
       style="fill:#0000ff;stroke:none;stroke-width:0.1" />
    <path
       d="m 823.1,431.1 c -1.1,1.2 -2.7,3.6 -3.6,5.4 -1.1,2.5 -2,3.2 -3.5,2.8 -1.7,-0.4 -2,0 -2,2.5 0,1.6 0.6,3.2 1.4,3.5 0.8,0.3 1.5,2.7 1.8,6.3 0.4,4.9 1,6.2 3.7,8.6 4.4,3.9 10.1,3.9 16.3,-0.2 5.7,-3.8 7.2,-5.5 6.4,-7.5 -0.9,-2.4 -3.8,-1.7 -8.5,2 -7.2,5.7 -11.8,4.5 -12.8,-3.4 -0.5,-3.6 -0.3,-4.1 2.5,-5.5 5.9,-3 9.3,-10.6 6.6,-14.4 -1.9,-2.8 -5.7,-2.8 -8.3,-0.1 z m 4.9,4.2 c 0,1.5 -4,6.1 -4.7,5.4 -0.2,-0.3 0.3,-1.9 1.2,-3.6 1.6,-3.2 3.5,-4.1 3.5,-1.8 z"
       id="path744"
       inkscape:connector-curvature="0"
       style="fill:#0000ff;stroke:none;stroke-width:0.1" />
    <path
       d="m 905.7,437 c -1.4,1.6 -2.9,3.9 -3.2,5 -0.4,1.2 -1.4,1.9 -2.3,1.8 -1.2,-0.2 -1.8,0.5 -2,2.4 -0.2,1.6 0.1,2.8 0.7,2.8 0.6,0 1.1,1.3 1.1,2.9 0,4.1 4.3,7.5 8.5,6.7 3.8,-0.8 10.5,-5.2 10.5,-7 0,-2.5 -2.9,-2.5 -7.4,0 -2.5,1.4 -5,2.3 -5.6,1.9 -1.7,-1 -1.1,-3.3 1,-4 2.4,-0.8 4.7,-4 6,-8.6 0.8,-2.6 0.6,-3.7 -0.7,-5.1 -2.3,-2.5 -3.7,-2.3 -6.6,1.2 z"
       id="path748"
       inkscape:connector-curvature="0"
       style="fill:#0000ff;stroke:none;stroke-width:0.1" />
    <path
       d="m 850.6,438 c -4.5,5.5 -6.1,15.4 -2.8,18.3 2.7,2.4 6.2,2.1 9.2,-0.8 l 2.7,-2.6 -0.7,5.3 c -1.2,8.8 -1.2,32.4 0,36.7 1.2,4.5 5.1,8.2 7.9,7.4 4.1,-1.1 9.1,-9.7 9.1,-15.7 0,-5 -3.3,-12.9 -7.5,-18 l -4.4,-5.4 0.5,-7.4 c 0.3,-4 1.1,-8.3 1.7,-9.6 1.4,-3 -0.9,-7.7 -3.8,-7.7 -1.1,0 -2.3,-0.8 -2.7,-1.8 -1.2,-2.9 -6.2,-2.2 -9.2,1.3 z m 8.4,4.5 c 0,1.1 -3.2,7 -4.8,8.7 -2.3,2.7 -3.2,2.2 -3.2,-1.8 0,-5.1 1.5,-7.4 5,-7.4 1.7,0 3,0.2 3,0.5 z m 9.2,35.9 c 2.5,4.9 2.7,12.6 0.3,16.2 -2.9,4.4 -4,1.5 -4.3,-11.4 -0.3,-12.4 -0.2,-12.6 4,-4.8 z"
       id="path750"
       inkscape:connector-curvature="0"
       style="fill:#0000ff;stroke:none;stroke-width:0.1" />
    <path
       d="m 882.2,438.3 c -0.5,0.7 -1.3,3.4 -1.7,6.2 -1,7 -1.7,7.7 -3,2.5 -0.7,-3 -1.7,-4.6 -2.9,-4.8 -1.7,-0.4 -1.8,0.1 -1.3,5 1.3,10.8 4.5,14.8 7.9,9.9 1.2,-1.7 1.6,-1.7 3.3,-0.5 3,2.2 6.4,1.7 9.8,-1.7 3,-3 3,-3.2 1.2,-4.5 -1.6,-1.2 -2.1,-1.1 -4,0.6 -4.2,3.9 -5.5,2.2 -5.5,-7 0,-5.9 -1.7,-8.4 -3.8,-5.7 z"
       id="path752"
       inkscape:connector-curvature="0"
       style="fill:#0000ff;stroke:none;stroke-width:0.1" />
  </g>
  <path
     style="fill:#000000;stroke:none;stroke-width:0.1"
     inkscape:connector-curvature="0"
     id="path754"
     d="m 567.65,498.2 c -0.6,1.1 -0.9,3.3 -0.7,4.9 0.3,1.6 0.4,2.9 0.2,2.9 -0.1,0 -1.8,-0.7 -3.7,-1.5 -4.5,-1.9 -8.7,-1.9 -15.4,-0.2 -4.5,1.2 -6.5,1.1 -16.5,-0.6 -16.7,-2.9 -42.1,-2.7 -76.8,0.6 -15.1,1.5 -43,3.4 -62,4.2 -19,0.8 -46.6,2.4 -61.5,3.5 -45.5,3.3 -58.4,3.4 -112.5,1 -57.2,-2.5 -70.7,-2.4 -79.5,1 -3.3,1.2 -6.6,2.8 -7.4,3.4 -0.7,0.5 -2.3,1 -3.5,1.1 -2.5,0 -3.5,4.7 -1.4,7.2 1,1.3 1.2,10.1 0.8,45.7 -0.3,24.3 -0.5,64.1 -0.4,88.6 0,40.4 0.3,46.8 2.6,70 1.5,14 2.9,30.9 3.2,37.5 1,19.5 1.5,22.3 4,23.1 1.1,0.3 3.1,1.5 4.3,2.6 2,1.9 2.1,1.9 3.1,0.1 0.9,-1.6 2.3,-1.8 11.4,-1.7 5.7,0.1 15.5,1.1 21.8,2.3 27.3,5.1 57.2,8.1 79.9,8.1 13.8,0 49.7,-2.1 60.6,-3.5 2.2,-0.3 17.5,-2.3 34,-4.5 55.9,-7.3 88.2,-10.3 130.5,-12 27.2,-1.1 73,-1.3 75.4,-0.4 1.1,0.4 1.6,1.9 1.6,4.5 0,4 2.1,6.2 4.1,4.2 0.5,-0.5 1.2,-7.4 1.4,-15.4 0.3,-7.9 0.9,-19.1 1.5,-24.9 3.5,-38.3 7.9,-238.9 5.5,-249.8 -0.8,-3.8 -3.1,-4.8 -4.6,-2 z m -3.2,11.3 3.1,0.7 -0.4,11.7 c -1,24.8 -2.6,52.1 -5.4,88.6 -4.3,55.2 -5.2,80 -4,105 0.6,11.5 1.3,29.5 1.7,39.9 l 0.6,18.8 -3.9,-0.6 c -21.4,-3.3 -79.3,-4 -111.4,-1.2 -24.9,2.1 -59.1,6.5 -94,12.1 -55.1,8.8 -78.6,11 -109,10.2 -21.9,-0.7 -44.3,-2.6 -57.3,-5.1 -13.6,-2.6 -29.9,-4 -35.7,-3 -10.1,1.8 -9.4,3.9 -8.6,-25.9 0.5,-18.8 0.3,-34.7 -0.8,-56.2 -0.9,-16.5 -2,-53.2 -2.6,-81.5 -1.1,-57 -2.7,-90.6 -4.6,-97.3 -0.4,-1.1 0,-1.7 1,-1.7 0.9,0 1.6,-0.8 1.6,-1.9 0,-2.9 12.3,-6.1 23.5,-6.1 5,0 28.4,1.6 52,3.6 54.3,4.5 86.8,5.3 132.5,3 17.9,-0.8 42.2,-1.8 54,-2.1 24.5,-0.7 60.9,-3.5 84.5,-6.6 10.5,-1.4 24.2,-2.3 40,-2.6 16.9,-0.3 25.2,-0.9 28,-1.9 3.8,-1.3 8.4,-1.3 15.2,0.1 z" />
  <g
     id="g951"
     transform="translate(5.25,-9.3059027)">
    <path
       d="m 224.29878,611.30324 c -6.10888,10.5191 -11.01676,30.13753 -15.59343,62.90663 -2.1621,15.99204 -2.28172,16.28477 -3.17495,11.6155 -0.73334,-4.05737 -5.83603,-22.33475 -7.98734,-29.19199 -0.33301,-1.02426 -1.54421,-2.40737 -2.60213,-3.07879 -3.18038,-1.91447 -4.98184,1.07295 -10.33695,16.85341 -2.62435,7.84365 -5.2427,14.08418 -5.62198,13.75839 -0.37929,-0.32579 -0.70569,-1.44983 -0.63957,-2.44764 0.15207,-2.29497 -17.60185,-68.61396 -19.60589,-73.1564 -1.55143,-3.81092 -5.53727,-7.18183 -7.19988,-6.28981 -1.35006,0.71229 -1.52858,3.40638 -0.23142,3.49234 0.49891,0.0331 1.53038,1.1036 2.24929,2.35387 1.34464,2.39414 15.31168,63.85211 19.96416,87.41128 0.73334,4.05737 3.0223,5.81255 5.23671,4.15534 1.57606,-1.0982 11.63049,-25.78744 13.52331,-33.17846 0.56443,-2.46808 1.34885,-3.71895 1.58868,-2.80109 0.6594,2.1483 6.4233,27.08397 7.48303,32.26537 0.75979,3.65825 1.31219,4.39638 3.30782,4.52862 3.99124,0.26448 5.69233,-4.23289 9.72202,-24.21017 5.44344,-27.7007 13.11393,-58.76151 15.65293,-63.80467 2.53239,-4.94337 2.32561,-6.36015 -0.56804,-6.55189 -1.39694,-0.0926 -2.90627,1.51115 -5.16637,5.37016 z"
       id="path756"
       inkscape:connector-curvature="0"
       style="fill:#000000;stroke:none;stroke-width:0.1" />
    <path
       d="m 274.86141,631.69099 c -0.0992,1.49671 0.1034,9.02659 0.60532,16.57629 0.61674,11.86675 0.51155,14.96658 -1.05549,21.97831 -2.23785,9.57298 -1.59708,15.02728 2.14953,18.98366 5.05098,5.44588 13.5444,2.80167 21.596,-6.78695 6.63544,-7.87851 9.71903,-15.09041 9.73585,-22.9064 0.0769,-7.21069 -1.55384,-9.82424 -7.02918,-11.89078 -4.98966,-1.83392 -10.1909,-0.47485 -15.31099,4.19684 l -4.04955,3.64021 -1.04832,-9.89095 c -1.46908,-14.12805 -1.85559,-15.85739 -3.73159,-16.28236 -1.27732,-0.3853 -1.72273,0.28672 -1.86158,2.38213 z m 25.95816,22.66591 c 2.14951,2.34726 1.36088,9.71124 -1.60369,15.12707 -2.39294,4.35131 -14.70748,16.26315 -16.70311,16.13091 -1.29715,-0.086 -1.86459,-5.13452 -1.36209,-12.71789 0.33721,-5.08884 0.97496,-7.15118 3.06916,-10.01899 3.52359,-4.77748 8.28483,-8.57097 11.8499,-9.43715 1.62295,-0.29334 3.05295,-0.69968 3.15273,-0.69306 0.10639,-0.0932 0.85836,0.65819 1.5971,1.60911 z"
       id="path758"
       inkscape:connector-curvature="0"
       style="fill:#000000;stroke:none;stroke-width:0.1" />
    <path
       d="m 512.3304,655.14345 c -9.60484,1.26772 -14.51274,4.24974 -18.56109,10.89661 -1.80807,3.08721 -1.90124,2.98081 -3.1407,-2.51316 -0.46645,-2.03529 -3.3,-1.62174 -3.43884,0.47367 -0.15208,2.29496 0.69187,16.78247 1.18537,19.92197 0.57345,3.44545 4.09224,3.27774 5.1219,-0.1617 2.73676,-9.53993 4.55085,-14.23025 6.09325,-16.33287 2.30698,-3.05415 8.99111,-5.61781 16.02869,-5.95323 5.02873,-0.26809 5.95321,-0.60771 6.58435,-2.57027 1.50813,-4.61038 0.23743,-5.09546 -9.87293,-3.76102 z"
       id="path760"
       inkscape:connector-curvature="0"
       style="fill:#000000;stroke:none;stroke-width:0.1" />
    <path
       d="m 442.64528,655.63704 c -0.75137,0.75197 -1.16311,2.42841 -0.94311,3.64562 0.36006,2.12846 -3.53199,17.00368 -4.70893,18.12832 -0.31256,0.17973 -1.74437,-3.92392 -3.30962,-9.0386 -2.29137,-7.76851 -3.17017,-9.63069 -4.953,-9.94926 -1.87601,-0.42497 -2.30158,-0.0523 -2.44043,2.04311 -0.0926,1.39694 0.2206,2.72054 0.69967,3.05294 0.47907,0.33241 1.80449,4.52922 2.89066,9.3115 1.18596,4.7889 2.87744,9.51107 3.81575,10.47522 1.13786,0.97737 1.44442,2.40076 1.05912,3.67808 -0.87699,2.6478 2.06416,5.14774 4.65125,3.9161 1.44322,-0.6059 1.92169,-1.77683 2.00704,-4.57731 0.0325,-2.00224 1.4396,-9.62588 3.22604,-16.92374 2.62976,-10.95008 2.988,-13.3316 1.93669,-14.1028 -1.8165,-1.323 -2.42179,-1.26289 -3.93113,0.34082 z"
       id="path762"
       inkscape:connector-curvature="0"
       style="fill:#000000;stroke:none;stroke-width:0.1" />
    <path
       d="m 465.30282,658.54148 c -1.49612,1.40415 -3.38414,4.18541 -4.20162,5.93519 -0.92388,1.84294 -2.2601,3.859 -3.11124,4.60436 -0.96415,0.9383 -1.11022,1.63016 -0.45803,2.37491 0.55901,0.63836 0.93891,2.46748 0.83973,3.9642 -0.47606,7.18424 4.97465,14.1599 11.36064,14.58306 3.09322,0.20497 8.99834,-4.21426 9.17024,-6.80857 0.13224,-1.99563 -2.85458,-2.29376 -5.58113,-0.47005 -2.93272,1.91027 -5.10807,1.46547 -7.21129,-1.58026 -2.73558,-4.08982 -2.25771,-6.76408 1.65299,-8.30889 6.58435,-2.57027 10.31952,-10.54075 6.87225,-14.47729 -2.70191,-3.0854 -6.30725,-3.12387 -9.33254,0.18334 z m 5.95502,3.90228 c -0.10579,1.5965 -4.22807,6.33431 -5.42545,6.25496 -1.09759,-0.0727 0.80967,-4.65665 2.63819,-6.53987 1.50933,-1.60372 2.90627,-1.51115 2.78726,0.28491 z"
       id="path764"
       inkscape:connector-curvature="0"
       style="fill:#000000;stroke:none;stroke-width:0.1" />
    <path
       d="m 352.63064,652.87935 c -3.35108,3.6865 -2.9231,9.32714 1.35729,17.32766 3.03551,5.61299 3.25552,6.8302 2.55225,11.39369 -0.96234,5.44829 -4.12709,9.34757 -6.75506,8.17124 -0.77841,-0.35224 -1.83033,-2.62677 -2.37011,-5.0678 -0.88,-4.86884 -2.28415,-6.36495 -4.28579,-4.89408 -3.99665,2.84197 -0.54697,12.79183 5.1081,15.17094 7.12534,2.87742 13.78783,-3.89689 14.60169,-14.66665 0.28431,-4.29059 -0.29514,-6.13293 -3.78329,-12.47745 -4.10726,-7.58817 -4.69454,-12.33739 -1.63498,-13.13685 1.12404,-0.32639 1.28393,0.28552 0.62634,2.64721 -0.53798,2.06896 -0.41114,3.17977 0.56022,3.64502 2.82092,1.28933 5.23249,-6.36797 2.90326,-9.0278 -2.04972,-2.34065 -6.39321,-1.82671 -8.87992,0.91487 z"
       id="path766"
       inkscape:connector-curvature="0"
       style="fill:#000000;stroke:none;stroke-width:0.1" />
    <path
       d="m 378.01533,655.46341 c -4.90069,4.38557 -8.18804,17.69734 -6.28918,25.33962 1.29235,4.69572 7.29486,10.90619 11.7255,12.10175 4.14453,0.97617 8.06184,-0.66842 9.17806,-3.90169 0.8836,-2.74759 -2.18377,-4.85501 -4.11868,-2.87862 -0.75136,0.75196 -1.89524,1.3777 -2.59371,1.33142 -1.99562,-0.13224 -6.12813,-4.31463 -7.59961,-7.81959 -1.39814,-3.09923 -1.38492,-3.29879 1.02906,-4.94278 6.83621,-4.85863 11.01679,-13.50112 8.59378,-17.77067 -1.60431,-3.01267 -7.16561,-3.78206 -9.92522,-1.45944 z m 6.18824,4.91993 c -0.12562,1.89584 -3.49593,7.38501 -5.61057,9.04883 -1.79546,1.38432 -1.78885,1.28454 -0.69306,-3.15272 0.67081,-2.56125 1.74736,-5.19584 2.39233,-5.85463 1.50934,-1.60372 4.01048,-1.5382 3.9113,-0.0415 z"
       id="path768"
       inkscape:connector-curvature="0"
       style="fill:#000000;stroke:none;stroke-width:0.1" />
    <path
       d="m 410.984,660.0533 c -2.10803,1.56404 -4.15594,3.73338 -4.52802,4.81114 -1.07655,2.63459 -2.05452,2.26912 -3.12026,-1.30917 -0.4929,-1.63617 -1.67766,-3.41841 -2.55585,-3.77726 -1.94273,-0.93048 -3.89086,1.24547 -2.6995,2.92792 1.0982,1.57606 2.49154,9.28506 2.7404,16.11646 0.26148,5.12851 0.59449,6.15277 2.19099,6.25856 1.59649,0.10579 2.26791,-0.95213 3.48992,-5.7819 2.57026,-10.05205 7.37718,-16.04735 12.46602,-15.71014 1.79606,0.11901 3.13289,-0.39372 3.60474,-1.46486 1.04349,-2.13568 -0.18093,-3.31923 -4.33207,-4.19562 -2.8606,-0.69065 -4.08442,-0.37086 -7.25637,2.12487 z"
       id="path770"
       inkscape:connector-curvature="0"
       style="fill:#000000;stroke:none;stroke-width:0.1" />
    <path
       d="m 243.25305,651.9454 c -1.88863,1.27793 -3.56387,3.87284 -4.89288,7.29245 -0.9966,2.94054 -2.25288,5.26256 -2.75179,5.2295 -1.5965,-0.10579 -2.21381,3.16054 -0.8295,4.956 0.92508,1.16371 1.25208,3.79108 0.97438,7.98189 -0.78681,11.87396 3.39198,15.35788 17.18763,14.36786 7.64949,-0.49531 10.03041,-1.64039 10.22876,-4.63382 0.11902,-1.79606 -0.26688,-2.02207 -3.10043,-1.60852 -1.82251,0.28011 -6.35233,0.58126 -10.06407,0.63597 -6.62523,0.1623 -6.81818,0.0493 -7.64408,-2.61113 -0.39973,-1.52978 -0.66722,-5.05518 -0.4887,-7.74927 0.28431,-4.29059 0.62333,-4.86944 2.31961,-4.75704 3.39256,0.2248 9.72385,-3.06378 11.20614,-5.7717 3.41659,-6.18764 0.66659,-13.08455 -5.85285,-14.51875 -2.66765,-0.57764 -4.1842,-0.37748 -6.29222,1.18656 z m 7.27922,5.09244 c 3.0812,3.41119 0.50192,7.54971 -5.38457,8.66294 -2.93993,0.50672 -2.93993,0.50672 -2.08999,-3.24529 0.8301,-3.45267 3.5891,-7.27862 5.28538,-7.16622 0.39913,0.0265 1.45044,0.79764 2.18918,1.74857 z"
       id="path772"
       inkscape:connector-curvature="0"
       style="fill:#000000;stroke:none;stroke-width:0.1" />
  </g>
  <path
     style="fill:#0000ff;stroke:none;stroke-width:0.1"
     inkscape:connector-curvature="0"
     id="path784"
     d="m 1139,586.95 c -5.5,5.6 -8,12.5 -11.1,30.8 -4.3,24.9 -4.3,67.6 0.1,86.4 3.4,14.8 10.9,23.6 20,23.6 6.9,0 18.5,-17.4 22.4,-33.6 4.7,-19.2 5,-34.2 1,-55.4 -2.8,-14.6 -10.1,-37.4 -14.4,-44.4 -1.9,-3.2 -3.5,-6.4 -3.5,-7.1 0,-2.2 -3.6,-4.5 -7,-4.5 -2.5,0 -4.2,1 -7.5,4.2 z m 19.9,28.8 c 1.9,6.3 4.6,17.3 6.2,24.5 4.5,21.5 3.5,45.5 -2.5,61.5 -2.8,7.4 -9.9,18.1 -13.3,20 -2.5,1.3 -3.1,1.3 -5.5,0 -4,-2.2 -8.9,-11 -10.2,-18.3 -3.4,-18.5 -3.7,-64.4 -0.6,-85.2 3,-19.8 5.3,-26.2 10.7,-29.5 l 3.2,-1.9 4.3,8.7 c 2.3,4.8 5.8,13.9 7.7,20.2 z" />
  <g
     id="g1005"
     transform="rotate(4.9788647,701.91467,793.5774)">
    <path
       d="m 1718.4,539.5 c -0.9,2.2 2.4,30.6 3.7,32.1 1.6,2 3.7,1.7 4.4,-0.6 0.5,-1.5 1.2,-1.8 3.3,-1.4 1.5,0.3 5.4,0.6 8.7,0.7 5.4,0.2 6,0 6,-1.8 0,-1.7 -1,-2.1 -7.7,-3 -4.2,-0.6 -8,-1.3 -8.4,-1.7 -1.4,-1.4 0.7,-5.7 5.3,-10.8 3.7,-4.1 4.3,-5.4 3.2,-6.1 -2.2,-1.4 -2.4,-1.2 -7.2,4.1 -2.5,2.7 -4.8,5 -5.1,5 -0.3,0 -0.6,-1 -0.6,-2.2 0,-5.2 -2.3,-14.7 -3.6,-15.2 -0.8,-0.3 -1.7,0.1 -2,0.9 z"
       id="path774"
       inkscape:connector-curvature="0"
       style="fill:#000000;stroke:none;stroke-width:0.1" />
    <path
       d="m 1796.3,544 c -7.1,1.4 -13,5.6 -16.1,11.5 -1,1.9 -1.2,1.8 -2.5,-1.5 -0.8,-1.9 -1.7,-4.3 -2,-5.3 -0.8,-2.3 -2.4,-2.2 -3.2,0.3 -0.7,2.2 2.7,13.5 4.9,16.5 1.8,2.5 4.3,1.3 5.1,-2.5 0.8,-3.8 5.6,-9.5 9.8,-11.6 1.6,-0.9 6.3,-1.8 10.4,-2.1 8,-0.6 10.3,-2.3 6.8,-4.9 -2.1,-1.5 -6.7,-1.6 -13.2,-0.4 z"
       id="path776"
       inkscape:connector-curvature="0"
       style="fill:#000000;stroke:none;stroke-width:0.1" />
    <path
       d="m 1407.9,546.3 c -8.2,5.5 -8.9,14.2 -1.8,23.3 7.1,9 8.7,11.6 10.4,16.8 3,9.8 1.1,19.9 -4,21.2 -4,1 -13,-0.1 -15.8,-1.9 -2.3,-1.5 -2.4,-1.9 -1.4,-4.7 1,-2.5 0.9,-3.3 -0.3,-4 -2.3,-1.5 -2.8,-1.2 -4.5,2 -2.2,4.2 -1.9,6.8 1.3,10 3.3,3.3 8.7,5 15.7,5 7,0 11.5,-2.5 14.3,-8 2,-3.9 2.3,-5.6 2,-12.5 -0.5,-10 -2.6,-14.7 -11.4,-25.2 -4.3,-5.2 -6.4,-8.6 -6.4,-10.4 0,-5.6 8.2,-11.6 11.5,-8.3 1.8,1.9 1.9,2.8 0.3,5.4 -1.1,1.7 -1,2.2 0.2,3 2.1,1.3 5,-2.3 5,-6.2 0,-6.9 -8.4,-10 -15.1,-5.5 z"
       id="path778"
       inkscape:connector-curvature="0"
       style="fill:#000000;stroke:none;stroke-width:0.1" />
    <path
       d="m 1753,547.7 c -5.9,6.6 -6.8,8.6 -6,13.7 0.9,6.3 2.9,8.1 8.8,8.1 5.4,0 11.2,-3.4 11.2,-6.6 0,-2.5 -3,-2.5 -7.2,0.1 -4.2,2.5 -6.5,2.5 -7.3,0 -0.7,-2.3 0.1,-4 1.9,-4 0.7,0 2.7,-1.4 4.5,-3.2 2.6,-2.6 3.1,-3.8 2.9,-6.7 -0.3,-3.2 -0.6,-3.6 -3.3,-3.9 -2.3,-0.2 -3.7,0.4 -5.5,2.5 z m 4,3.7 c 0,0.2 -0.8,1 -1.7,1.7 -1.6,1.3 -1.7,1.2 -0.4,-0.4 1.3,-1.6 2.1,-2.1 2.1,-1.3 z"
       id="path780"
       inkscape:connector-curvature="0"
       style="fill:#000000;stroke:none;stroke-width:0.1" />
    <path
       d="m 1645.6,551.9 c -0.3,0.5 -0.5,4.3 -0.5,8.4 0,4.2 -0.2,8.1 -0.6,8.6 -1.2,2.1 -3.3,1.1 -5.9,-2.9 -4.6,-7 -8.2,-4.5 -10.1,6.8 -0.4,2.3 -1,4 -1.5,3.7 -0.4,-0.3 -2,-4.5 -3.6,-9.5 -2.9,-9.5 -4.6,-12.2 -6.6,-10.2 -0.8,0.8 -0.3,4.1 2.1,12.4 3.6,12.5 5.2,15.8 8.1,15.8 2.6,0 4.7,-3.3 6.1,-9.6 l 1.2,-5.3 3,2.5 c 4.3,3.6 8.5,3 11.1,-1.6 2.6,-4.4 3,-17.5 0.6,-19 -1.9,-1.2 -2.7,-1.2 -3.4,-0.1 z"
       id="path782"
       inkscape:connector-curvature="0"
       style="fill:#000000;stroke:none;stroke-width:0.1" />
    <path
       d="m 1697.5,554.2 c -1.5,1.1 -4,3.9 -5.6,6 l -2.8,4 -1.5,-3.5 c -1.2,-3 -4.1,-5.7 -6,-5.7 -0.9,0 -0.7,3.5 0.3,4.5 0.4,0.6 1.7,3.2 2.7,6 2.9,8 4.4,8 9.3,0.5 3.9,-6 8.5,-9 13.9,-9 2.7,0 4.2,-0.5 4.6,-1.6 1,-2.7 -0.3,-3.4 -6.3,-3.4 -4.5,0 -6.5,0.5 -8.6,2.2 z"
       id="path786"
       inkscape:connector-curvature="0"
       style="fill:#000000;stroke:none;stroke-width:0.1" />
    <path
       d="m 1662.3,556.7 c -1.3,5.2 -0.8,12.1 1.1,14.2 4.2,4.6 11.3,3.3 14.2,-2.7 1.5,-3.1 1.5,-3.9 0.3,-6.1 -1.5,-2.6 -1.9,-2.8 -9,-6 -5.7,-2.6 -5.7,-2.6 -6.6,0.6 z m 10.5,6.8 c 1.7,1.5 0.6,4.3 -2.1,5.1 -2.5,0.8 -4.7,-1.8 -4.7,-5.8 0,-2.6 0.1,-2.7 2.8,-1.6 1.5,0.6 3.3,1.7 4,2.3 z"
       id="path788"
       inkscape:connector-curvature="0"
       style="fill:#000000;stroke:none;stroke-width:0.1" />
    <path
       d="m 1500,556.5 c -1.9,2.3 -0.8,5 2.2,5.3 3.4,0.4 5,-3.4 2.2,-5.5 -2.3,-1.7 -2.9,-1.6 -4.4,0.2 z"
       id="path790"
       inkscape:connector-curvature="0"
       style="fill:#000000;stroke:none;stroke-width:0.1" />
    <path
       d="m 1550.2,563.2 c -3.4,3.7 -5.2,8 -5.2,12.6 0,3.6 0.4,4.4 2.5,5.4 1.9,0.9 3.1,0.8 5.3,-0.3 1.5,-0.7 3,-1.5 3.5,-1.7 0.4,-0.2 0.7,0.7 0.8,2 0,1.2 0.6,3.9 1.3,5.8 1.2,3.3 1.1,3.7 -1.9,7.5 -4.4,5.4 -6.5,9.8 -6.5,13.5 0,2.6 0.6,3.3 3.7,4.6 6.9,2.9 14.7,-0.6 15.9,-7.3 0.4,-2.3 0.1,-5.4 -0.8,-8.4 -1.5,-4.5 -1.5,-4.9 0.3,-6.5 1,-0.9 1.9,-2.5 1.9,-3.4 0,-2.2 -2.8,-3.4 -4.5,-2 -0.8,0.7 -1.6,0.7 -1.9,0.2 -1.1,-1.9 -3.6,-12.7 -3.6,-15.9 0,-4.9 -3.2,-4.5 -5.5,0.7 -2.1,4.7 -5,7.6 -6,6.1 -1.1,-1.9 3.2,-10.1 5.3,-10.1 2,0 3.6,-2.5 2.6,-4.1 -1,-1.7 -5,-0.9 -7.2,1.3 z m 13.3,39 c 0.9,3.7 -1.2,5.8 -5.7,5.8 -3.7,0 -3.6,-2 0.3,-6.5 3.5,-4 4.4,-3.8 5.4,0.7 z"
       id="path792"
       inkscape:connector-curvature="0"
       style="fill:#000000;stroke:none;stroke-width:0.1" />
    <path
       d="m 1513.6,569.7 c -0.4,0.9 -0.2,1.9 0.4,2.3 0.5,0.3 1.4,3.4 1.8,6.9 0.8,5.6 2.1,8 4.5,8.1 1.1,0 3.7,-3 6.2,-7.5 1.7,-2.8 2.5,-3.5 2.9,-2.5 2.4,6.7 2.6,7 5,7 2.6,0 5.1,-2.4 4.1,-4 -0.3,-0.5 -1.2,-1 -1.9,-1 -0.7,0 -1.8,-1.8 -2.5,-4 -1.2,-4 -3.9,-6.4 -6.3,-5.5 -0.7,0.3 -2.7,2.7 -4.3,5.3 l -3,4.7 -0.3,-4.5 c -0.2,-2.4 -0.8,-5 -1.4,-5.7 -1.5,-1.8 -4.5,-1.6 -5.2,0.4 z"
       id="path794"
       inkscape:connector-curvature="0"
       style="fill:#000000;stroke:none;stroke-width:0.1" />
    <path
       d="m 1481.9,570.3 c -5.1,1.5 -10.4,4.9 -12,7.8 -1.2,2.3 -2.9,1.6 -2.9,-1.2 0,-2.6 -2.6,-2.4 -3.3,0.3 -0.9,3.2 2.2,15.8 4,16.5 2,0.8 3.3,-1.4 3.3,-5.6 0,-5 5.9,-10.4 13.5,-12.6 3.3,-0.9 6.6,-1.8 7.3,-2.1 0.8,-0.2 1.2,-1.2 1,-2.1 -0.4,-2.3 -4.7,-2.6 -10.9,-1 z"
       id="path796"
       inkscape:connector-curvature="0"
       style="fill:#000000;stroke:none;stroke-width:0.1" />
    <path
       d="m 1500.6,569.9 c -0.4,0.5 -0.2,2.1 0.4,3.6 0.5,1.4 1,4.4 1,6.6 0,4.2 2.4,6.4 4.1,3.8 0.9,-1.5 0.2,-8.8 -1.2,-12.7 -0.9,-2.2 -3.3,-3 -4.3,-1.3 z"
       id="path798"
       inkscape:connector-curvature="0"
       style="fill:#000000;stroke:none;stroke-width:0.1" />
    <path
       d="m 1441.8,573.7 c -5.4,3.4 -6.8,9.1 -4.9,20.3 0.5,3 1.7,11 2.7,17.7 1.9,12.7 3.4,15.4 6.2,11.6 1.4,-1.9 1,-6.2 -1.4,-17.2 -1.4,-6 -1.3,-6.6 0.3,-7.5 8,-4.4 13.3,-19.6 8.4,-24 -2.8,-2.5 -8.1,-3 -11.3,-0.9 z m 8,5 c 0.6,0.9 0.6,2.9 0.2,4.4 -1.1,3.7 -6,10.1 -7.4,9.6 -0.6,-0.2 -1.2,-3 -1.2,-6.6 -0.1,-5.2 0.2,-6.4 1.9,-7.6 2.8,-2 5.4,-1.9 6.5,0.2 z"
       id="path800"
       inkscape:connector-curvature="0"
       style="fill:#000000;stroke:none;stroke-width:0.1" />
  </g>
  <path
     style="fill:#0000ff;stroke:none;stroke-width:0.1"
     inkscape:connector-curvature="0"
     id="path802"
     d="m 931,584.1 c -3.5,1.4 -6.6,4.5 -8.1,8.1 -1,2.5 -1,3.1 0.2,3.9 2,1.3 2.2,1.2 4.1,-2.1 0.9,-1.6 3.3,-3.7 5.2,-4.7 4.9,-2.3 7.7,-0.6 11.3,6.6 2.8,5.5 2.8,5.8 2.7,23.1 -0.1,10.4 -0.8,22.1 -1.8,29 -1,6.3 -2.4,16.4 -3.2,22.5 -2,14.3 -8,44.9 -9.4,47.5 -1.7,3.2 -4.7,4.2 -10.2,3.5 l -5,-0.7 -2.9,-6.4 c -4.4,-9.7 -7.8,-8.3 -4.3,1.8 2,6.2 4.9,8.6 11.8,10 5.2,1 6.2,0.9 9.3,-0.7 3.5,-1.9 5.8,-5.3 7.5,-10.9 1.3,-4.6 7.5,-36.3 8.3,-42.6 0.3,-3 1.3,-9.2 2.1,-13.6 2.7,-14.7 4.2,-37.1 3.4,-48.6 -0.7,-9.2 -1.3,-11.5 -4,-16.6 -4.5,-8.4 -10.5,-11.7 -17,-9.1 z" />
  <path
     style="fill:#0000ff;stroke:none;stroke-width:0.0979882"
     inkscape:connector-curvature="0"
     id="path804"
     d="m 886.2,587.68847 c -3.5,3.16856 -7.6,10.36982 -6.8,12.29016 1.1,2.59245 3.7,1.34424 5.5,-2.78449 3.6,-7.87338 8.1,-9.50567 15.6,-5.66499 7.7,3.93669 8,5.47296 7.9,34.7581 0,21.12371 -0.4,27.07675 -2.7,43.20758 -3,20.83566 -4.1,25.44447 -8.7,37.83064 -3.8,10.08177 -8.5,17.85914 -10.9,17.85914 -3,0 -5.6,-2.59246 -8,-7.87338 -3.8,-8.35347 -4.6,-9.6977 -5.6,-9.50567 -1.8,0.38407 -0.6,8.73753 2.1,13.63439 2,3.93669 3.4,5.28093 7,6.8172 6,2.49644 8.7,1.7283 12.1,-3.36059 4.6,-6.8172 12.1,-26.2126 14.2,-36.58242 5.3,-25.6365 6.5,-36.96649 6.6,-58.18622 0,-20.93167 -1.1,-31.10946 -4.1,-36.67844 C 908.5,589.89686 898.5,585 893.1,585 c -2.9,0 -4.7,0.67212 -6.9,2.68847 z" />
  <path
     style="fill:#0000ff;stroke:none;stroke-width:0.1"
     inkscape:connector-curvature="0"
     id="path806"
     d="m 813.6,590.7 c -4.8,7.4 -9.2,24 -12.1,45.6 -1.7,13.6 -2,46.1 -0.5,57 3.8,26 3.9,26.5 9.9,32.8 5.8,6.2 11.4,8 13.5,4.6 2,-3.1 7.3,-19.9 9.1,-28.7 5.8,-27.8 8.5,-77.5 4.9,-91.9 -0.9,-3.6 -2.7,-8.6 -3.9,-11.1 -2.9,-5.7 -11,-12 -15.3,-12 -2.6,0 -3.7,0.7 -5.6,3.7 z m 7.9,3.6 c 0.8,1.3 1.4,3.4 1.3,4.7 -0.4,3.3 1.8,3.6 3.4,0.5 l 1.4,-2.6 2.1,3.8 c 4.6,8.4 5.6,16.1 4.9,38.8 -0.8,30.1 -3.6,52.3 -9.3,75.3 -3.1,12.3 -4.8,14 -9.5,9.5 -7.4,-7 -9.4,-18.2 -9.2,-53.3 0.2,-33.2 3.9,-62.2 9.4,-74.7 2.1,-4.9 3.3,-5.3 5.5,-2 z" />
  <path
     style="fill:#0000ff;stroke:none;stroke-width:0.1"
     inkscape:connector-curvature="0"
     id="path808"
     d="m 847.7,590.5 c -3.9,3.8 -5.8,9.2 -3.6,10.6 1.5,0.9 2.2,0.2 5.1,-4.9 0.9,-1.7 2.6,-3.5 3.8,-4.2 1.8,-1 2.5,-0.7 5.4,2.4 3,3.3 6.5,11.2 8.6,19.6 1.5,5.6 1.1,44.5 -0.6,62.7 -1.7,18.6 -6.3,40.8 -9.5,46 -1.1,1.8 -3,3.8 -4.2,4.4 -3.2,1.8 -7,-3.2 -9.3,-12 -1.5,-5.7 -2.2,-7.1 -3.8,-7.1 -1.7,0 -1.8,0.5 -1.2,5.6 2.3,19.5 15.6,25 23.5,9.6 2.7,-5.2 7.8,-26.3 9.1,-37.7 1.7,-14.4 2.9,-54.6 1.9,-65.1 -0.5,-5.2 -1.7,-11.3 -2.8,-13.6 -1,-2.4 -2.2,-5.4 -2.6,-6.8 -1.1,-4 -5.6,-10 -8.6,-11.6 -4.4,-2.2 -7.3,-1.7 -11.2,2.1 z" />
  <path
     style="fill:#0000ff;stroke:none;stroke-width:0.1"
     inkscape:connector-curvature="0"
     id="path810"
     d="m 1300.8,636.6 c -0.9,2.5 2.9,5.5 15.7,12.4 6.6,3.6 12,6.8 12,7.2 0,1.5 -4.6,1.8 -9.5,0.7 -3.3,-0.7 -25.9,-1.3 -65.1,-1.6 -66,-0.6 -62.5,-0.8 -64,5.3 -0.8,3 -0.5,3.3 2.7,3.6 1.9,0.2 2.4,-0.2 2.4,-1.9 0,-1.1 0.3,-2.4 0.6,-2.7 0.3,-0.4 11.1,-0.2 24,0.4 12.9,0.6 41,1.4 62.4,1.9 21.5,0.5 39.8,1.2 40.7,1.6 1.5,0.6 -0.8,3.4 -11.6,14.7 -18.1,18.8 -21.4,23.8 -15.6,23.8 1.5,0 29.3,-29.8 34.1,-36.7 1,-1.4 3,-2.3 6.2,-2.8 3.1,-0.5 5.1,-1.4 5.7,-2.6 1.2,-2.2 0.9,-2.4 -20.1,-14.2 -7.5,-4.2 -13.9,-8.4 -14.3,-9.2 -0.7,-2 -5.5,-1.9 -6.3,0.1 z" />
  <path
     style="fill:#0000ff;stroke:none;stroke-width:0.1"
     inkscape:connector-curvature="0"
     id="path812"
     d="m 1041.4592,646.14537 c -4.4283,-5.8e-4 -16.0242,0.18983 -25.7209,0.49565 -9.6854,0.20647 -21.69,0.45102 -26.72578,0.48197 -11.48519,0.10235 -12.61205,0.27609 -12.87204,2.56134 -0.22609,1.98718 3.44544,4.21651 4.60859,2.83916 0.3659,-0.56224 5.41298,-0.69254 11.22102,-0.43434 5.80804,0.25821 21.54311,0.84065 35.08091,1.27376 18.5623,0.50152 30.5306,1.46058 48.8781,3.84993 l 24.309,3.06759 0.2826,-2.48397 c 0.26,-2.28526 -0.3135,-2.55181 -8.9643,-5.24698 -10.2179,-3.07475 -35.7193,-6.278 -50.0972,-6.40411 z" />
  <path
     style="fill:#0000ff;stroke:none;stroke-width:0.1"
     inkscape:connector-curvature="0"
     id="path814"
     d="m 730.4,640.4 c -0.3,0.9 -0.1,2.2 0.4,2.9 0.6,0.6 8.3,5 17.1,9.7 8.8,4.6 15.8,8.6 15.6,8.8 -0.2,0.2 -2.6,-0.1 -5.4,-0.7 -2.8,-0.6 -10.8,-1.3 -17.8,-1.7 -7,-0.3 -18.4,-1.6 -25.3,-3 -14.8,-2.8 -31.3,-4.9 -50.5,-6.4 -14.5,-1.2 -72.9,-2.1 -75.2,-1.3 -0.7,0.3 -1.3,1.3 -1.3,2.3 0,2.5 3.7,3 20.4,3 17.5,0 48.7,2.9 84.6,7.8 24,3.2 29.5,3.7 43.1,3.4 8.7,-0.2 18.4,0.2 21.8,0.8 5.1,0.9 6.7,0.8 9.2,-0.4 2.8,-1.4 3,-1.4 3.8,0.6 0.7,1.9 -0.3,3 -6.6,8 -12.1,9.6 -19.7,21.8 -16,25.5 1.8,1.8 3.7,0.9 3.7,-1.7 0,-5 21.7,-26.9 26,-26.2 1.1,0.2 2.5,-1 3.9,-3.3 3.4,-5.8 2.6,-7.9 -2,-5.4 -2.2,1.1 -0.4,2.1 -27,-13.4 -18,-10.4 -21.5,-11.9 -22.5,-9.3 z" />
  <path
     style="fill:#000000;stroke:none;stroke-width:0.1"
     inkscape:connector-curvature="0"
     id="path816"
     d="m 1852.05,743.25 c -0.5,1.9 -1.4,2 -14.4,2 -14.5,0 -25.4,1 -94.4,8.5 -22.5,2.5 -70.9,7 -107.5,10 -36.6,3.1 -86.5,7.6 -111,10.1 -40.9,4.2 -47.9,4.6 -86.5,5.5 -47.7,1.1 -61.9,1.9 -63.6,3.6 -1.7,1.7 -0.3,4.7 1.9,3.7 0.9,-0.4 27.1,-0.8 58.2,-0.9 55.9,-0.2 56.9,-0.2 98.5,-3.8 23.1,-2 68.1,-5.2 100,-7.2 93.3,-5.8 141.5,-10.4 177.5,-17.1 10.2,-1.9 23.9,-4.2 30.4,-5 6.6,-0.8 12.6,-2 13.4,-2.7 2.1,-1.7 3.1,-5 2,-7 -1.2,-2.3 -3.9,-2.2 -4.5,0.3 z" />
  <path
     style="fill:#0000ff;stroke:none;stroke-width:0.1"
     inkscape:connector-curvature="0"
     id="path818"
     d="m 960.7,700.4 c -0.3,0.7 0.8,2.7 2.5,4.2 1.7,1.6 8.7,9.6 15.6,17.9 21.6,25.7 34,39.5 50.2,55.5 13.3,13.2 16.3,16.7 20.1,23.8 8.6,16.1 15.6,23.9 17.9,20.2 1.4,-2.2 1.2,-5 -0.3,-5 -2.4,0 -4.7,-3.5 -8.8,-13 -5.7,-13.2 -10.7,-20 -23.7,-32.5 -6.3,-6.1 -23.5,-23.9 -38.3,-39.7 -31.7,-33.8 -33.6,-35.5 -35.2,-31.4 z" />
  <path
     style="fill:#000000;stroke:none;stroke-width:0.1"
     inkscape:connector-curvature="0"
     id="path820"
     d="m 1840.75,859.35 c -1.4,0.2 -5.6,0.9 -9.3,1.5 -5.1,0.8 -11.3,0.8 -24,-0.1 -22.7,-1.6 -98.3,0.8 -157.2,5 -23.1,1.6 -56.2,3.6 -73.5,4.5 -17.3,0.8 -43.9,2.6 -59,4 -16.4,1.5 -44.2,3.1 -69,4 -48.1,1.7 -71.7,4 -72.7,7.2 -0.7,1.9 3.1,2.4 10.3,1.2 3.9,-0.6 33,-1.4 67.9,-2 33.6,-0.4 66.9,-1.3 74,-1.8 7.2,-0.6 24.5,-1.3 38.5,-1.6 14,-0.4 50.3,-2.2 80.5,-4.1 30.3,-1.9 65.6,-3.8 78.5,-4.4 28.7,-1.2 36.6,-1.7 54.5,-3.7 7.7,-0.8 22.8,-1.9 33.5,-2.3 20.6,-0.9 33.6,-2.7 35,-5 1.7,-2.8 -0.5,-3.4 -8,-2.4 z" />
  <path
     style="fill:#000000;stroke:none;stroke-width:0.1"
     inkscape:connector-curvature="0"
     id="path822"
     d="m 1853.85,862.75 c -2,3.6 -2.1,4.1 -0.6,4.6 1.1,0.4 2.2,-0.2 3.3,-1.7 l 1.6,-2.3 0.9,3.4 c 0.4,1.9 1.3,22.1 1.9,44.8 1,36.6 1,44.4 -0.6,68.5 -0.9,15 -2.2,31.5 -2.7,36.7 -0.5,5.2 -1.6,21.9 -2.4,37 -1,18.6 -2,29.3 -3.1,33.1 l -1.6,5.6 -8.9,1.3 c -6.4,0.9 -12,1 -19.7,0.4 -21.6,-1.8 -50.9,-0.6 -88.2,3.7 -25.6,2.9 -41.9,4.2 -63,5 -15.7,0.5 -49.1,2.1 -74.3,3.5 -25.1,1.4 -59.6,2.9 -76.5,3.4 -16.9,0.5 -40.1,1.9 -51.7,2.9 -11.5,1.1 -33.8,2.3 -49.5,2.6 -15.7,0.3 -30.4,0.8 -32.7,1.1 -4.7,0.6 -6.9,3 -5.8,6.4 0.9,2.7 4.5,2.6 4.5,0 0,-2 0.6,-2 42,-2 23.2,0.1 42.5,-0.2 43,-0.5 0.5,-0.3 24.2,-1.2 52.7,-2 28.5,-0.8 63.7,-2.2 78.3,-3 14.6,-0.8 40.8,-2 58.3,-2.5 33.3,-1 56.9,-3.1 92.7,-8 26.8,-3.6 50.6,-6.4 54.5,-6.3 1.7,0.1 9.8,0.4 18,0.8 12.4,0.5 16,0.4 20.5,-1 3,-0.9 6.3,-1.7 7.4,-1.9 2.2,-0.3 6.2,-10 7.7,-18.6 1.9,-11 6.9,-69.2 8.4,-96.8 1.2,-22.2 1.3,-33.1 0.5,-50.5 -2,-45.5 -4.2,-66.6 -7.3,-70.5 -2,-2.5 -5.3,-1.3 -7.6,2.8 z" />
  <path
     style="fill:#0000ff;stroke:none;stroke-width:0.1"
     inkscape:connector-curvature="0"
     id="path824"
     d="m 1109.3931,798.78357 c -0.3227,0.93052 2.2389,3.92521 6.8118,8.15471 10.6504,9.63634 12.2646,12.10905 14.2192,20.97582 2.2297,9.74671 4.2617,33.7609 4.1382,47.72101 -0.1893,14.36712 -4.021,37.87389 -7.6549,47.11318 -1.6725,3.95509 -4.448,9.10745 -6.2722,11.26896 -5.9948,7.4319 -9.7759,5.44361 -14.6094,-7.796 -5.7333,-15.57205 -7.2793,-23.16875 -9.0078,-43.59576 -1.5682,-18.53377 -1.4026,-45.04212 0.345,-55.22572 0.338,-1.9354 0.9397,-5.49881 1.3352,-7.94086 0.8079,-4.68479 5.3333,-11.69129 7.7247,-11.89364 0.7972,-0.0675 2.2512,0.51201 3.2239,1.33293 1.5215,1.37662 1.8204,1.35132 2.7816,-0.33572 2.5609,-4.13063 -3.4224,-7.23722 -8.7257,-4.68098 -3.6685,1.71541 -5.866,4.20957 -7.6872,8.7794 -8.5686,20.89685 -6.2431,86.33379 3.9037,111.36741 1.1244,2.61451 2.5746,6.70681 3.358,8.84838 1.8756,5.56167 5.16,8.79627 9.8448,9.60415 4.9922,0.88224 7.5982,-0.34185 11.6691,-5.60381 7.3951,-9.85861 14.2774,-37.6378 14.8631,-60.36811 0.6975,-26.15193 -3.0024,-55.645 -7.4856,-61.18674 -4.0087,-4.67867 -19.6137,-18.3115 -20.9091,-18.20189 -0.7971,0.0675 -1.6349,0.84084 -1.8664,1.66328 z" />
  <path
     style="fill:#000000;stroke:none;stroke-width:0.1"
     inkscape:connector-curvature="0"
     id="path826"
     d="m 1374.15,892.25 c -0.4,0.8 -0.3,2.5 0.1,3.8 1.5,4.4 1.4,141.7 0,165.7 -0.8,12.4 -1.5,33.7 -1.7,47.5 -0.3,24.9 -0.3,25 1.8,25.3 2.8,0.4 2.9,-0.2 5.4,-32.3 1.1,-14.3 2.6,-30.1 3.3,-35 1.7,-12.6 1.4,-63 -0.6,-114.9 -1.8,-44.9 -2.8,-55.5 -5.3,-59.3 -1.7,-2.7 -2.3,-2.8 -3,-0.8 z" />
  <path
     style="fill:#0000ff;stroke:none;stroke-width:0.10961614"
     inkscape:connector-curvature="0"
     id="path852"
     d="m 1161,891.21609 c 0,2.54391 15.1005,13.05136 50.5159,34.9511 26.8332,16.59071 57.2514,36.72078 68.8755,45.56916 4.5627,3.42874 15.9695,13.93619 25.3122,23.22699 9.4514,9.29076 18.2509,17.25436 19.5546,17.80736 1.5209,0.553 -7.2787,0.8848 -21.9446,0.7742 -16.73,-0.1106 -25.3122,0.3319 -27.2677,1.2167 -2.9332,1.3272 -2.9332,1.3272 -1.7382,-1.9909 1.0864,-2.6545 0.9778,-3.5393 -0.3259,-4.3136 -0.8691,-0.553 -1.9554,-0.6636 -2.39,-0.4424 -1.3036,0.8848 -5.2145,8.959 -5.2145,10.9499 0,3.0969 4.6713,3.8711 12.0586,1.8803 5.3232,-1.3273 12.4932,-1.7697 29.7664,-1.8803 12.6018,0 23.4654,-0.4424 24.2259,-0.9955 0.7604,-0.4424 1.195,-1.5484 0.8691,-2.4333 -0.3259,-0.7742 -0.1087,-1.7697 0.4345,-2.1015 0.6518,-0.4424 1.0864,-0.2212 1.0864,0.4425 0,1.659 3.3677,4.6454 4.4541,3.9817 1.3036,-0.8848 1.3036,-5.309 0,-6.6363 -0.5432,-0.6636 -5.7578,-12.05588 -11.5155,-25.43905 -5.7577,-13.38318 -11.4068,-26.21333 -12.6018,-28.53603 -1.0864,-2.3227 -2.0641,-4.97721 -2.0641,-5.86205 0,-2.3227 -5.8664,-1.65907 -6.3009,0.66363 -0.1086,0.99544 4.5627,12.38773 10.4291,25.43909 5.975,13.05136 10.5377,24.22241 10.2118,24.77551 -0.3259,0.553 -2.7159,-1.6591 -5.4318,-4.97726 -8.6909,-10.61805 -27.7023,-29.08905 -36.6105,-35.50412 -14.0141,-10.06503 -46.7136,-29.86328 -72.5691,-43.91009 -31.6131,-17.14373 -43.3459,-24.11183 -45.1927,-26.76634 -1.9554,-2.87573 -6.6268,-2.87573 -6.6268,0.1106 z" />
  <g
     id="g976"
     transform="rotate(5.5728237,606.954,1212.1037)">
    <path
       d="m 1719.4,868.7 c 0.4,6.5 1.3,12.9 1.9,14.3 1.4,2.9 5.7,4.1 5.7,1.6 0,-2.1 0.7,-2 6.4,1 4.3,2.3 5,2.4 6.3,1.1 0.9,-0.8 1.3,-1.9 1,-2.4 -0.6,-1 -6,-3.8 -10,-5.3 l -2.9,-1 4.6,-5.1 c 2.5,-2.8 4.6,-5.5 4.6,-5.9 0,-2.5 -2.6,-1.7 -6.6,2 -4.8,4.4 -6.4,4.5 -6.4,0.1 0,-1.6 -0.3,-4.9 -0.6,-7.5 -0.6,-3.7 -1.1,-4.6 -2.7,-4.6 -1.9,0 -1.9,0.4 -1.3,11.7 z"
       id="path828"
       inkscape:connector-curvature="0"
       style="fill:#000000;stroke:none;stroke-width:0.1" />
    <path
       d="m 1795.4,862.4 c -7,1.4 -14.3,5.4 -17.2,9.3 l -2.1,2.8 -1.2,-4.7 c -1.4,-4.9 -3.5,-6.9 -4.6,-4.2 -0.3,0.9 0.2,5 1.1,9.1 1.9,7.8 4.1,10.3 6,6.7 0.6,-1 3.1,-4 5.7,-6.5 4.4,-4.4 7.1,-5.6 16.7,-7.4 4.3,-0.9 6.7,-3.2 5.1,-5.1 -1.3,-1.6 -1.4,-1.6 -9.5,0 z"
       id="path830"
       inkscape:connector-curvature="0"
       style="fill:#000000;stroke:none;stroke-width:0.1" />
    <path
       d="m 1706,867.1 c -2,1.1 -4.6,3.6 -5.9,5.5 l -2.4,3.5 -2.4,-2.3 c -2,-1.8 -2.6,-2 -3.3,-0.9 -0.5,0.9 -0.3,2.2 0.5,3.5 0.7,1.2 1.7,3.8 2,5.8 0.7,3.9 2.7,5.5 4.3,3.5 0.6,-0.7 1.7,-3 2.6,-5.2 2.1,-5 4.2,-7.2 8.9,-9.6 2.4,-1.3 3.7,-2.6 3.7,-3.9 0,-2.6 -3.4,-2.6 -8,0.1 z"
       id="path832"
       inkscape:connector-curvature="0"
       style="fill:#000000;stroke:none;stroke-width:0.1" />
    <path
       d="m 1749.7,867.9 c -5.5,6.5 -5.9,14.3 -0.9,16.2 5.3,2.1 15.2,-1.9 15.2,-6.1 0,-2.9 -2.5,-3.1 -6.1,-0.4 -3.5,2.6 -6.9,2.8 -7.7,0.6 -0.2,-0.6 0.3,-1.2 1.1,-1.2 2.5,0 6.8,-6 6.5,-8.9 -0.5,-4 -4.8,-4.1 -8.1,-0.2 z"
       id="path834"
       inkscape:connector-curvature="0"
       style="fill:#000000;stroke:none;stroke-width:0.1" />
    <path
       d="m 1440.2,866.9 c -1.7,1 -3.1,15.6 -3.2,31.6 v 11.9 l -4.7,-4.5 c -2.7,-2.5 -9.3,-8.4 -14.8,-13.1 -5.5,-4.7 -12.2,-10.8 -15,-13.7 -4.8,-5 -7.9,-6.3 -8.8,-3.9 -0.5,1.7 0.2,47.3 0.9,51.5 0.5,3.5 2.7,4.4 3.8,1.7 0.3,-0.9 0.6,-8 0.6,-15.8 0,-7.9 0.3,-17.1 0.6,-20.5 l 0.7,-6.2 5.6,5.3 c 3.1,3 9.8,9.1 14.9,13.7 5.2,4.5 10.7,9.8 12.4,11.7 3.9,4.4 6.6,6 8.1,4.5 0.5,-0.5 1.6,-11 2.3,-23.3 0.8,-12.3 1.8,-23.4 2.4,-24.7 1,-2.3 0.2,-4.3 -2.5,-6.3 -1.3,-1 -1.7,-1 -3.3,0.1 z"
       id="path836"
       inkscape:connector-curvature="0"
       style="fill:#000000;stroke:none;stroke-width:0.1" />
    <path
       d="m 1547.7,869.6 c -1.4,1.4 -0.7,4.3 1.2,5.4 2.3,1.2 5.4,-1.2 4.9,-3.9 -0.3,-1.6 -4.8,-2.8 -6.1,-1.5 z"
       id="path838"
       inkscape:connector-curvature="0"
       style="fill:#000000;stroke:none;stroke-width:0.1" />
    <path
       d="m 1673,871.1 c -2.1,1.8 -2.4,2.8 -2.2,7.2 0.3,6.2 2.3,9.7 5.8,9.7 3.9,0 6,-1.6 7.8,-6 2.1,-5.3 2,-7.2 -0.5,-10.4 -2.5,-3.2 -7.3,-3.4 -10.9,-0.5 z m 7.8,5.7 c 0.4,2.4 -2.2,7.2 -3.8,7.2 -1.6,0 -2.2,-4.1 -1,-7.1 1.5,-3.5 4.3,-3.5 4.8,-0.1 z"
       id="path840"
       inkscape:connector-curvature="0"
       style="fill:#000000;stroke:none;stroke-width:0.1" />
    <path
       d="m 1657.9,873.2 c -0.1,0.7 -0.1,3.4 0.1,6 0.2,4.9 -2.5,11.1 -4.5,10.5 -0.5,-0.2 -1.7,-2.1 -2.5,-4.3 -2.1,-5.6 -2.8,-6.4 -5.4,-6.4 -2,0 -2.9,1.2 -5.2,6.6 -2.7,6.4 -2.8,6.6 -3.6,3.8 -0.9,-3.4 -1.2,-8.3 -0.7,-10.2 0.2,-0.8 -0.4,-1.9 -1.4,-2.5 -3.6,-2.4 -4.8,4.2 -2.6,14.3 0.8,3.8 1.7,5.4 3.5,6.2 3,1.4 5.3,-0.5 7.9,-6.3 l 1.9,-4.1 1.8,3.6 c 3.1,6 9.1,6.1 12.7,0.3 4,-6.5 4,-18.7 0.1,-18.7 -1.1,0 -2.1,0.6 -2.1,1.2 z"
       id="path842"
       inkscape:connector-curvature="0"
       style="fill:#000000;stroke:none;stroke-width:0.1" />
    <path
       d="m 1565.5,876.4 c -2.5,3.8 -1.6,7.7 2.5,10.3 1.9,1.2 4.4,2.9 5.5,3.7 2,1.6 2,1.6 0.1,3.1 -2.6,2 -3.7,1.9 -4.3,-0.4 -0.7,-2.6 -2.9,-3.3 -4.3,-1.6 -2.9,3.5 2.7,9.2 7.9,8 3.6,-0.8 7.1,-4.8 7.1,-8.1 0,-2.3 -3.6,-5.8 -7.1,-6.9 -1.5,-0.5 -1.7,-1 -0.9,-2.5 1.5,-2.8 1.2,-6.7 -0.6,-7.4 -2.8,-1.1 -4.3,-0.6 -5.9,1.8 z"
       id="path844"
       inkscape:connector-curvature="0"
       style="fill:#000000;stroke:none;stroke-width:0.1" />
    <path
       d="m 1489.6,879.2 c -0.9,1.2 -1.6,3.7 -1.6,5.5 0,2.1 -0.6,3.6 -1.9,4.2 -4.7,2.6 -7,16.1 -3.3,19.4 2.5,2.3 5.9,2.1 7.4,-0.2 1.1,-1.9 1.3,-1.8 3.5,1.5 2.4,3.5 5.9,4.5 6.9,2.1 0.3,-0.8 -0.9,-3.9 -2.6,-7.1 -2.8,-5.3 -3,-6.6 -3,-15.7 0,-8.7 -0.2,-9.9 -1.9,-10.9 -1.6,-0.8 -2.3,-0.6 -3.5,1.2 z m -0.6,18.1 c -0.1,1.2 -0.7,3.5 -1.5,5.2 l -1.3,3 -0.1,-5.1 c -0.1,-2.8 0.2,-5.4 0.5,-5.7 1.1,-1.1 2.4,0.3 2.4,2.6 z"
       id="path846"
       inkscape:connector-curvature="0"
       style="fill:#000000;stroke:none;stroke-width:0.1" />
    <path
       d="m 1554.4,885.7 c 0.3,2.7 0.9,10.9 1.2,18.3 0.6,12.1 0.5,13.7 -1.1,15 -2.5,2.1 -6.3,-0.4 -9.1,-6 -1.3,-2.5 -2.8,-5.1 -3.4,-5.8 -0.6,-0.7 -0.8,-2.2 -0.5,-3.3 1.2,-3.8 -4.5,-7 -5.9,-3.3 -1.1,2.8 -0.6,4.2 1.4,4.9 1.6,0.5 1.8,1 1,2.5 -1.6,2.9 3.7,12 8.6,14.7 10.7,6.1 16.4,-0.7 15,-18 -0.3,-4.5 -1,-9.8 -1.5,-11.7 -0.6,-1.9 -1.5,-5.4 -2.1,-7.8 -0.7,-2.7 -1.6,-4.2 -2.6,-4.2 -1.3,0 -1.5,0.9 -1,4.7 z"
       id="path848"
       inkscape:connector-curvature="0"
       style="fill:#000000;stroke:none;stroke-width:0.1" />
    <path
       d="m 1511,888.5 c -0.7,0.8 -1.8,3.2 -2.5,5.2 -0.9,2.6 -2.1,4 -3.6,4.3 -3.4,0.8 -3.8,4 -0.6,4 1.9,0 2.6,0.6 3,3 0.9,4.4 5.7,6.6 11.1,5 7.5,-2.2 12.1,-7.1 8.2,-8.6 -0.8,-0.3 -3.7,0.6 -6.6,2.1 -4.1,2.1 -5.5,2.4 -6.6,1.4 -1.6,-1.3 -1.9,-4.9 -0.4,-4.9 1.3,0 3.7,-3.8 4.5,-7.1 1.1,-4.4 -3.7,-7.7 -6.5,-4.4 z"
       id="path850"
       inkscape:connector-curvature="0"
       style="fill:#000000;stroke:none;stroke-width:0.1" />
    <path
       d="m 1461.3,892.2 c -2.8,3 -4.5,9.3 -4.1,14.7 0.2,3.3 0.9,4.9 2.9,6.3 3.7,2.8 7.2,0.9 10.4,-5.6 4,-8 3.3,-12.2 -2.7,-15.9 -3.5,-2.2 -4,-2.1 -6.5,0.5 z m 2.7,6.8 c 0,1.4 2.7,1.2 3.3,-0.3 0.3,-0.7 0.6,-0.5 0.6,0.5 0.2,2.9 -3,9.8 -4.5,9.8 -1,0 -1.4,-1.5 -1.4,-5.5 0,-3 0.5,-5.5 1,-5.5 0.6,0 1,0.4 1,1 z"
       id="path854"
       inkscape:connector-curvature="0"
       style="fill:#000000;stroke:none;stroke-width:0.1" />
  </g>
</svg>
