<?xml version="1.0" encoding="UTF-8" standalone="no"?>
<svg
   xmlns:dc="http://purl.org/dc/elements/1.1/"
   xmlns:cc="http://creativecommons.org/ns#"
   xmlns:rdf="http://www.w3.org/1999/02/22-rdf-syntax-ns#"
   xmlns:svg="http://www.w3.org/2000/svg"
   xmlns="http://www.w3.org/2000/svg"
   xmlns:sodipodi="http://sodipodi.sourceforge.net/DTD/sodipodi-0.dtd"
   xmlns:inkscape="http://www.inkscape.org/namespaces/inkscape"
   version="1.0"
   width="2048.000000pt"
   height="1208.000000pt"
   viewBox="0 0 2048.000000 1208.000000"
   preserveAspectRatio="xMidYMid meet"
   id="svg386"
   sodipodi:docname="test.svg"
   inkscape:version="0.92.2 (5c3e80d, 2017-08-06)">
  <defs
     id="defs390" />
  <sodipodi:namedview
     pagecolor="#ffffff"
     bordercolor="#666666"
     borderopacity="1"
     objecttolerance="10"
     gridtolerance="10"
     guidetolerance="10"
     inkscape:pageopacity="0"
     inkscape:pageshadow="2"
     inkscape:window-width="3840"
     inkscape:window-height="2072"
     id="namedview388"
     showgrid="false"
     showguides="true"
     inkscape:guide-bbox="true"
     inkscape:zoom="1.1330712"
     inkscape:cx="1365.3333"
     inkscape:cy="840.63562"
     inkscape:window-x="0"
     inkscape:window-y="46"
     inkscape:window-maximized="1"
     inkscape:current-layer="svg386">
    <sodipodi:guide
       position="290.58191,764.51509"
       orientation="0,1"
       id="guide475"
       inkscape:locked="false" />
    <sodipodi:guide
       position="875.71723,444.14686"
       orientation="0,1"
       id="guide477"
       inkscape:locked="false" />
    <sodipodi:guide
       position="872.40765,573.88275"
       orientation="1,0"
       id="guide479"
       inkscape:locked="false" />
    <sodipodi:guide
       position="1258.3057,592.41645"
       orientation="1,0"
       id="guide481"
       inkscape:locked="false" />
  </sodipodi:namedview>
  <metadata
     id="metadata220">
Created by potrace 1.15, written by Peter Selinger 2001-2017
<rdf:RDF>
  <cc:Work
     rdf:about="">
    <dc:format>image/svg+xml</dc:format>
    <dc:type
       rdf:resource="http://purl.org/dc/dcmitype/StillImage" />
    <dc:title></dc:title>
  </cc:Work>
</rdf:RDF>
</metadata>
  <path
     style="fill:#0000ff;stroke:none;stroke-width:0.1"
     inkscape:connector-curvature="0"
     id="path222"
     d="m 901.74066,62.970448 c -4.04899,0.309319 -5.61942,0.960286 -10.14833,4.136604 l -3.22802,2.197705 -2.73587,18.823522 c -3.38043,23.382531 -4.68251,38.829041 -3.62806,42.448171 0.52238,1.85934 1.52037,2.96117 2.81426,3.08707 2.38871,0.23243 2.19234,1.21805 3.64669,-16.82592 l 1.21491,-14.55074 3.21133,-0.99367 c 2.68463,-0.74349 3.5804,-0.65633 5.44509,0.83126 3.54002,2.85627 8.39703,10.76383 12.05267,19.65969 2.53339,5.97343 3.92249,8.21852 5.41544,8.36379 2.68731,0.26149 4.96309,-4.54068 3.0376,-6.43607 -0.82798,-0.78387 -2.70772,-4.1819 -4.27919,-7.6504 -1.58116,-3.36897 -5.53703,-9.1794 -8.88067,-13.02128 -3.44317,-3.85157 -6.13853,-7.128011 -6.10947,-7.4266 0.029,-0.29859 2.48288,-1.767849 5.44405,-3.288214 12.05339,-6.161622 17.27156,-19.519045 9.9123,-25.459697 -3.07142,-2.509256 -8.93668,-4.185171 -13.18473,-3.895221 z m 10.0035,8.709758 c 1.06846,1.410106 1.87975,3.398022 1.79258,4.293792 -0.33896,3.483547 -4.98409,7.854223 -11.86998,11.5045 -6.44903,3.290896 -7.38354,3.601853 -8.65105,2.172378 -1.63659,-1.766805 -1.81941,-14.343632 -0.15213,-15.989899 0.44654,-0.45891 1.78617,-1.835642 2.90737,-3.032684 2.14287,-2.403767 7.67244,-3.473268 11.48632,-2.398853 1.36436,0.434176 3.32859,1.931445 4.48689,3.450766 z" />
  <path
     style="fill:#0000ff;stroke:none;stroke-width:0.1"
     inkscape:connector-curvature="0"
     id="path224"
     d="m 1215.9307,106.20223 c -0.8834,0.81829 -1.9799,3.82624 -2.5497,6.58403 -0.8145,4.24105 -1.2901,4.99855 -3.2103,5.11313 -1.721,0.13395 -2.3596,-0.53102 -2.6442,-2.76911 -0.5278,-3.8693 -2.5845,-6.48077 -5.0921,-6.52383 -2.5975,-0.15227 -3.8182,1.03508 -4.0991,3.92145 -0.184,1.89107 -4.3024,6.01159 -5.8949,5.85663 -1.4929,-0.14527 -3.9629,-4.70592 -3.4001,-6.35919 0.9485,-2.51999 -0.8123,-6.10738 -3.1015,-6.33013 -2.1897,-0.21307 -3.6746,2.65661 -3.1468,6.52591 0.5912,5.2821 -6.3017,10.03689 -9.9025,6.77281 -1.5661,-1.45853 -1.5468,-1.65759 1.0109,-5.22666 1.4075,-2.07344 2.6449,-4.46484 2.732,-5.36061 0.184,-1.89107 -2.9164,-4.10174 -5.084,-3.50888 -1.6506,0.44222 -5.1886,5.82489 -5.421,8.21361 -0.1453,1.49294 -5.0309,5.23739 -6.5238,5.09212 -1.1944,-0.11622 -2.5017,-5.26704 -2.1724,-8.65106 0.3487,-3.58308 -1.5671,-5.578 -3.4625,-3.65251 -0.5655,0.64829 -1.6329,3.35765 -2.2925,6.00621 -1.5446,6.58135 -2.7143,8.27604 -4.4116,6.10143 -0.7188,-0.87371 -1.8411,-3.79614 -2.4753,-6.57061 -0.9646,-3.50992 -1.834,-4.90066 -3.2275,-5.03625 -1.692,-0.16464 -1.9685,0.61223 -2.4624,5.68826 -0.4939,5.07603 -0.2922,6.10038 1.3514,6.76267 1.0658,0.40512 1.8937,1.189 1.8453,1.68665 -0.048,0.49765 1.0394,1.70869 2.4549,2.6502 3.03,1.90239 6.8288,1.06637 8.0054,-1.73283 0.7619,-1.6339 0.9609,-1.61453 3.015,-0.008 2.513,2.05303 7.448,1.9304 9.5619,-0.17478 1.1115,-1.09751 1.699,-0.93987 4.0129,1.09379 4.0597,3.71061 8.9754,3.78705 13.1256,0.37293 3.2861,-2.79488 3.3856,-2.7852 6.5248,-0.97265 2.5518,1.65491 3.5471,1.75175 6.3409,0.91841 1.7598,-0.53207 4.0436,-2.31928 5.0944,-3.8246 l 1.7931,-2.94016 1.132,2.8229 c 1.3821,3.3496 5.247,4.93135 9.274,3.8161 1.7501,-0.43253 3.0537,-0.40616 3.3937,0.22976 1.0006,2.10681 7.9855,5.70017 11.5685,6.04882 4.5784,0.4455 10.8892,-2.45696 13.9736,-6.2762 2.7277,-3.25111 3.4303,-8.40731 1.444,-10.7105 -2.8653,-3.5944 -6.3629,-1.72434 -4.6698,2.55977 3.0143,7.2259 -12.2557,12.37122 -17.1391,5.76723 -1.3283,-1.83728 -1.2896,-2.2354 0.375,-4.88665 2.4678,-3.67829 2.6104,-6.17622 0.6145,-8.37989 -2.0858,-2.31287 -4.3654,-2.63515 -6.2607,-0.70967 z" />
  <path
     style="fill:#0000ff;stroke:none;stroke-width:0.1"
     inkscape:connector-curvature="0"
     id="path226"
     d="m 1057.0061,92.546574 c -0.3761,0.767185 -0.8242,4.340577 -0.9738,7.943026 -0.3019,6.19991 -0.4208,6.38928 -1.9579,4.63216 -1.367,-1.43916 -1.855,-1.58711 -2.5587,-0.55039 -1.5968,1.95454 -0.4939,5.07603 1.9362,5.91532 1.4543,0.5434 2.4329,1.84429 2.6663,3.57503 1.0362,7.93767 1.629,10.10528 2.775,10.71914 2.4909,1.24711 3.9564,-1.42352 3.2684,-5.7103 -1.111,-6.13645 -0.7446,-6.8041 4.3261,-8.32015 6.2139,-1.90716 15.9657,-9.19698 15.283,-11.473804 -0.8236,-2.893371 -3.4986,-2.249405 -9.6754,2.374124 -5.3128,4.00429 -10.2328,6.03735 -11.3109,4.72678 -0.2792,-0.22812 -0.4379,-3.76009 -0.3588,-7.67081 0.01,-5.22398 -0.3975,-7.272687 -1.3928,-7.369534 -0.6967,-0.06779 -1.6603,0.541753 -2.0267,1.209408 z" />
  <path
     style="fill:#0000ff;stroke:none;stroke-width:0.1"
     inkscape:connector-curvature="0"
     id="path228"
     d="m 1122.733,101.65488 c -3.0511,1.41115 -7.7145,10.10035 -8.2278,15.37544 -0.3777,3.88167 -0.086,5.01524 2.0288,7.02953 2.394,2.2424 3.4792,2.44846 7.2075,1.30416 1.4516,-0.46159 1.486,1.24979 0.4206,12.19808 -1.2466,13.84434 -0.466,19.24533 3.3118,21.72285 2.9208,1.99224 5.7437,0.86031 8.3498,-3.20641 4.4988,-6.9972 3.821,-18.61746 -1.3098,-24.74317 -2.8848,-3.39534 -2.9553,-3.70362 -2.132,-12.16366 0.7554,-7.76334 0.6338,-8.57895 -1.0582,-8.74359 -1.2939,-0.1259 -2.3957,0.87208 -3.4147,3.08379 -1.6813,3.8553 -6.4453,8.41535 -7.7516,7.384 -1.4956,-1.15026 -0.4486,-7.78003 1.91,-11.36847 2.1499,-3.50828 5.6888,-4.77148 5.4177,-1.98464 -0.2422,2.48825 3.2484,1.7227 3.8983,-0.82634 0.325,-1.27452 -0.2361,-2.73573 -1.6322,-3.8763 -2.4135,-2.04334 -4.2852,-2.42641 -7.0182,-1.18527 z m 10.3115,45.81401 c -0.2879,3.99088 -1.4064,6.19291 -2.4846,4.88233 -0.2695,-0.32764 -0.2996,-4.14852 -0.1721,-8.55689 l 0.3573,-7.80207 1.2535,3.6385 c 0.7118,1.97823 1.1691,5.53926 1.0459,7.83813 z" />
  <path
     style="fill:#0000ff;stroke:none;stroke-width:0.1"
     inkscape:connector-curvature="0"
     id="path230"
     d="m 1030.1388,103.29507 c -0.347,0.4686 -1.2567,2.59046 -2.0767,4.82154 -0.8102,2.13155 -2.9214,5.24171 -4.6785,6.77876 -3.8419,3.34365 -5.9707,3.53839 -4.4568,0.37011 0.5144,-1.15562 1.203,-4.10278 1.4452,-6.59102 0.4067,-4.18026 0.2367,-4.49822 -2.322,-5.04861 -2.2602,-0.52134 -3.0053,-0.0915 -4.4902,2.77819 -0.9802,1.81359 -1.9869,4.93076 -2.1709,6.82183 -0.2518,2.58778 -0.9652,3.72403 -2.6448,4.46484 -2.9321,1.22178 -4.2314,-0.91409 -4.5364,-7.07258 -0.2098,-4.03931 -1.9873,-6.42266 -3.9946,-5.41231 -0.41749,0.16032 -1.56499,2.66093 -2.55229,5.57904 -0.8877,2.92779 -2.40167,6.09606 -3.29477,7.01388 -1.4682,1.66564 -1.5677,1.65595 -2.3015,-1.1282 -0.4422,-1.65059 -0.7171,-3.98821 -0.6009,-5.18257 0.1259,-1.29388 -0.5956,-3.17259 -1.6834,-4.38363 -1.5467,-1.65759 -2.0347,-1.80555 -2.8476,-0.67898 -0.5751,0.74782 -0.8614,1.62422 -0.6015,2.05139 0.1603,0.41749 0.5955,3.17259 0.8123,6.10738 0.8204,9.12234 5.6252,12.4031 10.37687,6.9376 2.371,-2.68299 2.371,-2.68299 4.07799,-0.60791 2.2462,2.73036 6.526,3.14681 9.9434,1.068 1.9368,-1.31862 3.051,-1.41115 4.3669,-0.47932 2.4522,1.64522 6.6491,0.84794 10.2435,-2.01742 l 2.9392,-2.32629 -0.3003,3.08543 c -0.3293,3.38401 1.2298,5.94706 4.5073,7.37117 2.8988,1.18631 6.0343,-2.12559 6.5088,-7.00256 0.6973,-7.16616 -7.011,-20.877148 -9.6683,-17.31776 z m 4.6724,17.03258 c -0.1743,1.79154 -0.3927,1.97123 -0.9732,0.70908 -0.5197,-0.85435 -0.5224,-1.85933 -0.2846,-2.23808 1.0314,-1.30626 1.4806,-0.76019 1.2578,1.529 z" />
  <path
     style="fill:#0000ff;stroke:none;stroke-width:0.1"
     inkscape:connector-curvature="0"
     id="path232"
     d="m 934.65199,98.524967 c -0.56544,0.648285 -1.96318,2.622193 -3.03327,4.326573 -1.16963,1.69469 -2.99454,3.92845 -4.1959,4.91675 -1.96587,1.61721 -2.11382,2.10518 -1.00394,4.12215 0.68002,1.27183 1.32399,3.94678 1.52841,5.97612 0.62832,7.99845 8.21033,11.64991 17.74479,8.65924 4.56332,-1.46494 7.48307,-3.59216 7.67676,-5.58276 0.15496,-1.59248 -3.46686,-1.54301 -8.94532,0.0338 -7.44702,2.18907 -9.69747,1.5682 -10.77397,-2.85686 -0.73381,-2.78416 -0.57617,-3.37166 1.00394,-4.12215 3.45881,-1.47194 6.84179,-5.26213 7.77793,-8.68757 0.87804,-2.82826 0.6763,-3.85261 -1.0695,-5.52957 -2.3844,-2.341932 -5.05234,-2.80248 -6.70993,-1.255743 z m 1.55583,8.792003 c -2.18429,1.79691 -2.19934,-0.11353 -0.0979,-3.12416 1.28853,-1.88407 1.39774,-1.97391 1.62153,-0.14364 0.10222,1.01467 -0.55039,2.55873 -1.52364,3.2678 z" />
  <path
     style="fill:#0000ff;stroke:none;stroke-width:0.1"
     inkscape:connector-curvature="0"
     id="path234"
     d="m 963.06481,103.90196 c -7.41692,6.00994 -7.82963,15.41418 -0.71891,17.71365 1.85233,0.58213 4.07105,0.4966 6.04928,-0.21516 3.03164,-1.21209 3.13117,-1.2024 2.92779,0.88772 -0.11622,1.19436 -1.27348,3.79451 -2.562,5.67857 -1.99224,2.92079 -2.06003,3.6175 -0.96252,4.72902 0.91782,0.89308 1.18304,3.33023 0.81501,7.11236 -0.75541,7.76334 0.37921,11.59122 3.81701,13.43282 2.48125,1.34663 3.08811,1.30521 5.13414,-0.10326 4.87592,-3.64491 7.60683,-13.12499 5.02774,-17.59579 -0.68002,-1.27184 -2.52535,-2.95848 -4.14956,-3.81983 l -3.05906,-1.6038 1.69424,-10.18379 c 1.61676,-9.38756 1.62377,-10.49207 -0.0666,-13.77119 -3.09183,-6.429664 -7.93974,-7.202807 -13.94655,-2.26132 z m 10.07994,3.79405 c 1.44989,2.65289 1.4402,2.75242 -2.9187,6.2467 -4.58702,3.7735 -7.73055,4.07045 -8.01782,0.82738 -0.31632,-2.94448 2.2801,-6.91167 5.45,-8.5122 3.69662,-1.85069 3.88599,-1.73179 5.48652,1.43812 z m 5.37328,33.57824 c -0.0775,0.79624 -0.74945,2.53935 -1.50159,4.07372 -1.2471,2.49093 -1.45584,2.57109 -1.96854,0.61223 -0.39112,-1.14325 -0.50838,-4.06836 -0.26626,-6.55661 l 0.43581,-4.47884 1.65864,2.57273 c 0.96892,1.40042 1.70974,3.08006 1.64194,3.77677 z" />
  <path
     style="fill:#0000ff;stroke:none;stroke-width:0.1"
     inkscape:connector-curvature="0"
     id="path236"
     d="m 1264.8099,166.57607 c -0.087,0.89577 0.6123,1.96855 1.5785,2.36398 2.3016,1.12821 2.9622,2.5991 2.5942,6.38124 -0.2421,2.48825 -0.8366,3.43512 -2.2688,3.69766 -3.4712,0.56648 -4.2152,5.11581 -1.1465,6.62008 2.0126,0.99962 5.3375,-2.19339 7.0866,-6.74539 1.7684,-4.75107 0.9077,-10.3608 -1.8237,-12.23413 -2.6416,-1.76413 -5.8556,-1.77545 -6.0203,-0.0834 z" />
  <path
     style="fill:#0000ff;stroke:none;stroke-width:0.1"
     inkscape:connector-curvature="0"
     id="path238"
     d="m 1253.0761,169.4532 c -0.3857,0.86672 0.1146,1.92013 1.1513,2.62384 2.2629,1.52632 2.1326,4.92971 -0.3352,8.60799 -1.4268,2.27251 -1.5941,2.95953 -0.516,4.27011 1.6269,1.86633 2.8891,1.28584 5.2961,-2.80025 2.7541,-4.55469 2.7944,-8.06729 0.1793,-11.13499 -2.4162,-3.04832 -4.6666,-3.66919 -5.7755,-1.5667 z" />
  <path
     style="fill:#0000ff;stroke:none;stroke-width:0.1"
     inkscape:connector-curvature="0"
     id="path240"
     d="m 1209.3415,175.94814 c -0.2668,0.67734 -0.7026,5.15619 -0.8592,9.86315 l -0.345,8.70753 -2.6388,-0.75914 c -3.5153,-1.04536 -3.8156,2.04006 -0.3681,3.78213 2.5007,1.14758 2.5808,1.35632 1.2766,8.5639 -0.9792,5.93305 -1.0249,7.43569 0.2302,7.95971 0.7672,0.37607 1.8524,0.58213 2.3791,0.33196 1.2718,-0.68002 3.603,-7.08435 4.0195,-11.36414 0.3099,-3.18496 0.7564,-3.64387 3.2033,-4.00861 3.8596,-0.42822 10.7525,-5.18301 10.9752,-7.4722 0.3099,-3.18496 -2.3968,-3.24739 -6.8261,-0.0614 -6.575,4.58478 -7.3228,4.00965 -7.2377,-5.12505 0.049,-7.7316 -0.7069,-11.32168 -2.3989,-11.48632 -0.3981,-0.0387 -1.0534,0.50034 -1.4101,1.06846 z" />
  <path
     style="fill:#0000ff;stroke:none;stroke-width:0.1"
     inkscape:connector-curvature="0"
     id="path242"
     d="m 1080.3104,166.90929 c -11.2073,21.21433 -27.6638,47.84574 -32.2191,52.32563 -2.888,2.83362 -3.4314,4.28783 -1.9358,5.43809 2.0541,1.60648 6.1338,-2.11591 13.7681,-12.425 12.3736,-16.68006 25.1927,-37.93849 26.0239,-43.38359 0.6957,-4.05167 0.5451,-4.56869 -1.516,-5.07066 -1.7625,-0.47291 -2.6265,0.14632 -4.1211,3.11553 z" />
  <path
     style="fill:#0000ff;stroke:none;stroke-width:0.1"
     inkscape:connector-curvature="0"
     id="path244"
     d="m 1230.749,192.39873 c -4.07,3.62286 -5.8799,7.76706 -4.9955,11.06824 0.4423,1.65058 0.3675,3.45181 -0.198,4.10009 -1.4972,1.96423 -1.8986,8.15445 -0.6408,9.68346 1.5274,1.85665 6.7223,2.1612 9.3849,0.61178 2.7524,-1.44021 5.4456,-6.4027 4.8528,-8.57031 -0.2114,-0.92482 -2.3554,-2.64052 -4.7371,-3.97747 -4.4842,-2.44578 -4.9651,-3.69825 -2.5581,-7.78434 0.9803,-1.81359 1.9341,-2.3236 3.2888,-1.7899 2.5297,0.84899 3.7063,-1.95022 1.5818,-3.86498 -2.4038,-2.14287 -3.0107,-2.10145 -5.9788,0.52343 z m 1.269,16.90236 c 2.7604,1.57474 2.5447,2.75942 -0.6349,4.45947 -2.1165,1.1002 -2.2063,0.99098 -2.2752,-2.43177 -0.015,-1.91044 0.04,-3.51261 0.2395,-3.49324 0.1,0.01 1.3449,0.63324 2.6706,1.46554 z" />
  <path
     style="fill:#0000ff;stroke:none;stroke-width:0.1"
     inkscape:connector-curvature="0"
     id="path246"
     d="m 1183.7084,190.5342 c -2.6475,3.45986 -3.426,6.2978 -2.4544,8.70321 0.9108,1.9976 0.5444,2.66525 -2.5039,5.08139 -2.6115,2.05675 -3.3372,2.28755 -2.5948,0.85271 0.6042,-1.04641 1.3246,-3.28717 1.7975,-5.04966 0.5407,-2.45919 0.2298,-3.3937 -1.4746,-4.46379 -1.8841,-1.28853 -2.3914,-1.23742 -4.1776,0.59822 -1.1212,1.19704 -2.1595,3.60781 -2.3823,5.897 -0.2421,2.48825 -0.8754,3.83324 -1.6716,3.75576 -2.3887,-0.23243 -3.4502,-2.74705 -3.0434,-6.92731 0.2809,-2.88636 -0.072,-4.42774 -1.1276,-4.93239 -2.202,-1.11852 -3.0758,-0.39976 -5.4,4.90006 -1.1669,2.69968 -2.4748,4.7828 -2.9724,4.73438 -0.4977,-0.0484 -0.962,-2.50493 -1.1884,-5.3402 -0.2292,-3.84024 -0.771,-5.50051 -2.0455,-5.82548 -1.3643,-0.43417 -1.7307,0.23348 -2.0283,4.32389 -0.7166,7.36522 0.758,11.82902 3.9042,12.53705 1.7722,0.37338 3.1145,0.002 4.0463,-1.31431 1.4779,-1.76516 1.4779,-1.76516 3.6923,0.25881 3.1225,3.01659 13.8814,3.96302 17.527,1.60499 2.1455,-1.39878 3.1602,-1.501 4.5756,-0.55949 2.9208,1.99224 6.7417,1.96214 9.1444,-0.0145 2.7304,-2.24613 3.0306,-5.33156 0.9685,-9.95299 -0.9108,-1.9976 -2.1423,-4.83018 -2.6039,-6.28171 -1.8437,-4.80113 -5.3493,-5.94602 -7.9871,-2.58569 z m 6.2084,14.67023 c -0.6553,0.53907 -1.869,0.62191 -2.8256,0.12695 -1.5343,-0.75214 -1.4154,-0.94151 0.4606,-2.66794 1.7668,-1.63658 2.0654,-1.60753 2.7163,-0.0371 0.5004,1.05341 0.304,2.03902 -0.3513,2.57809 z" />
  <path
     style="fill:#0000ff;stroke:none;stroke-width:0.1"
     inkscape:connector-curvature="0"
     id="path248"
     d="m 1134.4959,191.37203 c -3.5045,2.97457 -7.0177,10.16814 -6.5217,13.33105 0.4766,3.36196 4.5891,4.46543 8.106,2.39631 l 2.881,-1.72911 -1.3252,10.52112 c -1.5893,12.20344 -0.8378,17.90302 2.8599,20.17179 1.8938,1.189 2.7895,1.27616 4.4885,0.33629 3.3884,-1.78022 6.2613,-6.52428 6.8064,-11.09297 0.3389,-3.48355 -0.033,-4.82586 -2.308,-7.25764 -1.4569,-1.54838 -3.3022,-3.23502 -3.9796,-3.50187 -1.0561,-0.50465 -1.0421,-2.71368 -0.2259,-10.06921 1.1606,-8.82911 1.039,-9.64472 -1.0081,-12.35572 -2.7561,-3.68424 -6.0503,-3.90431 -9.7733,-0.75004 z m 6.1085,3.30713 c -0.3444,1.47358 -7.1103,9.05395 -7.6494,8.39866 -0.7188,-0.87372 2.1418,-6.52324 4.2363,-8.42935 1.876,-1.72643 3.6772,-1.65164 3.4131,0.0307 z m 5.5686,28.47315 c 0.5224,1.85933 0.2582,3.54166 -0.8119,5.24603 -1.8126,3.13922 -1.9922,2.92079 -2.159,-3.62613 -0.091,-4.22868 0.1152,-5.31383 1.0814,-4.91839 0.6677,0.36638 1.5371,1.75712 1.8895,3.29849 z" />
  <path
     style="fill:#0000ff;stroke:none;stroke-width:0.1"
     inkscape:connector-curvature="0"
     id="path250"
     d="m 1095.6626,188.79901 c -2.0972,0.90114 -5.2256,3.10853 -7.0118,4.94417 l -3.036,3.32159 -0.6439,-2.67494 c -0.3621,-1.44185 -1.3407,-2.74274 -2.137,-2.82022 -1.2938,-0.1259 -1.5898,0.85003 -1.5156,6.28276 0.034,8.94532 1.4213,14.30489 3.8101,14.53732 1.5924,0.15496 2.0874,-0.8016 3.0209,-5.23202 1.5322,-7.4868 3.5148,-10.30806 9.4274,-13.24926 3.4782,-1.671 5.1164,-3.01868 5.0336,-4.2324 -0.2652,-2.43715 -2.4549,-2.65021 -6.9477,-0.877 z" />
  <path
     style="fill:#0000ff;stroke:none;stroke-width:0.1"
     inkscape:connector-curvature="0"
     id="path252"
     d="m 1109.6866,190.26409 c -1.2014,0.9883 -2.8175,3.1419 -3.5697,4.67627 -0.6526,1.54406 -1.8733,2.73141 -2.57,2.66362 -1.692,-0.16464 -2.8299,2.23644 -1.7518,3.54702 0.5391,0.65529 1.5495,2.66257 2.2612,4.64081 0.8113,1.98791 2.5184,4.06299 3.9629,4.70591 3.2678,1.52364 9.5038,0.42241 12.9793,-2.25358 2.1746,-1.69737 2.3128,-2.08581 1.2444,-3.49591 -1.1777,-1.32027 -1.9836,-1.29821 -6.3382,0.0866 -2.7938,0.83335 -5.5586,1.3681 -6.3258,0.99203 -1.8136,-0.98025 -1.2729,-3.43945 0.9625,-4.72901 5.3252,-3.09884 7.6273,-9.20459 4.4273,-11.42494 -2.4522,-1.64522 -2.6609,-1.56506 -5.2821,0.59122 z" />
  <path
     style="fill:#0000ff;stroke:none;stroke-width:0.1"
     inkscape:connector-curvature="0"
     id="path254"
     d="m 1007.2633,181.40299 c -0.524,1.25515 -1.1589,5.71462 -1.2671,9.92393 -0.2243,5.40367 -0.6558,7.77302 -1.4521,7.69554 -0.5972,-0.0581 -1.027,-0.80324 -0.9495,-1.59948 0.1937,-1.9906 -3.3991,-2.23972 -4.38897,-0.3266 -0.9997,2.01265 0.4088,4.05868 3.41677,5.15515 2.1315,0.81024 2.372,1.43647 2.004,5.21861 -0.5521,5.67321 0.06,7.64175 2.2498,7.85482 2.3888,0.23243 3.6843,-2.75615 3.4013,-8.10871 l -0.2802,-4.34758 4.3669,-0.47933 c 3.3523,-0.37711 4.4154,-0.97697 4.5607,-2.46992 0.1646,-1.69201 -0.4035,-2.04871 -4.0157,-2.09877 -4.906,-0.17596 -5.0663,-0.59345 -4.4378,-11.18236 0.3599,-6.79709 -1.1992,-9.36013 -3.2081,-5.2353 z" />
  <path
     style="fill:#0000ff;stroke:none;stroke-width:0.1"
     inkscape:connector-curvature="0"
     id="path256"
     d="m 870.8035,170.23467 c -1.44884,1.46658 -5.43927,12.53213 -5.80729,16.31427 -0.48424,4.9765 4.28187,8.65538 6.91971,5.29505 1.04104,-1.40579 0.90009,-2.02234 -0.48633,-3.26244 -1.66563,-1.46821 -1.59784,-2.16492 -0.0505,-7.74128 0.93615,-3.42544 2.11978,-7.32916 2.57332,-8.89258 0.79088,-1.93249 0.65961,-2.64857 -0.53475,-2.76479 -0.79624,-0.0775 -1.94918,0.41317 -2.61415,1.05177 z" />
  <path
     style="fill:#0000ff;stroke:none;stroke-width:0.1"
     inkscape:connector-curvature="0"
     id="path258"
     d="m 875.86821,173.94261 c -1.50428,3.06874 -1.75936,11.88548 -0.38963,14.32962 1.53974,2.76211 6.57703,3.65415 7.70523,1.3526 0.99962,-2.01265 0.22975,-3.39371 -2.05944,-3.61646 -1.89107,-0.18401 -2.40376,-2.14287 -2.27459,-9.66572 0.021,-3.31354 -1.75384,-4.69191 -2.98157,-2.40004 z" />
  <path
     style="fill:#0000ff;stroke:none;stroke-width:0.1"
     inkscape:connector-curvature="0"
     id="path260"
     d="m 1027.1741,192.58385 c -1.3273,2.28219 -3.1619,4.61548 -4.0259,5.23471 -1.8276,1.22878 -2.4749,4.7828 -0.9819,4.92808 0.5972,0.0581 0.8403,1.68932 0.6466,3.67992 -0.4261,4.37932 3.5685,9.79163 7.5497,10.17902 5.5737,0.54234 13.9789,-4.26623 14.3566,-8.1479 0.2615,-2.68731 -2.9428,-2.79816 -6.0105,-0.18297 -4.1502,3.41412 -8.4273,4.00266 -9.8966,1.54883 -1.6392,-2.77179 -1.205,-4.13615 1.7438,-6.56197 3.058,-2.51567 5.649,-8.49283 5.1821,-11.95432 -0.333,-1.74044 -1.0712,-2.41509 -3.3604,-2.63784 -2.4882,-0.24212 -3.243,0.28726 -5.2035,3.91444 z" />
  <path
     style="fill:#0000ff;stroke:none;stroke-width:0.1"
     inkscape:connector-curvature="0"
     id="path262"
     d="m 962.23917,185.66252 c -2.31288,2.08581 -2.59642,3.9672 -0.60582,4.16089 0.9953,0.0969 1.3961,1.14057 1.16367,3.52929 -0.3196,3.28449 -0.53803,3.46418 -4.05063,3.4238 -5.01524,-0.0861 -5.585,2.67167 -0.74677,3.54434 l 3.25543,0.61819 -1.26543,6.80945 c -0.95283,4.62948 -0.97652,6.93804 -0.32823,7.50349 2.05407,1.60648 4.50253,-1.87275 5.70985,-8.08502 l 1.20732,-6.21228 4.28679,-0.68807 c 4.88397,-0.62996 7.13874,-2.11859 6.20855,-3.91713 -0.42017,-0.84466 -2.09281,-1.20836 -4.91839,-1.08142 -3.84024,0.22916 -4.32821,0.0812 -4.72201,-2.06703 -0.17269,-1.32294 -0.25821,-3.54166 -0.12262,-4.93507 0.14527,-1.49295 -0.40617,-3.0537 -1.27289,-3.43945 -2.01265,-0.99962 -1.8039,-1.07978 -3.79882,0.83602 z" />
  <path
     style="fill:#0000ff;stroke:none;stroke-width:0.1"
     inkscape:connector-curvature="0"
     id="path264"
     d="m 982.09614,195.33107 c -6.06224,6.54365 -8.86099,16.72044 -5.27255,19.07906 1.69469,1.16962 2.52967,0.84898 5.80611,-1.84637 3.38566,-2.7852 3.80313,-2.94552 4.53423,-1.16635 1.3821,3.3496 3.5965,5.37357 5.8857,5.59632 2.4883,0.24212 6.937,-3.14294 7.16947,-5.53166 0.2421,-2.48825 -2.30697,-3.13817 -4.51057,-1.14221 -1.9853,1.81627 -1.9853,1.81627 -3.0564,-0.59882 -0.5708,-1.36168 -0.8941,-3.20164 -0.8968,-4.20663 0.097,-0.9953 -0.7241,-2.88368 -1.8023,-4.19426 -1.537,-1.75712 -1.8797,-3.39802 -1.4579,-5.66784 0.5504,-2.55872 0.3099,-3.18496 -1.3821,-3.3496 -1.09485,-0.10653 -3.33025,1.18304 -5.01689,3.02836 z m 4.21999,4.12811 c -0.068,0.69671 -1.49454,2.96921 -3.10102,5.02328 -2.75674,3.54971 -2.86596,3.63955 -1.98792,0.81129 1.4408,-4.48153 5.39894,-9.01953 5.08894,-5.83457 z" />
  <path
     style="fill:#0000ff;stroke:none;stroke-width:0.1"
     inkscape:connector-curvature="0"
     id="path266"
     d="m 943.96649,191.72134 c -5.03088,5.23739 -5.68512,9.89593 -2.23658,15.75746 1.02971,1.80823 0.95224,2.60447 -0.38471,4.98619 l -1.58443,2.85999 0.31691,-4.28947 c 0.22975,-3.3937 0.009,-4.219 -1.58384,-4.37395 -3.58308,-0.34865 -5.34779,9.52686 -2.19621,12.24486 6.03363,5.10836 14.39533,-8.54602 9.3129,-15.16938 -2.41614,-3.04832 -1.27393,-7.55891 1.8115,-7.25868 1.59248,0.15496 2.05839,-0.50301 2.32956,-3.28985 0.27118,-2.78684 -0.0592,-3.52229 -1.5521,-3.66756 -1.09483,-0.10653 -3.00258,0.9135 -4.233,2.20039 z" />
  <path
     style="fill:#0000ff;stroke:none;stroke-width:0.1"
     inkscape:connector-curvature="0"
     id="path268"
     d="m 906.35491,192.08044 c -0.43686,0.35938 -0.87103,1.72374 -1.00662,3.11716 -0.30991,3.18496 -3.73758,12.59724 -6.4018,17.26114 -1.96049,3.62718 -1.96049,3.62718 -2.5243,1.16099 -0.26253,-1.43216 -0.12531,-5.94006 0.18192,-10.13 0.43313,-5.48383 0.27713,-8.01082 -0.73053,-9.01312 -2.19503,-2.22304 -2.83795,-0.77851 -4.03722,8.44872 -1.3736,11.01876 -0.65379,16.01195 2.70385,17.6448 3.45718,1.64254 6.51519,-0.87312 10.82194,-8.9942 3.95006,-7.55295 5.85036,-18.82188 3.32069,-19.67086 -0.88609,-0.1867 -1.89107,-0.18402 -2.32793,0.17537 z" />
  <path
     style="fill:#0000ff;stroke:none;stroke-width:0.1"
     inkscape:connector-curvature="0"
     id="path270"
     d="m 922.19358,198.64523 c -2.2424,2.39409 -2.34193,2.3844 -2.13855,0.29427 0.15495,-1.59248 -0.29427,-2.13855 -1.508,-2.05571 -1.62153,0.14364 -2.01429,2.11487 -4.35636,23.08662 -2.26192,21.18051 -2.3464,23.08126 -0.81203,23.8334 2.86968,1.4849 4.48317,-1.67369 5.3548,-10.63138 0.6973,-7.16615 1.13148,-8.53052 3.06829,-9.84914 4.41001,-2.98694 7.06185,-8.5563 7.91679,-16.30995 0.69999,-6.16117 0.53698,-7.58364 -0.93928,-8.93296 -2.59314,-2.26177 -4.00593,-2.1983 -6.58566,0.56485 z" />
  <path
     style="fill:#0000ff;stroke:none;stroke-width:0.10495265"
     inkscape:connector-curvature="0"
     id="path272"
     d="m 1058.6308,279.93342 c -2.7538,1.2 -10.0237,13.5 -10.0237,16.9 0,3.6 3.1944,1.6 5.838,-3.6 3.5248,-6.9 6.4989,-9.6 10.6846,-9.6 4.1857,0 6.0583,2.5 8.7019,12.1 3.3045,11.9 5.3974,100.5 2.5334,110.2 -3.3045,11.5 -5.7278,15.6 -10.1338,17.7 -5.838,2.7 -7.1598,2.5 -9.8034,-1.4 -2.3132,-3.4 -4.8466,-5 -6.0583,-3.9 -1.6522,1.5 -0.3304,5.5 2.7538,8.8 4.0755,4.2 8.5917,4.6 15.4211,1.5 5.2872,-2.5 7.9308,-6.2 11.3455,-16 4.9567,-14.1 5.177,-18.9 3.5248,-67.5 -1.432,-44 -1.5421,-45.2 -4.406,-53 -1.5421,-4.4 -3.5249,-8.7 -4.2959,-9.6 -3.1944,-3.8 -10.5745,-5 -16.082,-2.6 z" />
  <path
     style="fill:#0000ff;stroke:none;stroke-width:0.10495265"
     inkscape:connector-curvature="0"
     id="path274"
     d="m 1099.9373,282.03342 c -3.3045,3.1 -8.3715,13 -8.3715,16.2 0,0.8 0.9914,1.4 2.203,1.4 1.2117,0 2.2031,-0.7 2.2031,-1.5 0,-0.9 1.1015,-3.5 2.3131,-5.8 7.4903,-13.5 15.2008,-11.1 19.6068,6 3.635,14.1 4.7365,33.1 4.1857,68 -0.5507,32.3 -1.3218,39.5 -5.6176,48.7 -1.432,3.2 -6.3888,6.6 -9.6933,6.6 -0.6609,0 -2.9741,-1.4 -4.8466,-3.1 -6.2786,-5.5 -9.8034,-1.7 -3.9654,4.2 6.4988,6.6 17.4038,4.4 23.0214,-4.6 2.4233,-3.9 6.0583,-17.1 7.4903,-26.7 1.2116,-8.1 0.771,-65.8 -0.5508,-75.3 -1.3218,-10.2 -5.9481,-26.7 -8.5917,-30.7 -2.0929,-3.2 -8.8121,-6.8 -12.8876,-6.8 -1.9828,0 -4.1858,1.1 -6.4989,3.4 z" />
  <path
     style="fill:#0000ff;stroke:none;stroke-width:0.10495265"
     inkscape:connector-curvature="0"
     id="path276"
     d="m 1018.3157,280.53342 c -2.6436,0.5 -3.9654,1.7 -6.2786,6.1 -1.6523,3 -3.1944,7.1 -3.3045,9 -0.3305,2.9 0,3.5 1.8725,3.5 1.6523,0 2.3132,-0.9 2.864,-3.6 0.3304,-2 1.5421,-5.1 2.7537,-7 1.8726,-2.8 2.8639,-3.4 6.6091,-3.7 3.1943,-0.2 4.9567,0.2 6.1684,1.5 3.3045,3.4 5.3974,12.6 6.3887,28.3 0.5508,8.5 1.6523,24.4 2.3132,35.2 1.432,20.8 0.4406,39.2 -2.8639,55.5 -1.7624,8.4 -3.7451,11.5 -9.8034,15.5 l -4.5162,2.9 -1.6523,-3.3 c -2.5334,-5.1 -4.8466,-6.2 -6.0582,-2.8 -0.9914,2.9 2.4233,8.6 6.0582,10 2.7538,1 3.7452,0.9 7.0497,-1 5.838,-3.2 11.5658,-9.8 13.4384,-15.5 7.8206,-23.7 5.3973,-108.7 -3.5249,-124.7 -3.1943,-5.7 -8.812,-7.6 -17.5139,-5.9 z" />
  <path
     style="fill:#0000ff;stroke:none;stroke-width:0.10495265"
     inkscape:connector-curvature="0"
     id="path278"
     d="m 1144.8787,283.83342 c -3.635,4 -6.9395,10.5 -7.0496,13.5 0,3.7 3.1943,2.7 5.0669,-1.5 2.6436,-5.6 6.8293,-10.2 9.473,-10.2 1.2116,0 4.0755,1.7 6.3887,3.7 6.0583,5.6 6.609,9.2 6.609,47.6 0,55.2 -2.3131,73.3 -10.3541,80.5 l -3.7452,3.4 -6.1684,-3.6 c -6.9395,-4 -7.8207,-4.2 -8.7019,-2.1 -1.3218,2.9 12.6673,11.2 16.7429,10 1.2117,-0.3 4.0756,-2.5 6.4989,-4.9 8.7019,-8.6 12.0064,-25.7 13.1079,-66.6 0.8812,-38.2 -1.4319,-59.3 -7.2699,-65.4 -3.7451,-4 -10.3542,-7.6 -13.9892,-7.6 -2.6436,0 -4.2958,0.8 -6.609,3.2 z" />
  <path
     style="fill:#0000ff;stroke:none;stroke-width:0.10495265"
     inkscape:connector-curvature="0"
     id="path280"
     d="m 974.03519,284.33342 c 0.33045,1.8 -0.22031,3.7 -1.98271,5.7 -4.18573,5.1 -6.05829,9.2 -8.81205,19.4 -4.73648,17.6 -6.38874,33.5 -5.61768,54.7 1.21165,34.8 7.38009,56.3 17.95454,62.6 8.4816,5.1 21.47937,-0.4 27.64781,-11.6 3.0842,-5.7 7.4902,-18.8 9.4729,-28.4 3.1944,-15.3 1.8726,-39.8 -3.635,-68.8 -2.203,-11.2 -8.5917,-28 -12.11649,-31.7 -2.86392,-3 -8.37145,-4.6 -16.19214,-4.6 h -7.26994 z m 17.18349,4 c 4.84662,3.7 8.81202,18.1 11.89622,42.8 4.9568,39.5 3.5248,63.1 -4.62628,79.4 -3.41467,6.7 -5.39738,8.7 -10.68461,11.2 -5.39738,2.5 -7.04964,2.4 -10.24401,-0.7 -12.00641,-11.7 -16.41243,-71.7 -8.26129,-110.7 2.42331,-11.1 7.71054,-21.8 8.81205,-17.6 0.33045,1.3 1.54211,2.5 2.64361,2.7 1.76241,0.3 1.98271,-0.2 1.65226,-4.2 -0.4406,-4.6 -0.4406,-4.6 2.97407,-4.6 1.98271,0 4.51617,0.8 5.83798,1.7 z" />
  <path
     style="fill:#0000ff;stroke:none;stroke-width:0.09092537"
     inkscape:connector-curvature="0"
     id="path282"
     d="m 1196.7709,350.3693 c -0.6412,2.26929 3.3663,6.39529 14.5872,15.05988 17.3123,13.20318 46.7273,39.81585 84.1571,76.02145 19.4764,18.87642 28.2127,26.50951 46.0861,40.3316 32.4605,25.27171 50.5744,37.54655 76.7031,52.19383 4.7289,2.68189 12.4232,7.52994 17.0719,10.83073 4.6487,3.19765 11.1408,7.32364 14.4269,8.97404 8.7363,4.53859 25.8884,15.36933 25.0869,15.98823 -0.3206,0.2063 -2.7251,1.2378 -5.3701,2.16615 -2.5648,1.0315 -8.3355,3.61024 -12.9041,5.87954 -8.4157,4.12599 -10.4996,6.49844 -8.0149,8.76774 1.0419,1.0315 2.3243,0.72205 6.2517,-1.34095 13.0643,-6.80789 27.7317,-13.51263 29.0943,-13.40948 1.2022,0.2063 1.5228,-0.4126 1.3625,-3.19765 -0.1603,-5.46694 -14.2666,-39.40325 -17.3925,-41.98199 -0.8816,-0.72205 -1.5228,-0.6189 -2.2441,0.30945 -1.1221,1.44409 2.164,10.93388 8.9767,25.47801 2.0839,4.5386 4.2479,9.28349 4.7288,10.62444 0.9618,2.37245 0.9618,2.37245 -1.7633,0.8252 -1.5228,-0.72205 -6.6524,-4.3323 -11.3812,-7.83939 -4.7288,-3.5071 -10.8202,-7.63309 -13.4651,-9.28349 -2.7251,-1.54725 -9.1371,-6.18899 -14.1865,-10.21184 -5.0494,-4.12599 -20.9191,-15.05988 -35.2658,-24.34336 -24.606,-15.98823 -68.0471,-47.03634 -78.7871,-56.42298 -2.7251,-2.37245 -14.0262,-12.79058 -25.0868,-23.10557 -32.3805,-30.22291 -67.8868,-59.93007 -83.6762,-70.03876 -9.057,-5.77639 -15.1483,-10.83073 -15.2285,-12.68743 0,-1.8567 -3.206,-1.54725 -3.767,0.4126 z" />
  <path
     style="fill:#0000ff;stroke:none;stroke-width:0.10962799"
     inkscape:connector-curvature="0"
     id="path284"
     d="m 890.04188,348.78078 c -6.24733,0.37706 -14.91708,1.50823 -19.12446,2.45086 -6.62982,1.50823 -7.64978,2.07381 -8.03228,4.33614 -0.50998,3.01644 1.01997,3.20497 14.4071,1.22543 4.97236,-0.75411 12.36715,-1.60248 16.44704,-1.88528 l 7.52229,-0.65985 -21.5469,11.50019 c -26.39176,13.95104 -31.23663,17.15601 -64.0032,40.91048 -28.17671,20.36099 -59.03084,44.68105 -75.09539,58.91488 -31.23663,27.80782 -96.51479,90.39898 -105.05705,100.86227 -2.29493,2.82791 -5.22735,6.22141 -6.50232,7.44684 -2.80492,2.73365 -7.39479,10.18049 -7.39479,11.9715 0,2.82791 3.95239,1.03691 7.0123,-3.20497 5.86484,-8.10668 40.16137,-40.43917 74.20292,-69.56669 5.48235,-4.61892 17.97699,-15.45926 27.79422,-24.03727 22.05688,-19.13554 36.97396,-30.63573 88.35502,-68.05846 35.95398,-26.11106 85.93258,-60.04604 88.48251,-60.04604 0.50998,0 -0.12749,1.97954 -1.52996,4.4304 -1.40246,2.54513 -5.60984,11.97151 -9.56223,21.02083 -3.95239,9.04933 -7.64979,17.25027 -8.28727,18.09865 -2.80491,3.77055 -0.89247,7.35258 3.9524,7.35258 1.78494,0 4.46237,-5.56157 9.94471,-20.54952 7.01231,-19.32407 14.6621,-34.97186 17.8495,-36.66861 3.31491,-1.69675 3.44241,-4.61893 0.255,-5.93862 -2.80493,-1.0369 -13.13214,-1.0369 -30.08916,0.0943 z" />
  <path
     style="fill:#000000;stroke:none;stroke-width:0.1"
     inkscape:connector-curvature="0"
     id="path286"
     d="m 1897.5822,422.41761 c -3.1883,4.13341 -4.1728,8.11345 -2.2986,9.35342 0.4935,0.31052 2.0292,-1.35733 3.2776,-3.6314 l 2.3906,-4.25032 0.1643,6.40492 c 0.1259,3.50345 0.062,6.50277 -0.1397,6.59851 -0.2042,0.19572 -2.7973,-0.15927 -5.7839,-0.82268 -7.8686,-1.567 -39.2827,-1.23224 -61.5307,0.79702 -10.421,0.87949 -30.2525,2.15977 -44.0664,2.66732 -13.7138,0.50966 -42.3519,2.00347 -63.581,3.15412 -21.2292,1.15064 -49.5567,2.15092 -63.06,2.16493 -40.3122,0.14626 -103.8509,1.30083 -115.0717,2.16338 -19.8358,1.48023 -22.8372,1.51667 -19.7125,0.38259 2.6206,-0.94471 3.667,-3.12303 1.9907,-4.25879 -1.3807,-0.92945 -9.0298,1.30905 -9.6614,2.79601 -1.5823,3.86735 6.4206,8.53789 12.1511,7.15895 1.4081,-0.37026 41.1141,-0.22929 88.112,0.36621 83.1962,1.06225 86.9974,1.04276 140.5595,-1.32338 61.973,-2.7881 56.9656,-2.49408 92.3552,-6.34543 24.7643,-2.77614 45.3893,-3.73953 46.8593,-2.30808 1.0744,1.22303 2.4238,55.5638 2.054,82.462 -0.5709,36.39607 -5.6718,220.52934 -6.1802,220.91866 -0.2042,0.19572 -5.0201,0.89388 -10.8378,1.67084 -8.1236,1.02818 -12.7247,1.03073 -20.0082,0.17628 -16.6603,-2.0533 -96.2276,-4.439 -122.9491,-3.70477 -56.5446,1.50278 -63.6599,2.15223 -135.2875,12.13746 -27.287,3.82295 -57.9776,7.77383 -68.1007,8.75966 -16.9386,1.64162 -18.4383,1.60985 -19.3063,0.0911 -0.4808,-0.91039 -2.1656,-1.64624 -3.7653,-1.68012 -3.6991,-0.0784 -3.6161,0.72357 -0.555,-21.01647 3.5458,-25.73068 5.9642,-50.18494 7.6612,-78.35532 7.4315,-124.17046 7.8492,-139.16498 4.8756,-182.93777 -0.8308,-12.72045 -1.4871,-24.23693 -1.4532,-25.83657 0.042,-1.99956 -0.4427,-2.70999 -1.8424,-2.73964 -2.7993,-0.0593 -3.0671,3.13575 -2.629,24.94992 0.7749,29.52303 -0.1387,63.21124 -2.3551,87.56976 -1.7127,19.46809 -4.9051,71.01204 -7.6336,124.2662 -1.7965,32.86932 -5.0304,72.20966 -6.2598,73.58393 -1.5399,1.8678 -0.3118,9.99564 1.7708,10.83993 0.9934,0.32112 2.0995,0.0445 2.8184,-0.84049 0.9252,-1.18067 4.1351,-1.61279 15.0411,-1.78185 18.3108,-0.31226 34.3411,-1.57304 98.5898,-7.91373 29.4696,-2.97653 59.0329,-5.65101 65.6441,-6.11109 31.448,-1.9344 124.3992,-3.3661 164.5902,-2.51471 12.6971,0.26898 21.9057,-0.0361 26.5237,-0.83844 3.9161,-0.71722 9.134,-1.50689 11.7418,-1.85173 4.3118,-0.5088 4.7075,-0.30037 4.9629,1.80551 0.1682,1.5039 0.9511,2.32067 2.2508,2.3482 2.5994,0.0551 3.9029,-4.81842 3.9169,-14.92039 0.093,-4.39902 1.242,-25.57943 2.695,-46.95346 2.1456,-30.46139 2.9411,-53.84978 3.9764,-107.43988 0.6984,-37.69366 1.0377,-72.5943 0.7415,-77.50168 -0.7693,-15.61979 -5.0105,-79.82402 -5.5875,-85.63754 -0.5024,-4.61168 -0.8833,-5.51995 -2.7765,-5.86012 -1.5954,-0.23384 -3.0163,0.73628 -5.2814,3.78899 z" />
  <path
     style="fill:#000000;stroke:none;stroke-width:0.09909279"
     inkscape:connector-curvature="0"
     id="path288"
     d="m 590.53903,441.97382 c -0.29864,0.9864 -0.29864,3.55105 0.0996,5.6225 0.59728,3.15649 0.49773,3.55105 -0.69683,2.56464 -2.68778,-2.17008 -51.46597,-3.74833 -76.55189,-2.466 -12.34387,0.69048 -37.13115,1.18368 -55.24876,1.18368 -34.04518,0 -60.52477,1.38096 -99.04958,5.03066 -31.35741,2.95921 -97.75547,3.74833 -132.09929,1.4796 -13.23979,-0.88776 -30.56103,-1.57824 -38.52481,-1.57824 -12.44342,0 -14.53391,-0.19728 -14.53391,-1.47961 0,-1.18368 -0.99547,-1.4796 -4.18099,-1.38096 -2.38913,0.0986 -5.27601,-0.19728 -6.37103,-0.59185 -2.68777,-0.88776 -3.98189,1.97281 -2.09049,4.73474 1.09502,1.67689 1.09502,2.66329 -0.0995,6.31298 -1.19456,3.55105 -1.19456,4.83338 -0.19909,6.70754 1.49321,2.76193 0.89592,75.16394 -0.99547,110.08261 -0.89593,16.8675 -0.89593,28.50706 -0.0995,47.34736 0.69683,13.80965 1.59276,39.45614 2.09049,57.11275 0.49774,17.65662 1.19457,34.12956 1.49321,36.59557 0.39819,2.56465 0.0995,7.29938 -0.59728,10.65315 -0.89593,4.43882 -0.89593,6.41162 -0.0995,7.20075 1.79185,1.77552 3.7828,-0.69048 4.97737,-6.31298 1.6923,-7.79259 2.58823,-66.28631 1.29411,-87.09942 -0.69683,-12.52732 -0.69683,-31.5649 0,-65.10261 0.89593,-40.04798 0.79638,-51.88482 -0.49774,-76.93946 -0.89592,-16.27566 -1.59275,-32.84723 -1.59275,-36.79285 v -7.1021 l 7.1674,0.4932 c 3.9819,0.19728 14.63346,0.69048 23.69227,0.9864 9.0588,0.29593 23.39362,1.18369 31.85514,1.97281 42.7058,4.04425 92.7781,4.24154 148.3255,0.4932 21.30313,-1.4796 44.09946,-2.26873 76.1537,-2.56465 25.28502,-0.19728 54.95012,-0.9864 66.19896,-1.87416 11.24885,-0.78913 31.35741,-1.67689 44.7963,-2.07145 16.52485,-0.39456 24.68773,-0.9864 25.18547,-1.77553 1.19456,-1.4796 0,23.37776 -1.8914,40.3439 -0.79638,7.59531 -3.68325,29.0989 -6.37103,47.84056 -6.27148,44.28951 -7.76469,58.39508 -8.95926,89.86134 -0.59728,14.30285 -1.49321,36.89149 -1.99095,50.01065 -0.79637,16.96614 -0.69683,30.38122 0,45.67047 0.99548,18.34711 0.89593,39.25886 -0.19909,46.75552 -0.1991,1.38097 0.29864,2.07145 1.8914,2.26873 3.48415,0.4932 3.68325,-1.87417 5.27601,-45.67047 2.09049,-58.691 6.37102,-122.11673 11.94567,-177.5526 2.19005,-21.20767 4.38009,-45.57183 4.97737,-54.25218 1.29412,-20.41855 1.29412,-54.25219 0,-56.81683 -1.39366,-2.46601 -3.68325,-2.36737 -4.47963,0.0986 z" />
  <path
     style="fill:#000000;stroke:none;stroke-width:0.1"
     inkscape:connector-curvature="0"
     id="path290"
     d="m 1655.7424,558.38823 c -2.5712,0.7992 -2.2928,-0.18185 -8.589,28.61047 -4.3124,20.22234 -6.9418,29.343 -8.2377,29.24022 -0.9969,-0.0791 -5.1177,-8.83229 -7.7906,-16.86879 -5.4773,-15.68216 -8.2163,-15.29751 -14.2092,2.08306 -1.5679,4.59041 -3.1199,8.98144 -3.4822,9.75522 -0.2627,0.78168 -1.5462,-4.53646 -2.8789,-11.76445 -3.2305,-18.71401 -7.8517,-36.33456 -9.7427,-37.78862 -3.0397,-2.14707 -3.8276,0.19798 -2.3162,6.43702 0.7518,3.16936 2.7888,14.16484 4.5821,24.43879 4.0028,22.88815 5.5775,28.32968 8.8672,28.5906 2.8909,0.22929 3.5839,-0.91951 7.8066,-12.42165 1.9064,-5.06512 3.6974,-9.93878 4.0597,-10.71255 0.3623,-0.77378 1.7438,2.04427 3.29,6.58073 3.3439,9.69474 8.1182,17.79759 10.9775,18.42563 2.2612,0.5806 4.3845,-2.1601 8.1864,-10.88682 2.2213,-5.24077 8.0923,-26.14202 10.9777,-39.75649 0.9381,-4.2391 2.275,-8.44657 2.9601,-9.49569 1.5617,-1.98274 1.0014,-5.0366 -0.9006,-5.08713 -0.6978,-0.0554 -2.3244,0.21689 -3.5602,0.62045 z" />
  <path
     style="fill:#000000;stroke:none;stroke-width:0.1"
     inkscape:connector-curvature="0"
     id="path292"
     d="m 262.71197,560.69076 c -1.11001,1.52573 -2.46874,3.73568 -2.76666,5.11815 -0.39769,1.37545 -2.17386,6.66366 -4.03573,11.74534 -2.89891,8.41702 -8.57059,30.57311 -11.22251,44.01994 l -1.07088,5.23768 -4.26788,-7.71915 c -2.40507,-4.27967 -5.7444,-9.52743 -7.48503,-11.85556 -1.74766,-2.22838 -3.45314,-5.05527 -3.76076,-6.38018 -0.38628,-1.63119 -1.14212,-2.28595 -2.65247,-2.1919 -1.70985,0.08 -3.52383,3.05983 -9.73872,15.85457 -4.12407,8.73167 -7.81531,15.58913 -7.99372,15.27581 -0.27817,-0.32035 -0.4997,-8.5563 -0.51603,-18.28151 -0.0524,-17.7476 -2.05027,-43.45166 -3.86519,-48.99297 -0.97206,-3.27644 -3.56696,-4.8628 -4.89756,-3.05186 -0.44823,0.67014 -0.38933,2.67926 0.18942,4.42426 1.41458,4.10962 2.05317,16.38489 1.95092,36.32704 -0.01,20.04894 0.99955,39.86892 2.20494,41.2571 0.55634,0.6407 1.55386,0.711 2.70035,0.0901 2.39274,-1.23484 9.52079,-12.76224 15.50805,-25.17202 l 4.91373,-9.97924 3.23958,5.24072 c 1.80523,2.83393 5.24564,9.49228 7.69423,14.577 4.44762,9.43603 6.52266,11.28649 9.22738,8.46967 0.54095,-0.56336 2.43093,-6.04405 3.95003,-11.95187 5.26127,-19.17757 16.09977,-54.90398 17.84212,-58.28987 1.27304,-2.41648 1.45012,-3.50673 0.62968,-4.66728 -1.54815,-2.21432 -3.47157,-1.94888 -5.77729,0.89606 z" />
  <path
     style="fill:#000000;stroke:none;stroke-width:0.1"
     inkscape:connector-curvature="0"
     id="path294"
     d="m 1731.7839,582.37562 c -0.048,0.59812 0.2976,3.83554 0.8184,7.38784 0.5208,3.55229 1.067,9.31351 1.0814,12.92596 0.1141,3.62036 0.5035,7.56349 0.9071,8.79927 0.9432,3.28486 5.138,3.51725 7.4923,0.39362 2.0158,-2.64891 1.3843,-4.80559 -1.3626,-4.32126 -1.2199,0.20418 -1.894,-0.15023 -1.8229,-1.04741 0.1503,-1.89405 0.5411,-1.76274 7.1191,2.57092 7.9103,5.24185 12.6241,6.51855 14.3329,3.9456 1.4856,-2.2897 1.1106,-2.62039 -3.5953,-3.99678 -3.7248,-1.09794 -11.5987,-5.53439 -11.5276,-6.43157 0.024,-0.29906 1.3988,-1.19314 3.0728,-2.06351 2.8181,-1.38151 4.8623,-3.12534 10.0457,-9.034 1.2073,-1.30865 1.6091,-2.58086 1.1502,-3.11883 -1.2849,-1.50631 -4.5935,-0.26401 -6.3022,2.30894 -0.8085,1.34027 -3.8971,3.60315 -6.731,5.18404 -2.826,1.4812 -5.6756,3.26146 -6.4209,3.80423 -1.0759,0.91781 -1.5634,-0.52525 -2.3533,-7.008 -0.5493,-4.45739 -1.5131,-8.74702 -2.0559,-9.49227 -1.1694,-1.69778 -3.7375,-2.20241 -3.8482,-0.80679 z" />
  <path
     style="fill:#000000;stroke:none;stroke-width:0.1"
     inkscape:connector-curvature="0"
     id="path296"
     d="m 1828.7335,593.17485 c -1.1282,0.31177 -4.6884,0.93222 -7.834,1.38493 -6.4828,0.7899 -13.2945,4.46283 -16.557,8.91882 l -2.1392,2.94007 -0.3055,-3.73586 c -0.4734,-4.15041 -3.5496,-7.10288 -5.2267,-4.92868 -1.2389,1.7074 -1.3812,3.50176 -0.34,4.28654 0.375,0.33069 1.3341,3.41618 1.9703,6.777 0.9244,4.78808 1.6191,6.14726 3.2141,6.27376 1.1962,0.0949 2.3718,-0.81501 3.1123,-2.56194 3.6389,-7.93713 9.1468,-11.61315 19.3654,-12.70864 7.1806,-0.73456 10.2138,-2.29963 9.9209,-4.93102 -0.2406,-2.02537 -2.1869,-2.78162 -5.1806,-1.71498 z" />
  <path
     style="fill:#000000;stroke:none;stroke-width:0.1"
     inkscape:connector-curvature="0"
     id="path298"
     d="m 1773.8885,592.83741 c -1.4826,0.98587 -3.5901,3.52719 -4.6612,5.64914 -1.0712,2.12196 -2.31,3.82935 -2.8085,3.78982 -1.7943,-0.14232 -2.3385,2.92425 -0.5916,3.66469 0.8656,0.46991 2.1742,1.67716 2.8009,2.62969 2.5667,4.31645 13.0703,5.95205 18.5228,2.97383 5.345,-2.88643 2.5077,-6.32151 -3.5636,-4.39552 -4.2216,1.37051 -9.3293,1.26633 -10.1079,-0.30013 -0.2516,-0.62184 1.0948,-2.42101 3.2309,-4.05725 4.1882,-3.47974 6.0156,-7.54799 4.3952,-9.88343 -1.5286,-2.22783 -4.1363,-2.23403 -7.217,-0.0708 z" />
  <path
     style="fill:#000000;stroke:none;stroke-width:0.1"
     inkscape:connector-curvature="0"
     id="path300"
     d="m 530.89093,596.03208 c -5.27017,2.23502 -9.06382,6.27831 -12.69748,13.74132 l -2.69504,5.5242 -0.43814,-3.74006 c -0.52384,-3.94659 -3.17764,-7.54206 -5.05052,-6.57132 -0.62663,0.35682 -0.89644,1.34029 -0.56773,2.36594 0.23598,0.91886 1.10259,5.69159 1.75563,10.64977 1.04064,7.99294 2.15464,10.6779 4.24241,10.92529 0.79802,0.0562 2.78909,-4.01385 4.69313,-9.69404 1.91811,-5.8797 6.00133,-12.60929 9.39729,-15.27714 1.48793,-1.19836 5.09176,-2.54834 8.03379,-3.04273 4.65892,-0.67413 5.39234,-1.12368 5.53998,-3.21848 0.14764,-2.09481 -0.33003,-2.42922 -3.80028,-2.97454 -2.58654,-0.28254 -5.52155,0.1121 -8.41304,1.31179 z" />
  <path
     style="fill:#000000;stroke:none;stroke-width:0.1"
     inkscape:connector-curvature="0"
     id="path302"
     d="m 300.43,583.0979 c -0.39065,1.27569 -0.32777,7.49551 0.23388,13.75047 0.45486,6.34768 0.77615,14.59067 0.70147,18.49508 -0.19857,8.50709 0.99979,9.99502 7.93193,9.78184 9.23348,-0.15123 17.13409,-8.41624 16.76929,-17.46427 -0.22591,-5.32907 -2.82213,-8.31899 -7.5105,-8.64942 -3.59812,-0.15334 -5.89111,1.08853 -9.4993,5.34539 l -2.51225,2.93064 -0.94222,-9.38948 c -0.63898,-5.15768 -1.14306,-10.8071 -1.31577,-12.62374 -0.42408,-3.93956 -2.83353,-5.31235 -3.85653,-2.17651 z m 20.03504,22.96536 c 1.37107,3.30456 0.7963,5.77026 -2.34259,9.05772 -2.69769,2.71706 -8.09573,5.34406 -10.6893,5.16127 -1.79555,-0.12654 -0.80771,-2.76362 2.45202,-6.34331 1.84343,-1.97528 3.31597,-4.3777 3.38628,-5.37523 0.11248,-1.59604 3.73607,-4.64884 5.53162,-4.5223 0.39901,0.0281 1.13376,0.98214 1.66197,2.02185 z" />
  <path
     style="fill:#000000;stroke:none;stroke-width:0.1"
     inkscape:connector-curvature="0"
     id="path304"
     d="m 1713.2365,596.15228 c -3.0727,2.06351 -7.2672,8.15093 -7.5962,11.03395 -0.079,0.99686 -0.981,-0.27844 -1.9796,-2.8655 -1.8373,-4.65985 -4.502,-6.47623 -6.5463,-4.7324 -0.7532,0.64246 -0.7246,1.54755 0.2928,2.63139 0.7264,0.96043 2.1364,4.68358 3.048,8.36719 1.2155,4.91147 2.078,6.68522 3.4736,6.79591 2.2928,0.18185 3.4003,-1.1347 5.9238,-7.65559 3.0171,-7.68551 6.2449,-10.43892 11.8274,-9.99615 3.19,0.25301 4.7248,-0.12683 5.2105,-1.19176 1.2025,-2.51279 -0.03,-3.41307 -5.513,-3.84793 -3.8878,-0.30836 -6.1283,0.11581 -8.141,1.46089 z" />
  <path
     style="fill:#000000;stroke:none;stroke-width:0.1"
     inkscape:connector-curvature="0"
     id="path306"
     d="m 1669.3523,595.48043 c -0.8766,0.93361 -2.1519,1.8356 -2.6662,1.99544 -1.6503,0.57131 -4.9727,10.84077 -4.2731,13.4041 0.4035,1.23578 2.1553,3.18037 4.0778,4.23568 3.1632,1.85591 3.6616,1.89545 8.8722,0.70369 5.932,-1.43547 12.1329,-6.26029 12.4097,-9.74933 0.1976,-2.49218 -3.0384,-5.95889 -6.4642,-7.03312 -1.4716,-0.41766 -3.5698,-1.78785 -4.5873,-2.87169 -2.4939,-2.70565 -5.0857,-2.91122 -7.3689,-0.68477 z m 11.621,9.04715 c 1.4242,1.01578 1.6758,1.63762 0.6995,2.56333 -1.7452,1.76755 -11.4162,4.81243 -12.9637,4.08781 -1.3561,-0.60913 -1.562,-4.33708 -0.3596,-6.84988 0.8322,-1.63933 9.9433,-1.41826 12.6238,0.19874 z" />
  <path
     style="fill:#000000;stroke:none;stroke-width:0.1"
     inkscape:connector-curvature="0"
     id="path308"
     d="m 378.7635,595.33529 c -1.50902,1.49761 -2.14839,3.45751 -2.44367,7.64712 -0.33745,4.78812 0.0559,6.31956 2.58178,10.30701 3.51774,5.56107 3.44743,6.5586 -0.0272,8.92016 -3.47462,2.36157 -6.08225,2.37828 -4.90897,-0.0452 2.20464,-4.25553 2.23143,-6.05811 0.0369,-6.21278 -2.19456,-0.15466 -5.45999,4.92834 -5.72715,8.71894 -0.35151,4.98763 10.03681,5.51928 15.18349,0.76935 3.97205,-3.72998 4.27436,-8.01934 0.75662,-13.58041 -2.4332,-3.88066 -2.50483,-4.2867 -0.76686,-4.7657 3.56868,-0.85122 6.16834,-9.28933 3.75756,-12.06569 -1.76172,-2.02887 -6.18599,-1.83944 -8.44249,0.30723 z m 4.09649,7.30607 c -0.90347,1.44005 -1.62283,1.69009 -2.27189,0.94261 -0.74177,-0.85426 -0.36518,-1.93045 1.07221,-3.8341 1.65095,-2.08911 2.07105,-2.36024 2.27189,-0.94262 0.13623,0.91184 -0.38933,2.67926 -1.07221,3.83411 z" />
  <path
     style="fill:#000000;stroke:none;stroke-width:0.1"
     inkscape:connector-curvature="0"
     id="path310"
     d="m 467.97041,601.22139 c -0.86832,0.94129 -3.41572,4.37068 -5.4503,7.63572 -2.14136,3.35777 -4.43301,6.0032 -5.13128,5.95399 -0.69827,-0.0492 -2.03286,-2.44898 -3.04007,-5.22666 -1.6576,-4.92873 -3.45447,-6.45884 -5.0127,-4.26296 -0.9962,1.33327 2.57739,13.2139 4.23101,13.93193 0.86965,0.46228 1.09157,1.58065 0.43111,3.83981 -0.57477,2.46569 -0.43854,3.37752 0.92285,3.97471 2.42351,1.17329 7.76265,-3.46283 7.6954,-6.77575 -10e-4,-1.40357 2.23845,-6.15787 4.85616,-10.58479 4.31787,-7.21429 5.10621,-9.86542 2.91165,-10.02009 -0.39901,-0.0281 -1.55253,0.69256 -2.41383,1.53409 z" />
  <path
     style="fill:#000000;stroke:none;stroke-width:0.1"
     inkscape:connector-curvature="0"
     id="path312"
     d="m 483.49666,602.81689 c -6.14286,6.08319 -7.89224,9.56882 -7.88693,15.18309 -0.0114,3.00664 0.56867,6.15521 1.11094,6.99541 1.64088,2.3211 5.26143,3.57875 8.60247,3.11249 5.66348,-0.70358 17.13143,-11.22338 15.53977,-14.24275 -1.14915,-2.1862 -3.83411,-1.0722 -7.92701,2.95001 -4.52707,4.49284 -9.73967,7.33341 -11.2654,6.2234 -2.09614,-1.5512 -0.55462,-6.35472 3.076,-9.50727 4.05775,-3.52345 5.97016,-7.89983 4.6426,-10.39934 -1.32757,-2.49952 -3.52212,-2.65419 -5.89244,-0.31504 z" />
  <path
     style="fill:#000000;stroke:none;stroke-width:0.1"
     inkscape:connector-curvature="0"
     id="path314"
     d="m 438.98858,602.78775 c -1.44574,0.59984 -3.82309,3.03874 -5.38835,5.33438 l -2.81018,4.31311 -0.21755,-4.02526 c -0.10944,-2.71441 -0.70928,-4.16016 -1.89225,-4.44402 -1.57495,-0.41175 -1.8307,0.37221 -2.15277,6.3644 -0.48244,9.69006 0.10467,12.73888 2.57037,13.31364 1.8742,0.43284 2.64981,-0.61523 5.46569,-6.43165 3.07163,-6.60039 6.85824,-10.54394 9.75107,-10.34006 1.89529,0.13358 2.05566,-3.56429 0.10982,-4.40317 -2.03856,-0.94566 -2.43757,-0.97378 -5.43585,0.31863 z" />
  <path
     style="fill:#000000;stroke:none;stroke-width:0.1"
     inkscape:connector-curvature="0"
     id="path316"
     d="m 403.30794,602.67901 c -3.0967,2.68895 -6.42408,10.07329 -6.88238,15.15365 -0.54969,6.37713 1.88218,8.85423 8.86486,9.34635 7.88045,0.5554 19.26099,-4.45692 19.54923,-8.54677 0.22497,-3.19208 -2.18315,-3.16131 -8.01535,-0.0637 -5.83221,3.09764 -11.13183,4.3281 -13.94732,3.02694 -1.35435,-0.69694 -1.33326,-0.9962 0.76022,-2.25212 5.1269,-3.04711 9.32565,-15.68319 5.73323,-17.33984 -2.52326,-1.18032 -4.1404,-0.99355 -6.06249,0.67545 z m 2.11551,6.96597 c -0.0563,0.79802 -0.50447,1.46816 -1.10298,1.42598 -0.49877,-0.0352 -0.64906,-0.74748 -0.29356,-1.52441 0.45525,-0.7699 0.90348,-1.44004 1.10298,-1.42598 0.19951,0.0141 0.3498,0.72639 0.29356,1.52441 z" />
  <path
     style="fill:#000000;stroke:none;stroke-width:0.1"
     inkscape:connector-curvature="0"
     id="path318"
     d="m 276.14279,599.1301 c -3.3762,0.96503 -6.8398,7.43754 -7.27569,13.6222 -0.42885,6.08491 0.96332,9.09022 5.47593,11.91446 6.53711,3.9694 21.58303,2.42335 21.91346,-2.26502 0.13357,-1.8953 -0.25138,-2.12292 -3.08663,-1.72126 -1.81664,0.17271 -6.14818,0.46893 -9.46111,0.53618 -5.42882,0.21888 -6.41228,-0.0509 -8.174,-2.0798 -1.01995,-1.17462 -1.8839,-3.14022 -1.80656,-4.2375 0.11951,-1.69579 0.63234,-1.86014 2.59224,-1.22077 7.83959,2.55747 12.38509,-5.04177 7.14914,-11.82666 -2.21127,-2.76229 -4.45637,-3.62226 -7.32678,-2.72183 z m 4.14571,6.60781 c 1.92037,4.04501 -0.92761,6.04975 -4.42161,2.99656 -1.51871,-1.20977 -1.49762,-1.50902 0.0466,-3.5054 2.1919,-2.65247 3.08967,-2.5892 4.37505,0.50884 z" />
  <path
     style="fill:#800080;stroke:none;stroke-width:0.10666327"
     inkscape:connector-curvature="0"
     id="path320"
     d="m 1473.8403,650.92592 c -5.5909,4.27329 -16.2138,12.71814 -23.482,18.61937 -31.1975,25.53803 -70.8933,53.72145 -117.0746,83.3293 -56.0214,35.91604 -96.0526,64.50644 -125.7965,89.94273 -9.9519,8.5466 -20.1274,16.17749 -20.7983,15.56701 -0.2237,-0.10174 1.1182,-5.49424 2.9073,-11.90418 3.5782,-12.31117 4.0255,-17.19494 2.2364,-20.45078 -2.4601,-4.06981 -7.7156,-1.22094 -6.1501,3.25584 0.4473,1.01746 -0.8945,8.85183 -2.7955,17.29668 -3.9136,17.29668 -4.0255,21.56998 -0.4472,22.07871 1.23,0.20349 3.1309,-0.61047 4.3609,-1.83142 3.1309,-3.1541 8.8337,-2.54363 27.9548,3.05236 18.8974,5.49424 29.0729,6.71518 30.4148,3.45934 1.3418,-3.3576 -1.1182,-4.88377 -8.1628,-4.98552 -3.9137,-0.10174 -12.3001,-1.62792 -20.7984,-3.86631 -7.8273,-2.03491 -14.9837,-3.76458 -15.8783,-3.76458 -0.8945,0 -1.9009,-0.40698 -2.2364,-0.81396 -0.5591,-0.9157 16.7729,-12.71815 38.4658,-26.14851 20.1274,-12.51466 38.913,-24.92757 63.7369,-42.22425 12.6355,-8.75008 31.9802,-22.0787 43.0503,-29.70959 32.3157,-22.28219 58.9287,-42.42774 87.778,-66.74484 24.3766,-20.45078 56.0214,-49.14292 55.5741,-50.36386 -0.7827,-2.34014 -2.7955,-1.42443 -12.8592,6.20646 z" />
  <path
     style="fill:#800080;stroke:none;stroke-width:0.09799007"
     inkscape:connector-curvature="0"
     id="path322"
     d="m 624.92337,639.87832 c -0.92477,0.83065 -1.66459,2.59579 -1.75707,3.9456 0,4.04943 4.99377,35.40651 6.38094,39.04061 1.38715,3.84177 3.51414,5.19158 5.45616,3.32261 1.47963,-1.45364 1.84955,-4.77624 0.55486,-5.39923 -0.8323,-0.3115 -5.91855,-25.7502 -5.2712,-26.47702 0.18495,-0.31149 4.71634,2.69961 9.98754,6.64522 5.27121,3.84175 19.51272,12.77126 31.71973,19.8318 22.3795,12.77126 22.84189,13.08276 57.79832,41.53256 4.34643,3.42644 12.20701,9.24101 17.57068,12.87511 8.32296,5.50307 66.21376,48.07395 92.01493,67.59425 4.62387,3.53028 12.94683,10.38315 18.49547,15.26322 5.64111,4.98391 13.96408,11.73296 18.49547,15.05557 5.73359,4.15326 12.85434,11.10996 22.93437,22.21992 7.95304,8.9295 14.88885,16.30153 15.35123,16.50919 2.12698,0.83065 1.84955,-2.28428 -0.46238,-5.81455 -9.43269,-14.01724 -24.04411,-30.42261 -34.58652,-38.93679 -4.34644,-3.42643 -11.55966,-9.76015 -16.18353,-14.12107 -12.29948,-11.73296 -12.94683,-12.25211 -48.08821,-38.62529 -17.75564,-13.29043 -35.32633,-26.68468 -39.02542,-29.69579 -3.60662,-3.01112 -12.48444,-9.44866 -19.6052,-14.22491 -7.12074,-4.88007 -18.21803,-13.08276 -24.78392,-18.37817 -28.9454,-23.46589 -31.53476,-25.23103 -65.56641,-44.43984 -29.96265,-16.92453 -38.748,-22.73909 -37.17589,-24.50423 0.27744,-0.41532 3.97653,0.41533 8.23049,1.55747 4.25396,1.24598 12.57691,2.90728 18.40299,3.63411 10.44993,1.45364 11.92957,1.14215 12.02204,-1.86897 0,-1.45363 -6.28845,-3.84175 -10.35746,-3.84175 -2.21945,0 -7.95304,-0.72683 -12.76186,-1.55748 -14.79638,-2.69962 -17.84813,-2.80345 -19.79015,-1.14215 z" />
  <path
     style="fill:#000000;stroke:none;stroke-width:0.10485439"
     inkscape:connector-curvature="0"
     id="path324"
     d="m 161.18791,749.59717 c -0.85859,1.02538 -1.51702,2.04223 -1.50299,2.37124 0.0608,1.42567 6.41199,2.25364 22.67498,2.76905 9.93512,0.23578 29.44714,1.71137 43.24105,3.10107 32.52873,3.44776 50.31148,4.33785 112.52405,5.64159 28.19952,0.66588 56.20358,1.44995 62.23124,1.74239 6.12774,0.28817 29.06746,-0.14017 51.08318,-1.07846 22.01573,-0.93829 47.25709,-1.46474 56.08674,-1.29171 14.35229,0.37711 17.44983,0.13523 30.47506,-2.39748 7.94963,-1.65719 16.39028,-3.55505 18.76861,-4.20574 2.96942,-0.89561 4.7754,-0.86272 5.50861,-0.12491 1.67592,1.68642 5.66008,1.07717 6.27646,-0.9267 0.61637,-2.00385 -0.9408,-3.25588 -5.80965,-4.58649 -2.53451,-0.66105 -7.91967,0.008 -20.94022,2.65031 -17.20019,3.36984 -17.69587,3.50083 -32.0762,2.46572 -22.8284,-1.66386 -44.90021,-2.04156 -66.71578,-1.1118 -11.00786,0.46914 -29.25357,0.47769 -40.59904,0.0823 -11.34547,-0.39539 -49.47077,-1.07771 -84.7707,-1.33111 -39.31681,-0.41181 -74.33989,-1.22634 -90.32603,-2.30288 -14.37566,-0.92544 -34.06444,-1.84418 -43.69,-1.8734 -9.62555,-0.0293 -18.26441,-0.43013 -19.17908,-0.72073 -1.01941,-0.39603 -2.30164,0.0981 -3.26029,1.12774 z" />
  <path
     style="fill:#800080;stroke:none;stroke-width:0.10433051"
     inkscape:connector-curvature="0"
     id="path326"
     d="m 1038.1043,797.05699 c -5.4424,4 -9.9052,20.5 -12.8441,47.5 -2.5035,23.7 1.5239,62.5 8.3814,81.8 3.592,9.9 11.5379,14.7 18.7219,11.3 7.2929,-3.5 15.2388,-14.9 12.7353,-18.5 -1.415,-2.1 -3.7009,-1 -4.8982,2.3 -1.0885,3.3 -10.776,12.6 -12.953,12.6 -1.7415,0 -4.6805,-3.3 -6.7486,-7.5 -5.007,-10.7 -9.361,-52.4 -8.2725,-78.9 0.6531,-16 3.0478,-34.8 5.2248,-40.6 1.415,-4.1 4.6804,-7 7.8371,-7 4.6804,0 14.4768,9.4 13.0618,12.6 -0.3266,0.9 0.2177,1.4 1.6327,1.4 6.4221,0 1.5239,-11 -7.184,-16.1 -5.8778,-3.4 -10.776,-3.7 -14.6946,-0.9 z" />
  <path
     style="fill:#800080;stroke:none;stroke-width:0.10143446"
     inkscape:connector-curvature="0"
     id="path328"
     d="m 998.59232,799.00505 c -3.1566,1.03978 -5.87782,4.63174 -10.66715,13.89523 -5.33362,10.30326 -7.29289,20.03938 -7.94598,40.17328 -1.08849,28.73572 2.39467,49.62583 12.40877,74.29695 2.61236,6.42772 11.42914,9.73611 17.85114,6.80583 2.6124,-1.22883 6.7486,-8.22371 5.9867,-10.01969 -0.6531,-1.41788 -3.9186,-1.79599 -3.9186,-0.47263 0,0.47263 -1.3061,2.17408 -2.83,3.78101 -3.1566,3.30839 -6.8575,3.78102 -9.361,1.22883 -1.74157,-1.70145 -6.63976,-15.59668 -8.59903,-24.10397 -3.8097,-17.20362 -5.55131,-60.87434 -3.15661,-75.52577 1.19733,-7.37298 7.8371,-22.49704 10.88485,-24.86018 1.95929,-1.5124 2.39469,-1.5124 7.29289,-0.0945 3.4831,1.03978 6.5309,2.83576 9.2521,5.48247 2.9389,3.02481 4.3539,3.78101 5.2247,3.02481 1.5239,-1.32335 -0.6531,-5.48247 -4.5716,-8.60181 -1.9593,-1.60693 -14.5857,-6.42772 -15.4565,-5.86057 -0.1089,0 -1.19734,0.3781 -2.39468,0.85073 z" />
  <path
     style="fill:#800080;stroke:none;stroke-width:0.10692155"
     inkscape:connector-curvature="0"
     id="path330"
     d="m 1081.5349,800.71882 c -3.9185,2.10057 -8.8167,12.39338 -10.3406,21.53087 -1.8504,10.81795 -3.592,42.32654 -2.8301,50.09866 3.0478,33.29408 6.4221,48.31318 12.6265,57.5557 4.4628,6.72183 5.8778,7.77212 10.2317,7.77212 4.2451,0 12.5176,-11.55315 10.9937,-15.33418 -1.1973,-2.94081 -3.8097,-1.36538 -6.8574,3.99108 -1.6327,3.04584 -3.7009,5.56652 -4.5717,5.56652 -2.2858,0 -7.4017,-8.71737 -9.3609,-15.85932 -5.0071,-19.22024 -7.5106,-64.69765 -5.0071,-90.32464 1.0885,-10.71292 4.8982,-19.74538 8.9256,-20.9007 2.9389,-0.94525 7.2929,2.94081 10.6672,9.45258 2.83,5.46149 4.0274,6.40675 6.0955,4.72629 1.1973,-0.94526 0.9796,-2.2056 -1.7416,-7.24698 -5.6601,-10.71292 -12.191,-14.59898 -18.8308,-11.028 z" />
  <path
     style="fill:#800080;stroke:none;stroke-width:0.11060429"
     inkscape:connector-curvature="0"
     id="path332"
     d="m 1129.5371,800.8483 c -0.4354,0.33717 -0.7619,1.68583 -0.7619,2.80971 0,1.34866 -0.7619,2.02299 -2.5035,2.02299 -4.6805,0 -11.538,6.29375 -14.4769,13.14944 -5.6601,13.14943 -6.422,18.99363 -6.3132,47.54027 0.2177,28.8838 1.1973,38.77398 5.4424,51.92341 3.3743,10.6769 6.4221,15.39721 11.538,18.20692 3.4831,2.02299 4.3539,2.02299 8.3813,0.78671 7.184,-2.13537 12.6264,-8.6539 15.3477,-18.3193 4.0274,-13.82376 4.7893,-21.80334 4.7893,-52.0358 0,-39.33592 -2.177,-50.46237 -11.4291,-57.99239 -2.3947,-1.9106 -4.5716,-4.72031 -4.8982,-6.18136 -0.6531,-2.58493 -3.4831,-3.59642 -5.1159,-1.9106 z m 3.592,11.576 c 1.1974,1.23627 2.177,3.03449 2.177,4.04598 0,1.34866 0.6531,1.68583 2.2858,1.23627 2.9389,-0.78671 4.0274,2.24777 5.9867,17.19542 1.6327,13.26183 1.8504,38.32443 0.4354,60.12777 -1.415,23.03961 -5.2247,32.25545 -14.9123,36.86337 -3.4831,1.57344 -7.0751,-2.02299 -10.4494,-10.90167 -4.0274,-10.33972 -6.0955,-25.73693 -6.8575,-51.81102 -1.0885,-34.16606 1.8504,-49.00132 10.6672,-55.74462 5.2247,-3.82121 7.7282,-4.04598 10.6671,-1.0115 z" />
  <path
     style="fill:#800080;stroke:none;stroke-width:0.10433051"
     inkscape:connector-curvature="0"
     id="path334"
     d="m 951.18624,798.42822 c -6.2044,3.2 -8.27252,9.7 -10.66719,34.2 -3.26546,32.8 0,66.7 8.70792,89.3 2.06812,5.4 10.01406,14.9 13.93261,16.8 5.76898,2.8 11.32025,0.1 15.4565,-7.3 1.63273,-3 1.63273,-3.3 -0.32655,-4.2 -1.74157,-0.9 -2.50351,-0.5 -4.57164,2.4 -1.41503,1.9 -3.70085,3.9 -5.00703,4.4 -2.28582,1 -3.04776,0.5 -7.4017,-4.7 -6.63976,-7.7 -10.77601,-21.6 -13.71495,-45.2 -2.50352,-20.7 -1.08849,-66.7 2.3947,-76.7 2.39467,-6.8 12.51758,-7.5 20.02813,-1.4 4.35394,3.4 5.76898,3.8 6.63976,1.6 0.76194,-1.7 -5.98667,-7.5 -10.776,-9.2 -4.57164,-1.6 -11.53795,-1.5 -14.69456,0 z" />
  <path
     style="fill:#800080;stroke:none;stroke-width:0.1"
     inkscape:connector-curvature="0"
     id="path336"
     d="m 1241.5542,998.21221 c -0.667,0.63655 -1.9619,3.52159 -3.0378,6.22759 -3.2181,9.0235 -6.6311,8.9821 -5.7314,0.027 0.4798,-4.77604 0.3408,-5.39304 -1.4502,-5.57294 -1.4924,-0.15 -2.7169,1.0336 -4.5493,4.26664 -1.3543,2.477 -3.0172,5.0235 -3.6942,5.7596 -2.1104,1.999 -2.716,-0.9764 -1.4797,-6.2794 1.0668,-4.61654 0.9873,-4.82553 -1.3411,-4.65746 -1.811,0.0191 -2.8065,0.92412 -3.7629,3.44116 -1.3448,3.3825 -8.363,10.2151 -10.2535,10.0252 -0.597,-0.06 -0.3276,-1.7415 0.9273,-4.2285 2.5398,-5.2725 2.0342,-9.24298 -1.3583,-10.48835 -1.6515,-0.56793 -3.0745,-0.40939 -4.4879,0.65465 -2.7074,1.93906 -5.1382,8.1271 -4.5826,11.6001 0.1586,1.4229 -0.051,2.5074 -0.6479,2.4474 -1.2935,-0.1299 -2.6246,-4.8868 -2.4833,-9.2948 0.071,-2.70644 -0.3466,-3.55244 -1.8391,-3.70239 -1.393,-0.13995 -2.2889,0.77505 -3.1358,3.20259 -3.0687,8.536 -5.28,13.54 -6.076,13.4601 -0.398,-0.04 -1.203,-2.0305 -1.5601,-4.4784 -1.0027,-5.0254 -2.1162,-6.9464 -4.0067,-7.1363 -1.791,-0.1799 -1.891,0.815 -0.3127,9.1144 2.0648,10.4588 6.3328,11.9931 10.7645,3.8956 1.0159,-2.109 1.8719,-2.6261 3.0159,-2.0086 2.7655,1.4839 6.805,2.2917 8.6659,1.7752 1.035,-0.2981 3.7615,-0.4261 6.06,-0.2957 3.1939,0.2204 5.0649,-0.3957 7.4638,-2.2653 3.0559,-2.4065 3.3544,-2.3765 5.2939,-0.6741 2.8745,2.3993 4.974,2.5098 7.4029,0.3417 1.9909,-1.81 1.9909,-1.81 3.2735,0.4294 1.014,1.9109 1.989,2.2099 5.611,2.1718 3.5125,0.051 4.6765,0.4698 5.9095,2.2018 1.8596,2.4984 6.7936,5.4062 9.9776,5.726 3.5819,0.3599 10.5287,-2.7613 12.7291,-5.6558 2.6784,-3.6506 2.9687,-7.541 0.6112,-9.0844 -2.069,-1.4139 -2.1885,-1.2249 -3.8028,3.839 -1.7238,5.1535 -11.4162,6.5919 -14.9068,2.3215 -2.148,-2.6279 -2.0976,-4.1303 0.7012,-9.9799 1.7928,-3.84 2.0023,-4.9245 1.0378,-6.32794 -1.4021,-2.05045 -3.2826,-2.33988 -4.945,-0.79835 z m -38.3418,6.49979 c -0.488,0.8555 -1.0454,1.4025 -1.2145,1.084 -0.2685,-0.3285 -0.1685,-1.3235 0.3195,-2.179 0.4879,-0.8555 1.0454,-1.4025 1.2144,-1.084 0.2685,0.3285 0.1686,1.3235 -0.3194,2.179 z" />
  <path
     style="fill:#800080;stroke:none;stroke-width:0.1"
     inkscape:connector-curvature="0"
     id="path338"
     d="m 891.26556,967.54207 c -1.69195,0.83505 -3.88186,2.6251 -4.8278,4.03761 -0.83644,1.32302 -2.35938,2.47655 -3.38436,2.67509 -1.63197,0.23805 -2.06089,2.50654 -4.74668,22.23688 -3.12517,23.10335 -3.00661,24.92435 1.07285,25.33415 2.48748,0.2499 5.13629,-4.1071 3.70425,-5.859 -1.16353,-1.4235 -0.11204,-15.8908 1.18145,-15.7609 0.89549,0.09 12.76982,13.9464 15.65343,18.2563 3.12213,4.9368 5.68864,6.4007 7.77906,4.6007 2.17991,-1.6906 2.62929,-5.1631 0.7388,-5.353 -0.79599,-0.08 -3.79956,-3.1958 -6.65364,-6.7992 -2.8441,-3.7028 -7.53822,-8.9986 -10.48227,-11.70654 l -5.42061,-5.06724 3.95184,-3.32159 c 8.23216,-6.9117 12.88468,-19.2082 8.71711,-22.74252 -2.68554,-2.27988 -3.38204,-2.34985 -7.28343,-0.53074 z m 2.48283,10.29979 c -1.4639,2.56651 -4.11225,5.91856 -5.95368,7.24111 l -3.27487,2.58558 1.14633,-4.40749 c 1.4553,-5.48198 3.72565,-9.07301 6.81105,-10.77309 3.73238,-2.1376 4.21895,0.0218 1.27117,5.35389 z" />
  <path
     style="fill:#800080;stroke:none;stroke-width:0.1"
     inkscape:connector-curvature="0"
     id="path340"
     d="m 1155.0553,998.86866 c -4.7088,4.85364 -6.5739,14.41504 -4.1592,21.39144 1.1526,3.5329 5.4401,5.8732 8.386,4.5611 2.1895,-0.785 2.1795,-0.6855 1.3098,7.9709 -1.5395,15.3228 0.1088,22.9257 4.7657,22.5895 3.3435,-0.2671 5.7542,-6.2561 6.3854,-15.5395 0.3917,-7.9004 0.2132,-9.1244 -2.2624,-13.4937 -3.0622,-5.5339 -3.1208,-7.9518 0.017,-15.1743 1.9724,-4.6261 2.0423,-5.3225 0.7698,-7.6615 -1.5111,-2.9659 -6.7932,-6.4112 -10.3751,-6.77108 -1.592,-0.15994 -3.483,0.65511 -4.8369,2.12714 z m 6.2271,4.04274 c -0.4385,1.363 -0.1405,2.398 1.1826,3.2345 1.6015,1.0654 1.621,1.8714 0.6741,5.2939 -1.7942,6.8549 -6.612,10.7931 -7.4557,6.1856 -1.5187,-7.8913 0.3655,-15.6418 3.8384,-16.1974 0.9255,-0.2085 1.9405,-0.3075 2.1495,-0.3871 0.199,0.02 0.019,0.806 -0.3889,1.8705 z" />
  <path
     style="fill:#800080;stroke:none;stroke-width:0.1"
     inkscape:connector-curvature="0"
     id="path342"
     d="m 1059.7038,992.6055 c -2.4289,2.16805 -4.5807,7.5801 -4.0446,10.247 0.288,1.1345 2.3561,4.5584 4.7527,7.7138 4.2661,5.5543 4.6232,8.0022 1.4188,8.8863 -0.9255,0.2086 -1.383,-0.2394 -1.2531,-1.5329 0.13,-1.2935 -0.4965,-2.06 -1.79,-2.1899 -1.0945,-0.11 -2.05,0.397 -2.13,1.193 -0.08,0.796 -0.5084,2.0595 -0.8868,2.8255 -0.3985,0.965 0.178,2.229 1.67,3.3839 2.1386,1.7224 2.8251,1.8919 5.6315,0.9678 2.9954,-0.8046 6.4503,-5.1811 6.7701,-8.3651 0.07,-0.6965 -2.1276,-3.8319 -4.8226,-7.0172 -5.4797,-6.4803 -5.9163,-9.13724 -2.1035,-13.07585 3.5939,-3.75957 0.7593,-6.55694 -3.2125,-3.03635 z" />
  <path
     style="fill:#800080;stroke:none;stroke-width:0.1"
     inkscape:connector-curvature="0"
     id="path344"
     d="m 1084.7648,1001.2541 c -1.244,0.3775 -3.2549,2.3866 -4.4698,4.4756 -1.3444,2.3775 -2.8974,3.8295 -3.8924,3.7296 -2.7859,-0.2799 -3.4738,2.5655 -0.8973,3.9299 1.4425,0.6475 2.2875,2.2399 2.4956,4.1704 0.4061,3.9604 5.0612,7.6442 10.3347,8.174 5.5719,0.5598 12.5882,-2.2529 16.451,-6.6889 3.7333,-4.1476 4.2318,-6.1076 1.9337,-7.243 -1.0545,-0.508 -2.7464,0.3271 -5.5238,2.9626 -6.5302,5.9772 -13.944,7.7449 -16.9771,3.9226 -2.1481,-2.6279 -1.3607,-5.4634 2.2027,-7.9195 3.4438,-2.2671 4.6697,-6.4656 2.7006,-8.8745 -1.253,-1.5329 -1.3525,-1.5429 -4.3579,-0.6388 z" />
  <path
     style="fill:#800080;stroke:none;stroke-width:0.1"
     inkscape:connector-curvature="0"
     id="path346"
     d="m 1037.6812,997.72969 c -0.5674,0.64651 -2.1608,3.50161 -3.4357,6.18761 -1.2849,2.7855 -2.7188,5.0535 -3.0173,5.0235 -0.398,-0.04 -0.7556,-1.4829 -0.9736,-3.3139 -0.4061,-3.9605 -1.7087,-6.00094 -4.0967,-6.24084 -1.8905,-0.1899 -5.2253,2.99264 -5.4452,5.18164 -0.17,1.6915 3.5115,2.0614 4.1689,0.5194 0.3685,-0.6665 0.8451,1.5924 1.2017,5.0454 0.9304,10.7468 4.2034,12.1812 8.7545,3.8946 2.6888,-4.755 2.7983,-4.8445 3.4539,-2.3666 0.8046,2.9955 2.0876,4.2299 5.1721,4.5398 3.0845,0.3099 4.2599,-2.3861 1.9423,-4.3275 -1.293,-1.135 -1.9786,-3.3144 -2.0167,-6.9364 -0.2852,-7.1644 -2.5923,-10.21028 -5.7082,-7.20671 z" />
  <path
     style="fill:#800080;stroke:none;stroke-width:0.1"
     inkscape:connector-curvature="0"
     id="path348"
     d="m 952.50864,992.18767 c -3.01682,4.01855 -2.85967,8.45653 0.64046,13.63233 3.41063,5.0663 3.29067,6.2603 -0.68023,7.7709 -3.03542,1.2026 -3.13492,1.1926 -2.93499,-0.7973 0.23992,-2.388 -3.20256,-3.1359 -4.33797,-0.8379 -3.27673,6.6055 3.9058,10.1413 11.31104,5.4581 4.60835,-2.8537 4.99821,-6.7341 1.51854,-13.1139 -1.70009,-3.0854 -2.97219,-6.42939 -2.76273,-7.51388 0.10997,-1.09449 0.43845,-1.363 0.67697,-0.73602 0.57607,2.26895 3.04402,1.71288 4.00042,-0.80412 2.11227,-6.019 -3.38924,-8.28028 -7.43151,-3.05821 z" />
  <path
     style="fill:#800080;stroke:none;stroke-width:0.1"
     inkscape:connector-curvature="0"
     id="path350"
     d="m 1002.2673,999.09636 c -2.44033,5.28254 -2.82253,14.08844 -0.7344,17.31334 3.4701,5.4743 10.3169,3.3481 13.0766,-4.1134 2.1718,-5.611 0.9497,-9.4524 -4.0338,-12.86774 -5.6401,-3.88323 -6.6351,-3.98319 -8.3084,-0.3322 z m 7.9457,9.94414 c -0.6798,6.766 -5.1677,7.4206 -5.3039,0.7737 -0.078,-4.2289 0.1513,-4.5075 3.3353,-4.1876 1.8905,0.19 2.2385,0.7274 1.9686,3.4139 z" />
  <path
     style="fill:#800080;stroke:none;stroke-width:0.1"
     inkscape:connector-curvature="0"
     id="path352"
     d="m 925.503,992.89158 c -1.34393,1.37253 -3.02682,4.11805 -3.93324,6.13758 -1.47435,3.67104 -4.73876,5.15214 -3.79189,1.72964 0.62791,-2.24855 -2.85455,-2.59842 -4.58696,-0.3604 -1.04544,1.4026 -0.91641,2.1191 0.91363,3.911 1.19352,1.1249 2.99403,2.2103 3.98903,2.3103 1.19398,0.12 1.8205,0.8864 1.70055,2.0804 -0.3099,3.0845 3.08121,7.3448 6.8917,8.4312 4.29799,1.2358 10.43834,-0.8609 10.72823,-3.7463 0.26991,-2.6865 -1.96859,-3.4139 -5.94948,-1.8038 -3.34392,1.2721 -3.44342,1.2621 -5.01448,-1.1068 -1.99858,-3.1154 -1.9386,-3.7124 0.96733,-4.6265 2.70694,-0.9341 6.35121,-6.19614 6.68109,-9.47965 0.25991,-2.58698 -1.96766,-5.42387 -4.45513,-5.67378 -0.99499,-0.1 -2.90594,0.91409 -4.14038,2.19711 z m 2.37519,6.36938 c -1.39392,1.87004 -1.53294,1.25304 -0.37754,-1.24401 0.48797,-0.85551 1.03545,-1.30302 1.20445,-0.98453 0.27851,0.22899 -0.12995,1.29349 -0.82691,2.22854 z" />
  <path
     style="fill:#800080;stroke:none;stroke-width:0.1"
     inkscape:connector-curvature="0"
     id="path354"
     d="m 982.50599,998.71906 c -4.30032,3.78914 -7.89694,13.57864 -9.19555,24.50354 -1.17912,10.7359 -0.75253,13.4924 1.973,15.3742 2.82503,1.8919 3.81096,0.081 4.69065,-8.6745 0.71974,-7.1639 0.85923,-7.5519 3.69565,-8.7745 6.41932,-2.8727 11.68023,-18.2237 7.69214,-22.54404 -2.43657,-2.75738 -5.66053,-2.67927 -8.85589,0.1153 z m 2.43191,12.80734 -2.32033,4.0885 0.28036,-3.791 c 0.11043,-2.0995 1.21631,-5.104 2.29174,-6.805 l 2.11087,-3.004 0.0286,2.7165 c 0.049,1.5124 -1.05684,4.5169 -2.39124,6.795 z" />
  <path
     style="fill:#800080;stroke:none;stroke-width:0.1"
     inkscape:connector-curvature="0"
     id="path356"
     d="m 1226.7099,1061.1164 c -0.3785,0.766 -0.091,2.9054 0.7141,4.8959 1.6996,4.0904 2.4029,11.0957 1.2089,10.9758 -1.791,-0.1799 -1.3853,4.7855 0.4947,6.0799 2.447,1.6529 4.1099,-0.8936 4.7297,-7.0626 0.8497,-8.4574 -4.6376,-19.8631 -7.1474,-14.889 z" />
  <path
     style="fill:#800080;stroke:none;stroke-width:0.1"
     inkscape:connector-curvature="0"
     id="path358"
     d="m 1216.0335,1060.3452 c -1.304,0.9746 -1.1259,3.2035 0.2671,3.3435 1.8905,0.1899 3.2416,4.7478 2.7918,9.2253 -0.4899,4.8754 1.7377,7.7123 4.1171,5.0368 0.8959,-0.9151 1.4539,-2.4671 1.3348,-3.283 -0.2085,-0.9255 -0.4661,-3.3635 -0.6641,-5.3935 -0.3357,-5.6619 -5.2088,-11.1766 -7.8467,-8.9291 z" />
  <path
     style="fill:#800080;stroke:none;stroke-width:0.1"
     inkscape:connector-curvature="0"
     id="path360"
     d="m 1157.7739,1082.0299 c -0.7169,1.1341 -1.2853,3.7905 -1.2963,5.9 -0.011,3.1145 -0.3898,3.8805 -1.6833,3.7505 -2.388,-0.2399 -5.4343,3.0722 -5.7342,6.0571 -0.4799,4.776 4.3947,7.2758 9.6495,4.9897 2.2095,-0.9841 2.896,-0.8146 5.512,1.1568 3.6505,2.6783 8.3475,1.9441 8.6773,-1.3393 0.15,-1.4925 -0.4965,-2.06 -2.6855,-2.2799 -3.98,-0.3999 -4.984,-2.4103 -4.4933,-9.2957 0.2309,-4.2985 -0.1362,-6.6469 -1.2797,-8.2694 -2.1181,-2.9264 -4.9041,-3.2063 -6.6665,-0.6698 z m -1.4999,15.9299 c -0.05,0.4975 -0.7865,0.8255 -1.5825,0.7455 -1.4924,-0.1499 -1.87,-1.3939 -0.6655,-2.3784 0.8759,-0.716 2.3779,0.3394 2.248,1.6329 z" />
  <path
     style="fill:#800080;stroke:none;stroke-width:0.1"
     inkscape:connector-curvature="0"
     id="path362"
     d="m 1181.1067,1083.8716 c -1.1354,2.298 1.7092,4.9959 5.8781,5.5153 2.0795,0.3094 5.671,1.5747 7.949,2.9091 l 4.188,2.3304 -10.5715,9.1892 c -10.9,9.4578 -12.7719,12.0838 -8.6925,12.4937 1.592,0.1599 4.8469,-2.2267 11.1781,-8.2238 15.5393,-14.6199 15.7488,-15.7044 3.7908,-20.7249 -11.7591,-5.0005 -12.8336,-5.3095 -13.72,-3.489 z" />
  <path
     style="fill:#800080;stroke:none;stroke-width:0.1"
     inkscape:connector-curvature="0"
     id="path364"
     d="m 899.71092,1060.726 c -0.80692,2.0295 -2.01324,7.034 -2.72159,11.0835 -1.24676,6.4074 -1.17772,7.7209 0.30384,9.9804 2.00858,3.0158 5.04353,2.8182 7.40338,-0.6633 1.53341,-2.258 1.63291,-2.248 2.73646,-0.2276 1.28256,2.2394 4.50605,3.1663 5.67098,1.5748 0.34848,-0.4675 -0.16807,-2.3285 -1.20212,-4.0404 -1.54107,-2.6674 -1.70961,-3.9909 -0.79227,-8.1199 0.87737,-3.731 0.80832,-5.0444 -0.34568,-5.5624 -1.82051,-0.8864 -3.70286,2.8441 -4.26266,8.416 -0.39986,3.98 -0.62885,4.2585 -2.91733,4.0286 -2.28848,-0.2299 -2.45748,-0.5484 -1.97765,-5.3244 0.3794,-2.7759 1.36625,-6.5964 2.26268,-8.5164 1.91233,-4.0291 1.68428,-5.7605 -0.8032,-6.0104 -1.29349,-0.13 -2.29894,0.8745 -3.35484,3.3815 z" />
  <path
     style="fill:#800080;stroke:none;stroke-width:0.1"
     inkscape:connector-curvature="0"
     id="path366"
     d="m 1110.4605,1080.7941 c -0.438,0.358 -0.9164,2.119 -1.0964,3.91 -0.2699,2.6864 -0.8373,3.333 -3.4148,3.9785 -4.3189,0.9732 -4.3898,3.6796 -0.012,4.1195 3.0845,0.3099 3.4425,0.7479 3.7596,3.5938 0.4957,4.0699 2.5042,7.0858 4.9917,7.3357 2.189,0.22 2.4684,-1.561 0.8583,-5.5419 -1.7591,-4.4984 -1.3807,-5.2644 3.6148,-5.9686 3.3634,-0.4661 4.6374,-1.1421 4.7773,-2.5351 0.2299,-2.2885 -1.4811,-3.2644 -4.2775,-2.4398 -3.8214,1.0231 -5.1744,0.4852 -5.74,-2.8883 -0.6751,-3.2839 -2.0477,-4.6279 -3.4611,-3.5638 z" />
  <path
     style="fill:#800080;stroke:none;stroke-width:0.1"
     inkscape:connector-curvature="0"
     id="path368"
     d="m 1127.5102,1092.1554 c -3.3049,2.884 -3.8238,6.048 -1.5467,9.3924 2.4461,3.6629 14.535,5.3799 16.0589,2.2164 1.2549,-2.487 0.031,-3.3134 -5.8291,-4.0027 -3.0845,-0.3099 -4.945,-0.7984 -4.119,-1.0169 4.6474,-1.2416 7.5057,-6.6832 4.2527,-8.3165 -3.064,-1.5139 -5.6215,-1.0673 -8.8168,1.7273 z" />
  <path
     style="fill:#800080;stroke:none;stroke-width:0.1"
     inkscape:connector-curvature="0"
     id="path370"
     d="m 1080.3662,1090.233 c -6.5602,6.2756 -1.9265,13.1734 6.0257,9.0477 2.4484,-1.3621 2.7369,-1.2326 4.4575,0.6488 1.1735,1.324 3.402,2.1509 6.4865,2.4608 3.9699,0.4993 4.6964,0.2708 4.8664,-1.4207 0.1399,-1.393 -0.7851,-2.1894 -3.6106,-3.0763 -4.477,-1.4549 -7.232,-4.0432 -6.9621,-6.7297 0.1,-0.995 0.08,-1.801 -0.01,-1.9105 -6.5365,-1.9632 -8.457,-1.8547 -11.2543,0.9799 z m 5.4315,2.9578 c -0.7569,1.532 -3.6829,2.6451 -3.5629,1.4511 0.1,-0.995 2.5089,-2.9641 3.5039,-2.8641 0.398,0.04 0.4375,0.647 0.059,1.413 z" />
  <path
     style="fill:#800080;stroke:none;stroke-width:0.1"
     inkscape:connector-curvature="0"
     id="path372"
     d="m 1065.8884,1090.286 -3.3449,3.2821 -1.4316,-2.757 c -1.352,-2.5479 -5.222,-4.0422 -5.422,-2.0522 -0.05,0.4974 1.0731,3.3239 2.3952,6.1703 2.4257,4.8668 5.3497,7.7737 6.1266,6.0427 1.8924,-3.83 6.0537,-8.2361 8.1932,-8.5237 3.8709,-0.5156 3.8228,-4.038 -0.1172,-4.8359 -2.557,-0.5584 -3.7115,-0.071 -6.3993,2.6737 z" />
  <path
     style="fill:#800080;stroke:none;stroke-width:0.1"
     inkscape:connector-curvature="0"
     id="path374"
     d="m 929.22331,1083.0882 c -5.2158,3.8982 -10.15263,7.0203 -10.94862,6.9403 -1.49249,-0.1499 -3.13585,3.2026 -2.39031,4.7851 0.24852,0.5274 1.19353,1.1249 1.98952,1.2049 0.89549,0.09 4.62601,1.9723 8.31654,4.2526 10.51459,6.3831 11.76809,6.911 13.22152,5.449 2.33939,-2.2775 0.80785,-4.0395 -7.21019,-8.2621 l -7.72955,-4.0932 8.88914,-7.4487 c 8.12266,-6.8222 9.99455,-9.4483 6.71108,-9.7781 -0.69649,-0.07 -5.53383,3.0621 -10.84913,6.9502 z" />
  <path
     style="fill:#800080;stroke:none;stroke-width:0.1"
     inkscape:connector-curvature="0"
     id="path376"
     d="m 1032.7057,1086.4497 c -2.5279,1.153 -4.8288,6.0476 -4.4421,9.202 0.6151,3.8809 7.6781,7.6056 14.2155,7.5589 5.8409,-0.1167 9.9513,-2.0153 10.2112,-4.6023 0.2599,-2.5869 -2.0581,-3.5234 -5.5115,-2.1618 -3.4634,1.4611 -13.0453,0.8 -9.9899,-0.6016 1.055,-0.497 2.4089,-1.9691 3.1459,-3.3021 2.1513,-4.407 -2.7823,-8.3198 -7.6291,-6.0931 z" />
  <path
     style="fill:#800080;stroke:none;stroke-width:0.1"
     inkscape:connector-curvature="0"
     id="path378"
     d="m 1009.1125,1088.1999 c -1.5629,1.5516 -2.9369,3.2226 -2.9968,3.8196 -0.06,0.597 -0.836,0.318 -1.741,-0.6774 -2.9836,-3.3149 -6.65602,-1.7743 -4.0904,1.6996 0.8055,0.9855 1.7001,3.0854 2.1371,4.7374 1.1026,4.0304 3.2521,3.6433 6.2394,-1.0817 3.7442,-6.2571 5.2072,-6.8136 6.3098,-2.7832 1.3512,4.5579 3.2007,7.1558 5.4892,7.3857 2.4875,0.2499 2.5784,-2.6556 0.044,-8.4379 -3.3397,-7.7728 -6.8217,-9.1277 -11.391,-4.6621 z" />
  <path
     style="fill:#800080;stroke:none;stroke-width:0.1"
     inkscape:connector-curvature="0"
     id="path380"
     d="m 960.66456,1087.2521 c -5.90136,1.7187 -8.32352,10.8222 -3.42901,13.123 2.20851,1.0259 3.2235,0.9268 5.79141,-0.6242 l 3.2049,-1.8891 1.43018,5.7719 c 2.56279,9.5038 1.14795,13.5828 -4.3245,13.033 -2.98498,-0.2999 -3.90953,-2.1014 -2.68415,-5.2949 0.52795,-1.2535 0.25991,-2.587 -0.4861,-3.1644 -2.42704,-1.8519 -3.691,-1.2754 -5.05586,2.3061 -2.44076,6.2875 1.15888,11.4733 8.52181,12.2131 4.57696,0.4598 7.22438,-0.8823 9.30573,-4.5928 2.4798,-4.6755 2.51119,-7.989 0.20598,-15.0548 -1.06311,-3.4234 -1.95673,-7.5333 -1.90629,-9.0358 0.0504,-1.5025 -0.45611,-3.463 -1.17213,-4.3389 -1.71055,-1.981 -6.60553,-3.2768 -9.40197,-2.4522 z m 3.19164,5.2453 c -0.12995,1.2935 -3.23535,3.1926 -3.96137,2.4161 -0.61652,-0.8659 1.86236,-3.5315 3.15585,-3.4015 0.49749,0.05 0.85551,0.4879 0.80552,0.9854 z" />
  <path
     style="fill:#800080;stroke:none;stroke-width:0.1"
     inkscape:connector-curvature="0"
     id="path382"
     d="m 981.55844,1091.3614 c -3.07587,2.6055 -3.20536,2.894 -1.97278,5.6309 0.64605,1.5725 2.25709,3.5434 3.48061,4.3699 3.01403,2.0113 11.44193,2.1546 13.85083,0.1855 1.64243,-1.3425 1.66243,-1.5415 0.31989,-3.184 -1.16354,-1.4234 -2.04903,-1.6129 -5.32297,-1.0373 -5.01541,0.9032 -6.5079,0.7532 -6.37794,-0.5403 0.06,-0.5969 0.99545,-0.905 1.99045,-0.805 2.68647,0.2699 5.76281,-3.3407 4.45026,-5.2816 -1.75007,-2.5879 -7.00399,-2.3117 -10.41835,0.6619 z" />
</svg>
